<svg id="Layer_1" data-name="Layer 1" xmlns="http://www.w3.org/2000/svg" viewBox="0 0 493.82 70.05"><defs><style>.cls-1{fill:#0198ce;}.cls-2{isolation:isolate;}</style></defs><title>BeePortalConnect</title><path class="cls-1" d="M41.51,56.94V53.09l11.3,7.19a1.07,1.07,0,0,0,1.19,0L69.46,52a1,1,0,0,0,.59-1V34.43a1.26,1.26,0,0,0-.59-1.07L55.85,25.42V9.56a1.26,1.26,0,0,0-.59-1.07L41,.18a1.06,1.06,0,0,0-1.18,0L25.58,8.49A1.28,1.28,0,0,0,25,9.56v14l-3.1-1.92a1.07,1.07,0,0,0-1.19,0L.59,33.51a.94.94,0,0,0-.59,1V56.94A1.26,1.26,0,0,0,.59,58L20.64,69.87a1.06,1.06,0,0,0,1.18,0L40.92,58A1.42,1.42,0,0,0,41.51,56.94ZM53.39,10.26V25.42L40.27,33.07l-2-1.21-11-6.9V10.26L40.35,2.68ZM41.51,50.31V35.14l13-7.59,13,7.59V50.31L53.37,57.9Zm-2.32,6L21.3,67.49,2.46,56.24V35.14L21.3,24,39.19,35.14V56.31Z" transform="translate(0.01 0)"/><path class="cls-1" d="M7.64,40.26a6.57,6.57,0,0,0,6.47,6.6l4.41.06h2.15l.08-6.53h0a6.55,6.55,0,0,0-13.1-.13h0Zm1.07,0h0a5.5,5.5,0,0,1,11,.14l-.07,5.49-5.49-.07a5.5,5.5,0,0,1-5.44-5.56Z" transform="translate(0.01 0)"/><path class="cls-1" d="M32.7,52.68a6.56,6.56,0,0,0-6.47-6.61H19.67l-.08,6.52h0a6.56,6.56,0,0,0,13.11.09Zm-1.07,0h0a5.5,5.5,0,0,1-11-.14l.07-5.49,5.49.07a5.49,5.49,0,0,1,5.44,5.54Z" transform="translate(0.01 0)"/><path class="cls-1" d="M25.6,38.34h0a3.08,3.08,0,0,1-.08,6.16H22.44V41.42a3.08,3.08,0,0,1,3.1-3" transform="translate(0.01 0)"/><path class="cls-1" d="M13.8,59.12h0A6.25,6.25,0,1,1,14,46.62l6.25.08L20.13,53a6.25,6.25,0,0,1-6.3,6.17" transform="translate(0.01 0)"/><g class="cls-2"><g class="cls-2"><path class="cls-1" d="M96.25,46.57a7.72,7.72,0,0,1,4.52,7.15c0,4.77-4.12,8.38-9.55,8.38H77.66V32.69H91c5.22,0,9,3.18,9,7.52a7.49,7.49,0,0,1-3.72,6.36Zm-3.5,6.19a2.65,2.65,0,0,0-2.9-2.66h-4.4v5.35h4.4A2.65,2.65,0,0,0,92.75,52.76Zm-.47-11.21A2.49,2.49,0,0,0,89.54,39H85.45v5.13h4.09a2.49,2.49,0,0,0,2.74-2.57Z" transform="translate(0.01 0)"/><path class="cls-1" d="M128,50.54a14.65,14.65,0,0,1-.16,2.07H111a4.41,4.41,0,0,0,4.63,4,4.57,4.57,0,0,0,4.11-2.13h7.77c-1.59,5.18-6.18,8.41-11.88,8.41-7.08,0-12.32-5.17-12.32-12.1s5.2-12.08,12.32-12.08C123,38.66,128,43.88,128,50.54Zm-16.87-2.26h9.17a4.55,4.55,0,0,0-4.68-3.49A4.39,4.39,0,0,0,111.15,48.28Z" transform="translate(0.01 0)"/><path class="cls-1" d="M155,50.54a14.65,14.65,0,0,1-.16,2.07H138a4.41,4.41,0,0,0,4.63,4,4.56,4.56,0,0,0,4.11-2.13h7.77c-1.59,5.18-6.18,8.41-11.88,8.41-7.08,0-12.32-5.17-12.32-12.1s5.2-12.08,12.32-12.08c7.32,0,12.38,5.22,12.38,11.88Zm-16.87-2.26h9.17a4.55,4.55,0,0,0-4.68-3.49A4.4,4.4,0,0,0,138.09,48.28Z" transform="translate(0.01 0)"/></g><g class="cls-2"><path class="cls-1" d="M191.45,43.31c0,6.17-4.65,10.67-10.9,10.67h-4.4V62.1H168V32.68h12.53C186.8,32.68,191.45,37.14,191.45,43.31Zm-8.33,0a3.38,3.38,0,0,0-3.54-3.57h-3.43V46.9h3.43A3.38,3.38,0,0,0,183.12,43.33Z" transform="translate(0.01 0)"/></g><g class="cls-2"><path class="cls-1" d="M193.3,50.75c0-7,5.32-12.09,12.72-12.09s12.72,5.06,12.72,12.09S213.39,62.84,206,62.84,193.3,57.76,193.3,50.75Zm17.61,0a4.89,4.89,0,1,0-9.78,0,4.89,4.89,0,1,0,9.78,0Z" transform="translate(0.01 0)"/></g><g class="cls-2"><path class="cls-1" d="M237.14,39.3v7.15h-3c-2.77,0-3.93,1.22-3.93,4.11V62.1h-7.81V39.41h5.24l1.21,2.52a7.57,7.57,0,0,1,6.25-2.63Z" transform="translate(0.01 0)"/></g><g class="cls-2"><path class="cls-1" d="M255.77,55.25V62.1h-5.38c-5,0-8.06-3.07-8.06-8.11V45.43h-4.16V43.6l10.17-10.83H250v6.64h5.7v6h-5.51v7.22a2.41,2.41,0,0,0,2.63,2.6Z" transform="translate(0.01 0)"/></g><g class="cls-2"><path class="cls-1" d="M283.36,39.38v22.7h-6l-.67-1.61a10.72,10.72,0,0,1-6.85,2.37c-6.93,0-11.89-5.06-11.89-12.11s5-12,11.89-12a10.76,10.76,0,0,1,6.94,2.44l.8-1.76Zm-7.43,11.37a5.08,5.08,0,1,0-5.08,5.17A5,5,0,0,0,275.93,50.75Z" transform="translate(0.01 0)"/><path class="cls-1" d="M288.29,31.21h7.82V62.1h-7.82Z" transform="translate(0.01 0)"/><path class="cls-1" d="M309,47.42a15.18,15.18,0,0,1,15.64-15.48,14.61,14.61,0,0,1,14.88,12.55h-8.21a7,7,0,0,0-6.65-5c-4.17,0-7.22,3.35-7.22,7.91s3.05,7.83,7.22,7.83a6.75,6.75,0,0,0,6.65-5.39h8.29a14.69,14.69,0,0,1-15,13C315.69,62.84,309,56.22,309,47.42Z" transform="translate(0.01 0)"/><path class="cls-1" d="M341.78,50.75c0-7,5.32-12.09,12.72-12.09s12.72,5.06,12.72,12.09-5.34,12.09-12.72,12.09S341.78,57.76,341.78,50.75Zm17.61,0a4.89,4.89,0,1,0-9.78,0,4.89,4.89,0,1,0,9.78,0Z" transform="translate(0.01 0)"/><path class="cls-1" d="M393.27,48.26V62.1h-7.82V49.34c0-2.64-1-4-3-4-2.43,0-3.84,1.7-3.84,4.59V62.1h-7.81V39.41h5.48l1.08,2.34a9.41,9.41,0,0,1,7.14-3C389.81,38.74,393.27,42.48,393.27,48.26Z" transform="translate(0.01 0)"/><path class="cls-1" d="M420.38,48.26V62.1h-7.82V49.34c0-2.64-1-4-3-4-2.43,0-3.84,1.7-3.84,4.59V62.1H398V39.41h5.48l1.07,2.34a9.41,9.41,0,0,1,7.15-3C416.92,38.74,420.38,42.48,420.38,48.26Z" transform="translate(0.01 0)"/><path class="cls-1" d="M448.44,50.54a14.65,14.65,0,0,1-.16,2.07H431.43a4.41,4.41,0,0,0,4.63,4,4.54,4.54,0,0,0,4.1-2.13h7.78c-1.6,5.18-6.19,8.41-11.88,8.41-7.08,0-12.33-5.17-12.33-12.1s5.21-12.08,12.33-12.08c7.32,0,12.38,5.22,12.38,11.88Zm-16.87-2.26h9.17a4.56,4.56,0,0,0-4.68-3.49A4.39,4.39,0,0,0,431.57,48.28Z" transform="translate(0.01 0)"/></g><g class="cls-2"><path class="cls-1" d="M463.22,62.84c-7.28,0-12.53-5.1-12.53-12.12s5.22-12,12.55-12c6.38,0,11.16,4,12,10h-7.61a4.61,4.61,0,0,0-4.42-3c-2.75,0-4.71,2.09-4.71,5s2,5.09,4.71,5.09a4.59,4.59,0,0,0,4.44-3.31h7.68a11.77,11.77,0,0,1-12.12,10.31Z" transform="translate(0.01 0)"/></g><g class="cls-2"><path class="cls-1" d="M493.81,55.25V62.1h-5.38c-5,0-8.06-3.07-8.06-8.11V45.43h-4.16V43.6l10.17-10.83H488v6.64h5.7v6h-5.51v7.22a2.41,2.41,0,0,0,2.63,2.6Z" transform="translate(0.01 0)"/></g></g></svg>