<?xml version="1.0" encoding="utf-8"?>
<!-- Generator: Adobe Illustrator 23.0.3, SVG Export Plug-In . SVG Version: 6.00 Build 0)  -->
<svg version="1.1" id="Layer_1" xmlns="http://www.w3.org/2000/svg" xmlns:xlink="http://www.w3.org/1999/xlink" x="0px" y="0px"
	 viewBox="0 0 317 333" style="enable-background:new 0 0 317 333;" xml:space="preserve">
<g id="Product">
	<path d="M288.2,72.7l-128-56c-2-0.9-4.4-0.9-6.4,0l-128,56C22.9,73.9,21,76.8,21,80v160c0,3,1.7,5.8,4.4,7.1l128,65.1
		c1.1,0.6,2.4,0.9,3.6,0.9c1.2,0,2.5-0.3,3.6-0.8l128-64.3c2.7-1.4,4.4-4.1,4.4-7.2V80C293,76.8,291.1,73.9,288.2,72.7z M157,32.7
		L265,80l-108,47.3L128.9,115l42.7-18.7c4-1.8,5.9-6.5,4.1-10.5c-0.8-1.8-2.3-3.3-4.1-4.1l-34.3-15c-2-0.9-4.4-0.9-6.4,0L74.7,91.2
		L49,80L157,32.7z M85,113.2l16,7v34.8l-16-8V113.2z M94.6,100l39.5-17.3l14.3,6.2L109,106.2L94.6,100z M37,92.2l32,14V152
		c0,3,1.7,5.8,4.4,7.2l32,16c4,2,8.8,0.4,10.7-3.6c0.6-1.1,0.8-2.3,0.8-3.6v-40.8l32,14v150.9l-112-57V92.2z M165,292.1V141.2
		l112-49v143.6L165,292.1z"/>
	<path d="M209.5,233.9L177.4,250c-3.9,2-5.5,6.8-3.5,10.7c2,3.9,6.8,5.5,10.7,3.5l32.1-16.1c3.9-2,5.5-6.8,3.5-10.7
		C218.2,233.5,213.4,231.9,209.5,233.9L209.5,233.9z"/>
	<path d="M181,233.1c1.2,0,2.5-0.3,3.6-0.8l31.6-15.9c3.9-2,5.5-6.8,3.5-10.7c-2-3.9-6.8-5.5-10.7-3.5l0,0L177.4,218
		c-3.9,2-5.5,6.8-3.5,10.7C175.2,231.4,178,233.1,181,233.1z"/>
</g>
</svg>
