<?xml version="1.0" encoding="UTF-8" standalone="no"?>
<!DOCTYPE svg PUBLIC "-//W3C//DTD SVG 1.1//EN" "http://www.w3.org/Graphics/SVG/1.1/DTD/svg11.dtd">
<svg version="1.1" xmlns="http://www.w3.org/2000/svg" xmlns:xlink="http://www.w3.org/1999/xlink" preserveAspectRatio="xMidYMid meet" viewBox="0 0 449.764 83.15" width="450" height="83"><defs><path d="M73.42 22.59L73.42 60.19L42.09 44.53L42.09 6.92L73.42 22.59Z" id="aQ0nv8ab1"></path><path d="M42.09 6.92L42.09 44.53L10.75 60.19L10.75 22.59L42.09 6.92Z" id="d2i8pK09WY"></path><path d="M42.09 38.26L42.09 75.86L10.75 60.19L10.75 22.59L42.09 38.26Z" id="b3xUezDR0"></path><path d="M73.42 22.59L73.42 60.19L42.09 75.86L42.09 38.26L73.42 22.59Z" id="d39WfmfcU"></path><path d="M89.17 57.95C89.17 54.72 89.17 28.86 89.17 25.63C89.17 24.93 89.42 24.35 89.9 23.86C90.39 23.39 90.98 23.14 91.64 23.14C92.35 23.14 92.93 23.38 93.41 23.86C93.9 24.35 94.13 24.93 94.13 25.63C94.13 26.59 94.13 31.36 94.13 39.95C103.61 30.48 108.87 25.21 109.92 24.16C110.3 23.78 110.65 23.52 110.96 23.38C111.26 23.23 111.6 23.16 111.98 23.16C112.65 23.16 113.17 23.36 113.53 23.75C113.89 24.14 114.08 24.63 114.08 25.21C114.08 26.04 113.78 26.76 113.17 27.35C112.36 28.17 108.3 32.24 100.99 39.57C108.44 49.72 112.58 55.35 113.4 56.48C113.72 56.92 113.87 57.44 113.87 58.01C113.87 58.66 113.67 59.22 113.25 59.71C112.84 60.19 112.31 60.44 111.66 60.44C110.77 60.44 110.08 60.1 109.61 59.39C108.81 58.3 104.78 52.84 97.53 43.02L94.1 46.45C94.1 53.35 94.1 57.19 94.1 57.95C94.1 58.66 93.87 59.24 93.38 59.72C92.89 60.21 92.32 60.44 91.61 60.44C90.97 60.43 90.39 60.19 89.9 59.72C89.42 59.25 89.17 58.66 89.17 57.95Z" id="lphNeJHXb"></path><path d="M142.09 39.7C143.08 41.53 143.56 43.73 143.56 46.31C143.56 47.49 143.56 56.89 143.56 58.06C143.56 58.77 143.33 59.35 142.87 59.8C142.42 60.26 141.82 60.49 141.13 60.49C140.43 60.49 139.85 60.26 139.39 59.8C138.94 59.35 138.71 58.75 138.71 58.06C138.71 56.89 138.71 47.49 138.71 46.31C138.71 43.73 138.02 41.78 136.62 40.47C135.24 39.15 133.39 38.49 131.11 38.49C129.78 38.49 128.55 38.76 127.46 39.31C126.36 39.86 125.5 40.58 124.87 41.5C124.24 42.43 123.95 43.46 123.95 44.6C123.95 45.95 123.95 56.72 123.95 58.06C123.95 58.77 123.73 59.35 123.27 59.8C122.83 60.26 122.24 60.49 121.5 60.49C120.8 60.49 120.22 60.26 119.76 59.8C119.31 59.35 119.07 58.75 119.07 58.06C119.07 55.93 119.07 38.9 119.07 36.77C119.07 36.03 119.31 35.45 119.76 35C120.22 34.56 120.81 34.33 121.5 34.33C122.24 34.33 122.82 34.55 123.27 35C123.71 35.44 123.95 36.03 123.95 36.77C123.95 36.82 123.95 37.24 123.95 37.29C124.97 36.27 126.17 35.49 127.58 34.92C128.98 34.37 130.48 34.09 132.06 34.09C134.27 34.09 136.25 34.56 137.98 35.52C139.74 36.47 141.1 37.87 142.09 39.7Z" id="f3r21OZh0"></path><path d="M164.42 34.15L164.87 34.18L165.32 34.23L165.77 34.29L166.2 34.36L166.64 34.45L167.06 34.55L167.48 34.66L167.89 34.78L168.3 34.92L168.7 35.07L169.1 35.24L169.48 35.42L169.87 35.61L170.24 35.81L170.61 36.03L170.97 36.26L171.32 36.5L171.65 36.74L171.98 37L172.3 37.27L172.61 37.55L172.9 37.84L173.19 38.13L173.47 38.44L173.74 38.76L173.99 39.09L174.24 39.43L174.48 39.78L174.71 40.14L174.93 40.51L175.13 40.89L175.32 41.28L175.5 41.67L175.67 42.07L175.82 42.48L175.96 42.89L176.08 43.31L176.2 43.74L176.3 44.17L176.38 44.61L176.45 45.06L176.51 45.51L176.56 45.97L176.59 46.44L176.61 46.91L176.62 47.39L176.61 47.87L176.59 48.34L176.56 48.8L176.51 49.26L176.45 49.7L176.38 50.15L176.3 50.58L176.2 51.01L176.09 51.44L175.96 51.85L175.82 52.26L175.67 52.67L175.51 53.07L175.33 53.46L175.15 53.84L174.94 54.22L174.73 54.59L174.51 54.95L174.27 55.31L174.03 55.65L173.77 55.98L173.51 56.29L173.23 56.6L172.95 56.9L172.65 57.19L172.34 57.47L172.03 57.74L171.7 58L171.36 58.24L171.02 58.48L170.66 58.71L170.29 58.92L169.91 59.13L169.53 59.32L169.14 59.5L168.75 59.66L168.34 59.82L167.93 59.95L167.52 60.08L167.1 60.19L166.67 60.29L166.23 60.38L165.79 60.45L165.34 60.51L164.89 60.56L164.43 60.59L163.96 60.61L163.49 60.62L163.02 60.61L162.55 60.59L162.08 60.56L161.63 60.52L161.18 60.46L160.74 60.39L160.3 60.3L159.87 60.2L159.45 60.09L159.03 59.97L158.62 59.83L158.21 59.67L157.82 59.51L157.42 59.33L157.04 59.13L156.66 58.92L156.29 58.71L155.93 58.48L155.58 58.24L155.24 58L154.91 57.74L154.59 57.47L154.28 57.19L153.98 56.9L153.69 56.6L153.42 56.29L153.15 55.98L152.89 55.65L152.65 55.31L152.41 54.95L152.19 54.59L151.98 54.22L151.77 53.84L151.58 53.46L151.41 53.07L151.24 52.67L151.09 52.26L150.96 51.85L150.83 51.44L150.72 51.01L150.62 50.58L150.54 50.15L150.46 49.7L150.4 49.26L150.36 48.8L150.33 48.34L150.31 47.87L150.3 47.39L150.31 46.91L150.32 46.44L150.36 45.97L150.4 45.51L150.46 45.06L150.53 44.61L150.62 44.17L150.71 43.74L150.83 43.31L150.95 42.89L151.09 42.48L151.24 42.07L151.4 41.67L151.58 41.28L151.77 40.89L151.98 40.51L152.19 40.14L152.41 39.78L152.65 39.43L152.89 39.09L153.15 38.76L153.42 38.44L153.69 38.13L153.98 37.84L154.28 37.55L154.59 37.27L154.91 37L155.24 36.74L155.58 36.5L155.93 36.26L156.29 36.03L156.66 35.81L157.04 35.61L157.42 35.42L157.82 35.24L158.21 35.07L158.62 34.92L159.03 34.78L159.45 34.66L159.87 34.55L160.3 34.45L160.74 34.36L161.18 34.29L161.63 34.23L162.08 34.18L162.55 34.15L163.02 34.13L163.49 34.12L163.96 34.13L164.42 34.15ZM162.6 38.45L162.18 38.5L161.77 38.57L161.36 38.65L160.96 38.75L160.57 38.88L160.19 39.02L159.82 39.18L159.46 39.36L159.1 39.56L158.76 39.78L158.43 40.01L158.11 40.25L157.81 40.51L157.52 40.79L157.24 41.08L156.98 41.39L156.74 41.71L156.5 42.04L156.28 42.39L156.08 42.76L155.89 43.13L155.72 43.52L155.56 43.91L155.43 44.32L155.31 44.73L155.21 45.15L155.13 45.58L155.06 46.02L155.02 46.47L154.99 46.93L154.98 47.39L154.99 47.86L155.02 48.31L155.06 48.76L155.13 49.2L155.21 49.63L155.31 50.04L155.43 50.45L155.56 50.85L155.72 51.25L155.89 51.63L156.08 52L156.29 52.36L156.51 52.71L156.74 53.04L156.99 53.36L157.25 53.66L157.53 53.95L157.81 54.22L158.12 54.48L158.43 54.73L158.76 54.96L159.1 55.18L159.46 55.38L159.82 55.56L160.19 55.72L160.57 55.86L160.96 55.98L161.36 56.09L161.77 56.17L162.18 56.24L162.6 56.29L163.03 56.31L163.47 56.32L163.92 56.31L164.35 56.29L164.77 56.24L165.18 56.17L165.59 56.09L165.99 55.98L166.38 55.86L166.76 55.72L167.13 55.56L167.49 55.38L167.85 55.18L168.19 54.96L168.52 54.73L168.83 54.49L169.14 54.23L169.42 53.95L169.7 53.67L169.96 53.36L170.2 53.04L170.43 52.71L170.65 52.36L170.85 52L171.04 51.62L171.21 51.24L171.36 50.85L171.5 50.45L171.61 50.04L171.71 49.62L171.79 49.19L171.85 48.76L171.9 48.31L171.93 47.86L171.94 47.39L171.93 46.93L171.9 46.47L171.85 46.02L171.79 45.59L171.71 45.16L171.61 44.74L171.5 44.32L171.36 43.92L171.21 43.52L171.04 43.14L170.85 42.76L170.65 42.39L170.43 42.04L170.2 41.71L169.96 41.39L169.7 41.08L169.42 40.79L169.14 40.51L168.83 40.25L168.52 40.01L168.19 39.78L167.85 39.56L167.49 39.36L167.13 39.18L166.76 39.02L166.38 38.88L165.99 38.75L165.59 38.65L165.18 38.57L164.77 38.5L164.35 38.45L163.92 38.42L163.47 38.42L163.03 38.42L162.6 38.45Z" id="a8dloWDSLl"></path><path d="M212.17 36.27C212.17 36.77 212.09 37.24 211.93 37.65C211.23 39.77 205.57 56.73 204.87 58.85C204.71 59.28 204.43 59.66 204.01 59.97C203.6 60.27 203.13 60.43 202.63 60.43C202.08 60.43 201.61 60.27 201.17 59.97C200.75 59.68 200.46 59.3 200.34 58.85C200.03 57.69 198.47 51.91 195.66 41.52C192.7 51.91 191.06 57.69 190.74 58.85C190.58 59.28 190.28 59.66 189.86 59.97C189.44 60.27 188.97 60.43 188.45 60.43C187.93 60.43 187.48 60.27 187.04 59.97C186.62 59.68 186.32 59.3 186.16 58.85C185.45 56.73 179.8 39.77 179.1 37.65C178.97 37.24 178.91 36.79 178.91 36.32C178.91 34.98 179.58 34.31 180.91 34.31C181.52 34.31 182.02 34.48 182.42 34.84C182.81 35.19 183.14 35.75 183.39 36.52C183.73 37.59 185.45 42.96 188.54 52.61C191.47 42.73 193.09 37.24 193.41 36.14C193.57 35.61 193.85 35.17 194.25 34.83C194.64 34.5 195.15 34.33 195.8 34.33C196.41 34.33 196.91 34.5 197.3 34.83C197.69 35.16 197.97 35.6 198.13 36.14C198.42 37.26 199.85 42.86 202.42 52.94C205.57 43.09 207.32 37.61 207.67 36.52C208.11 35.06 208.94 34.33 210.15 34.33C210.84 34.33 211.34 34.5 211.67 34.84C212 35.19 212.17 35.67 212.17 36.27Z" id="ej1U4nZQG"></path><path d="M217.13 56.17C216.52 54.82 216.23 53.3 216.23 51.61C216.23 49 216.23 28.14 216.23 25.54C216.23 24.83 216.45 24.27 216.9 23.81C217.34 23.38 217.92 23.14 218.62 23.14C219.33 23.14 219.89 23.36 220.35 23.81C220.79 24.25 221.02 24.83 221.02 25.54C221.02 28.14 221.02 49 221.02 51.61C221.02 52.78 221.24 53.75 221.69 54.52C222.13 55.29 222.71 55.66 223.42 55.66C223.54 55.66 224.49 55.66 224.61 55.66C225.25 55.66 225.77 55.88 226.16 56.34C226.55 56.78 226.75 57.36 226.75 58.06C226.75 58.77 226.46 59.33 225.85 59.79C225.23 60.22 224.47 60.46 223.51 60.46C223.5 60.46 223.43 60.46 223.42 60.46C222.02 60.43 220.79 60.07 219.69 59.32C218.59 58.56 217.75 57.51 217.13 56.17Z" id="a5vl8xzI71"></path><path d="M242.25 34.15L242.56 34.17L242.87 34.19L243.17 34.22L243.47 34.25L243.76 34.29L244.05 34.34L244.34 34.39L244.62 34.45L244.9 34.51L245.18 34.58L245.45 34.66L245.72 34.74L245.98 34.83L246.25 34.93L246.5 35.03L246.76 35.14L247.01 35.25L247.25 35.37L247.49 35.5L247.73 35.63L247.97 35.77L248.2 35.91L248.42 36.06L248.64 36.21L248.86 36.37L249.07 36.53L249.28 36.7L249.48 36.88L249.68 37.05L249.87 37.24L250.06 37.42L250.24 37.62L250.42 37.81L250.59 38.02L250.76 38.22L250.93 38.43L251.09 38.65L251.24 38.87L251.39 39.1L251.54 39.33L251.68 39.56L251.81 39.8L251.95 40.05L252.07 40.3L252.19 40.55L252.31 40.81L252.42 41.07L252.53 41.33L252.63 41.6L252.72 41.87L252.81 42.15L252.89 42.43L252.97 42.71L253.04 42.99L253.11 43.28L253.17 43.57L253.23 43.86L253.28 44.16L253.33 44.46L253.37 44.76L253.4 45.07L253.43 45.38L253.46 45.7L253.47 46.01L253.49 46.33L253.5 46.66L253.5 46.99L253.5 47.06L253.5 47.14L253.49 47.21L253.49 47.29L253.48 47.36L253.46 47.43L253.45 47.5L253.43 47.57L253.41 47.64L253.39 47.71L253.36 47.77L253.34 47.84L253.31 47.9L253.28 47.96L253.24 48.03L253.21 48.09L253.17 48.15L253.13 48.2L253.08 48.26L253.04 48.31L252.99 48.37L252.94 48.42L252.89 48.47L252.83 48.52L252.78 48.57L252.72 48.62L252.66 48.66L252.6 48.7L252.54 48.74L252.48 48.78L252.42 48.81L252.35 48.85L252.29 48.88L252.22 48.9L252.15 48.93L252.08 48.95L252.01 48.98L251.93 49L251.86 49.01L251.78 49.03L251.71 49.04L251.63 49.05L251.55 49.06L251.47 49.06L251.39 49.07L251.3 49.07L233.16 49.07L233.21 49.36L233.27 49.64L233.33 49.92L233.4 50.19L233.48 50.46L233.57 50.72L233.66 50.98L233.76 51.24L233.87 51.49L233.99 51.73L234.12 51.97L234.25 52.2L234.39 52.43L234.53 52.66L234.69 52.88L234.85 53.09L235.02 53.3L235.19 53.51L235.38 53.71L235.57 53.9L235.77 54.09L235.97 54.28L236.19 54.46L236.41 54.63L236.63 54.8L236.86 54.96L237.09 55.11L237.33 55.25L237.57 55.39L237.82 55.52L238.07 55.64L238.32 55.75L238.58 55.85L238.84 55.95L239.11 56.04L239.38 56.12L239.65 56.2L239.93 56.26L240.22 56.32L240.51 56.37L240.8 56.41L241.1 56.45L241.4 56.48L241.7 56.5L242.01 56.51L242.33 56.51L242.45 56.51L242.58 56.51L242.7 56.5L242.83 56.5L242.96 56.49L243.08 56.48L243.21 56.46L243.34 56.45L243.46 56.43L243.59 56.41L243.72 56.39L243.85 56.37L243.98 56.35L244.11 56.32L244.24 56.29L244.37 56.26L244.5 56.23L244.64 56.19L244.77 56.16L244.9 56.12L245.04 56.08L245.17 56.04L245.3 55.99L245.44 55.95L245.57 55.9L245.7 55.85L245.83 55.81L245.95 55.76L246.08 55.71L246.2 55.65L246.32 55.6L246.43 55.55L246.55 55.49L246.66 55.44L246.77 55.38L246.88 55.32L246.99 55.27L247.09 55.21L247.19 55.15L247.3 55.09L247.39 55.03L247.49 54.96L247.59 54.9L247.68 54.84L247.77 54.77L247.86 54.71L247.92 54.67L247.97 54.62L248.03 54.58L248.1 54.54L248.16 54.51L248.22 54.47L248.28 54.44L248.35 54.41L248.42 54.38L248.48 54.36L248.55 54.33L248.62 54.31L248.69 54.29L248.76 54.27L248.83 54.25L248.9 54.24L248.98 54.23L249.05 54.22L249.13 54.21L249.21 54.2L249.28 54.2L249.36 54.19L249.44 54.19L249.52 54.19L249.6 54.2L249.67 54.2L249.75 54.21L249.82 54.21L249.89 54.22L249.96 54.24L250.03 54.25L250.09 54.26L250.16 54.28L250.22 54.3L250.28 54.32L250.34 54.34L250.4 54.37L250.46 54.39L250.52 54.42L250.57 54.45L250.62 54.48L250.67 54.51L250.72 54.55L250.77 54.58L250.82 54.62L250.87 54.66L250.94 54.72L251.01 54.79L251.08 54.85L251.14 54.91L251.2 54.98L251.26 55.05L251.31 55.11L251.36 55.18L251.41 55.25L251.45 55.32L251.5 55.39L251.53 55.46L251.57 55.53L251.6 55.6L251.62 55.68L251.65 55.75L251.67 55.83L251.69 55.9L251.7 55.98L251.71 56.06L251.72 56.13L251.73 56.21L251.73 56.29L251.73 56.37L251.72 56.44L251.71 56.51L251.7 56.58L251.69 56.65L251.68 56.72L251.66 56.79L251.64 56.86L251.61 56.92L251.58 56.99L251.55 57.05L251.52 57.11L251.48 57.17L251.45 57.23L251.4 57.29L251.36 57.35L251.31 57.4L251.26 57.46L251.21 57.51L251.15 57.57L251.09 57.62L251.03 57.67L250.96 57.72L250.82 57.83L250.67 57.94L250.52 58.05L250.37 58.15L250.22 58.26L250.06 58.36L249.9 58.46L249.74 58.56L249.57 58.66L249.4 58.75L249.23 58.84L249.05 58.94L248.87 59.03L248.69 59.11L248.51 59.2L248.32 59.28L248.13 59.36L247.94 59.44L247.74 59.52L247.55 59.6L247.34 59.67L247.14 59.75L246.93 59.82L246.72 59.89L246.51 59.95L246.31 60.02L246.1 60.08L245.89 60.13L245.69 60.19L245.48 60.24L245.28 60.29L245.08 60.33L244.87 60.37L244.67 60.41L244.47 60.45L244.27 60.48L244.07 60.51L243.88 60.53L243.68 60.56L243.48 60.58L243.29 60.59L243.09 60.61L242.9 60.62L242.71 60.63L242.52 60.63L242.33 60.63L241.99 60.63L241.65 60.62L241.32 60.6L240.99 60.58L240.66 60.55L240.34 60.52L240.02 60.47L239.7 60.43L239.38 60.37L239.07 60.31L238.77 60.24L238.46 60.17L238.16 60.09L237.86 60L237.56 59.91L237.27 59.81L236.98 59.71L236.7 59.59L236.41 59.48L236.13 59.35L235.85 59.22L235.58 59.08L235.31 58.94L235.04 58.79L234.78 58.64L234.52 58.48L234.27 58.31L234.02 58.14L233.78 57.97L233.55 57.79L233.32 57.6L233.09 57.41L232.87 57.22L232.65 57.02L232.44 56.82L232.24 56.61L232.04 56.39L231.84 56.17L231.65 55.95L231.47 55.72L231.29 55.48L231.11 55.25L230.94 55L230.78 54.75L230.62 54.5L230.47 54.24L230.32 53.98L230.18 53.71L230.04 53.44L229.92 53.17L229.79 52.89L229.68 52.62L229.57 52.33L229.47 52.05L229.37 51.76L229.28 51.47L229.2 51.18L229.13 50.88L229.06 50.58L228.99 50.28L228.94 49.97L228.89 49.66L228.85 49.35L228.81 49.03L228.78 48.72L228.76 48.39L228.74 48.07L228.73 47.74L228.73 47.41L228.73 47.08L228.74 46.75L228.76 46.43L228.78 46.11L228.81 45.79L228.84 45.47L228.88 45.16L228.93 44.85L228.98 44.54L229.04 44.24L229.1 43.94L229.18 43.64L229.25 43.35L229.34 43.06L229.43 42.77L229.52 42.48L229.63 42.2L229.74 41.92L229.85 41.64L229.97 41.37L230.1 41.1L230.23 40.83L230.37 40.56L230.52 40.3L230.67 40.04L230.82 39.79L230.99 39.55L231.15 39.31L231.32 39.07L231.5 38.84L231.68 38.62L231.86 38.4L232.05 38.18L232.25 37.97L232.45 37.76L232.65 37.56L232.86 37.37L233.07 37.18L233.29 36.99L233.52 36.81L233.75 36.64L233.98 36.47L234.22 36.3L234.46 36.14L234.71 35.98L234.96 35.83L235.22 35.69L235.48 35.55L235.74 35.42L236.01 35.29L236.28 35.17L236.55 35.06L236.83 34.96L237.1 34.86L237.38 34.77L237.67 34.68L237.95 34.6L238.24 34.53L238.54 34.46L238.83 34.4L239.13 34.34L239.43 34.3L239.74 34.25L240.04 34.22L240.35 34.19L240.67 34.17L240.98 34.15L241.3 34.14L241.62 34.14L241.94 34.14L242.25 34.15ZM239.74 38.4L238.88 38.59L238.07 38.86L237.31 39.21L236.61 39.64L235.97 40.15L235.38 40.73L234.86 41.35L234.4 42.03L234.01 42.76L233.68 43.54L233.42 44.37L233.22 45.26L249.13 45.26L248.97 44.37L248.76 43.54L248.48 42.76L248.14 42.03L247.74 41.35L247.27 40.73L246.75 40.15L246.16 39.65L245.53 39.22L244.85 38.87L244.12 38.6L243.34 38.4L242.51 38.28L241.64 38.24L240.66 38.28L239.74 38.4Z" id="a9SwjnjnYc"></path><path d="M281.49 23.15L281.58 23.16L281.68 23.17L281.77 23.18L281.86 23.2L281.95 23.22L282.03 23.24L282.12 23.26L282.2 23.29L282.28 23.32L282.36 23.35L282.44 23.39L282.51 23.43L282.59 23.47L282.66 23.51L282.73 23.56L282.8 23.6L282.87 23.66L282.93 23.71L283 23.77L283.06 23.83L283.12 23.89L283.18 23.95L283.23 24.02L283.28 24.08L283.33 24.15L283.37 24.22L283.42 24.3L283.46 24.37L283.5 24.45L283.53 24.52L283.56 24.6L283.59 24.68L283.62 24.77L283.64 24.85L283.67 24.94L283.68 25.03L283.7 25.12L283.71 25.21L283.72 25.31L283.73 25.4L283.73 25.5L283.74 25.6L283.74 47.36L283.73 47.7L283.72 48.03L283.7 48.36L283.68 48.69L283.65 49.01L283.61 49.34L283.56 49.66L283.51 49.97L283.44 50.29L283.38 50.6L283.3 50.91L283.22 51.21L283.13 51.52L283.03 51.82L282.93 52.11L282.82 52.41L282.7 52.7L282.57 52.99L282.44 53.27L282.3 53.56L282.15 53.84L282 54.11L281.84 54.39L281.67 54.65L281.5 54.92L281.32 55.17L281.14 55.43L280.95 55.67L280.76 55.91L280.56 56.15L280.36 56.38L280.15 56.61L279.94 56.83L279.72 57.04L279.5 57.25L279.27 57.45L279.04 57.65L278.8 57.85L278.56 58.03L278.31 58.22L278.06 58.39L277.8 58.57L277.53 58.73L277.26 58.89L276.99 59.05L276.72 59.19L276.44 59.33L276.16 59.47L275.87 59.59L275.58 59.71L275.29 59.82L275 59.93L274.71 60.02L274.41 60.11L274.11 60.2L273.8 60.27L273.49 60.34L273.18 60.4L272.87 60.46L272.56 60.5L272.24 60.54L271.92 60.57L271.59 60.6L271.27 60.62L270.94 60.63L270.61 60.63L270.27 60.63L269.94 60.62L269.62 60.6L269.29 60.57L268.97 60.54L268.65 60.5L268.34 60.46L268.02 60.4L267.71 60.34L267.4 60.27L267.1 60.2L266.79 60.11L266.49 60.02L266.19 59.93L265.9 59.82L265.6 59.71L265.31 59.59L265.02 59.47L264.74 59.33L264.46 59.19L264.18 59.05L263.9 58.89L263.63 58.73L263.36 58.57L263.1 58.39L262.84 58.22L262.59 58.03L262.35 57.85L262.1 57.65L261.87 57.45L261.64 57.25L261.42 57.04L261.2 56.83L260.99 56.61L260.78 56.38L260.58 56.15L260.38 55.91L260.19 55.67L260 55.43L259.82 55.17L259.65 54.92L259.48 54.65L259.31 54.39L259.15 54.11L259 53.84L258.86 53.56L258.72 53.27L258.59 52.99L258.46 52.7L258.34 52.41L258.23 52.11L258.13 51.82L258.03 51.52L257.95 51.21L257.86 50.91L257.79 50.6L257.72 50.29L257.66 49.97L257.61 49.66L257.56 49.34L257.52 49.01L257.49 48.69L257.46 48.36L257.44 48.03L257.43 47.7L257.43 47.36L257.43 47.03L257.44 46.69L257.46 46.36L257.48 46.03L257.51 45.71L257.55 45.39L257.59 45.07L257.64 44.75L257.7 44.43L257.76 44.12L257.83 43.81L257.91 43.51L257.99 43.21L258.08 42.91L258.17 42.61L258.28 42.31L258.38 42.02L258.5 41.73L258.62 41.45L258.75 41.17L258.89 40.89L259.03 40.61L259.18 40.34L259.33 40.07L259.49 39.81L259.65 39.55L259.82 39.3L259.99 39.05L260.16 38.81L260.35 38.58L260.53 38.35L260.73 38.12L260.92 37.91L261.12 37.69L261.33 37.49L261.54 37.28L261.76 37.09L261.98 36.9L262.21 36.71L262.44 36.53L262.68 36.35L262.92 36.18L263.16 36.02L263.42 35.86L263.67 35.71L263.93 35.56L264.19 35.43L264.45 35.29L264.72 35.17L264.99 35.05L265.26 34.94L265.53 34.84L265.81 34.74L266.09 34.65L266.37 34.57L266.65 34.5L266.94 34.43L267.23 34.37L267.52 34.31L267.82 34.27L268.12 34.23L268.42 34.2L268.72 34.17L269.03 34.15L269.34 34.14L269.65 34.14L269.9 34.14L270.15 34.15L270.4 34.16L270.65 34.18L270.89 34.2L271.13 34.22L271.37 34.25L271.61 34.29L271.85 34.33L272.09 34.37L272.32 34.42L272.56 34.48L272.79 34.54L273.02 34.6L273.25 34.67L273.47 34.74L273.7 34.82L273.92 34.9L274.15 34.99L274.37 35.08L274.59 35.18L274.81 35.28L275.02 35.39L275.23 35.5L275.45 35.61L275.65 35.73L275.86 35.85L276.06 35.98L276.25 36.11L276.45 36.24L276.64 36.37L276.83 36.51L277.02 36.66L277.2 36.8L277.38 36.95L277.56 37.11L277.73 37.27L277.9 37.43L278.07 37.59L278.23 37.76L278.39 37.94L278.55 38.11L278.71 38.29L278.86 38.48L278.86 25.58L278.86 25.48L278.87 25.39L278.88 25.29L278.89 25.2L278.9 25.11L278.92 25.02L278.93 24.93L278.96 24.84L278.98 24.76L279.01 24.67L279.04 24.59L279.07 24.51L279.11 24.44L279.14 24.36L279.19 24.29L279.23 24.21L279.28 24.14L279.33 24.07L279.38 24.01L279.43 23.94L279.49 23.88L279.55 23.81L279.62 23.76L279.68 23.7L279.75 23.65L279.81 23.59L279.88 23.55L279.95 23.5L280.03 23.46L280.1 23.42L280.18 23.38L280.25 23.34L280.33 23.31L280.41 23.28L280.5 23.26L280.58 23.23L280.66 23.21L280.75 23.19L280.84 23.18L280.92 23.16L281.01 23.15L281.11 23.15L281.2 23.14L281.29 23.14L281.39 23.14L281.49 23.15ZM269.73 38.47L269.32 38.52L268.91 38.59L268.51 38.67L268.12 38.78L267.73 38.91L267.35 39.05L266.98 39.22L266.62 39.4L266.27 39.61L265.92 39.83L265.59 40.06L265.27 40.31L264.97 40.57L264.68 40.85L264.4 41.14L264.14 41.44L263.89 41.76L263.65 42.1L263.42 42.44L263.21 42.8L263.02 43.17L262.84 43.55L262.68 43.94L262.54 44.34L262.42 44.75L262.32 45.16L262.23 45.58L262.17 46.02L262.12 46.46L262.09 46.9L262.08 47.36L262.09 47.82L262.12 48.27L262.17 48.71L262.23 49.14L262.32 49.56L262.42 49.98L262.54 50.39L262.68 50.79L262.84 51.18L263.02 51.56L263.21 51.94L263.42 52.3L263.65 52.65L263.89 52.99L264.14 53.31L264.4 53.62L264.68 53.91L264.97 54.19L265.27 54.46L265.59 54.71L265.92 54.94L266.27 55.16L266.62 55.37L266.98 55.55L267.35 55.72L267.73 55.86L268.12 55.99L268.51 56.1L268.91 56.18L269.32 56.25L269.73 56.3L270.16 56.33L270.59 56.34L271.02 56.33L271.45 56.29L271.86 56.24L272.27 56.18L272.67 56.09L273.07 55.98L273.45 55.86L273.83 55.71L274.2 55.55L274.56 55.37L274.91 55.16L275.26 54.94L275.59 54.71L275.91 54.46L276.21 54.2L276.5 53.92L276.77 53.62L277.04 53.32L277.28 52.99L277.52 52.66L277.73 52.3L277.94 51.94L278.13 51.56L278.3 51.18L278.46 50.78L278.59 50.38L278.71 49.97L278.81 49.56L278.89 49.13L278.95 48.7L279 48.26L279.03 47.81L279.04 47.36L279.03 46.9L279 46.46L278.95 46.02L278.89 45.58L278.81 45.16L278.71 44.75L278.59 44.34L278.46 43.94L278.3 43.55L278.13 43.17L277.94 42.8L277.73 42.44L277.51 42.1L277.28 41.76L277.03 41.44L276.77 41.14L276.49 40.85L276.21 40.57L275.9 40.31L275.59 40.06L275.26 39.83L274.91 39.61L274.56 39.4L274.2 39.22L273.83 39.05L273.45 38.91L273.07 38.78L272.67 38.67L272.27 38.59L271.86 38.52L271.45 38.47L271.02 38.44L270.59 38.43L270.16 38.44L269.73 38.47Z" id="c1kvZh3TyQ"></path><path d="M304.66 34.13L304.91 34.14L305.15 34.16L305.4 34.18L305.64 34.2L305.88 34.22L306.11 34.25L306.35 34.29L306.58 34.32L306.82 34.36L307.05 34.41L307.28 34.45L307.5 34.5L307.73 34.56L307.95 34.62L308.17 34.68L308.39 34.75L308.61 34.82L308.83 34.89L309.04 34.97L309.26 35.05L309.47 35.13L309.68 35.22L309.89 35.31L310.09 35.41L310.3 35.51L310.5 35.61L310.7 35.72L310.9 35.83L311.1 35.94L311.29 36.06L311.49 36.18L311.67 36.3L311.86 36.43L312.04 36.56L312.22 36.69L312.4 36.83L312.58 36.96L312.75 37.1L312.92 37.25L313.08 37.39L313.24 37.54L313.4 37.7L313.56 37.85L313.72 38.01L313.87 38.17L314.02 38.33L314.16 38.5L314.31 38.67L314.45 38.84L314.58 39.02L314.72 39.2L314.85 39.38L314.98 39.56L315.11 39.75L315.23 39.94L315.35 40.14L315.47 40.33L315.59 40.53L315.7 40.73L315.8 40.94L315.91 41.14L316.01 41.35L316.1 41.56L316.2 41.77L316.28 41.98L316.37 42.2L316.45 42.41L316.53 42.63L316.6 42.85L316.67 43.07L316.74 43.3L316.8 43.52L316.86 43.75L316.91 43.98L316.96 44.21L317.01 44.45L317.05 44.68L317.09 44.92L317.13 45.16L317.16 45.4L317.19 45.65L317.21 45.89L317.23 46.14L317.25 46.39L317.26 46.64L317.27 46.9L317.28 47.15L317.28 47.41L317.28 57.72L317.28 57.97L317.27 58.22L317.26 58.46L317.25 58.71L317.23 58.95L317.21 59.2L317.19 59.44L317.16 59.68L317.13 59.92L317.09 60.15L317.05 60.39L317.01 60.63L316.96 60.86L316.91 61.09L316.86 61.32L316.8 61.55L316.74 61.78L316.67 62L316.6 62.23L316.53 62.45L316.45 62.67L316.37 62.89L316.29 63.11L316.2 63.33L316.11 63.54L316.02 63.76L315.92 63.97L315.82 64.18L315.71 64.39L315.6 64.6L315.49 64.8L315.37 65L315.25 65.2L315.13 65.4L315.01 65.59L314.88 65.78L314.75 65.97L314.62 66.16L314.48 66.34L314.34 66.52L314.2 66.69L314.05 66.87L313.9 67.04L313.75 67.2L313.59 67.37L313.43 67.53L313.27 67.69L313.11 67.84L312.94 68L312.77 68.15L312.6 68.29L312.42 68.44L312.24 68.58L312.06 68.72L311.87 68.85L311.69 68.98L311.49 69.11L311.3 69.24L311.1 69.36L310.9 69.48L310.7 69.6L310.49 69.71L310.29 69.82L310.08 69.93L309.87 70.03L309.66 70.13L309.44 70.22L309.23 70.31L309.01 70.39L308.79 70.48L308.57 70.55L308.35 70.63L308.13 70.7L307.9 70.76L307.67 70.82L307.44 70.88L307.21 70.93L306.98 70.98L306.75 71.03L306.51 71.07L306.27 71.11L306.03 71.14L305.79 71.17L305.55 71.2L305.3 71.22L305.06 71.24L304.81 71.25L304.56 71.26L304.31 71.27L304.06 71.27L303.83 71.27L303.6 71.26L303.37 71.26L303.15 71.25L302.93 71.23L302.7 71.21L302.48 71.2L302.26 71.17L302.04 71.15L301.82 71.12L301.6 71.09L301.39 71.05L301.17 71.01L300.96 70.97L300.74 70.93L300.53 70.88L300.32 70.83L300.11 70.78L299.9 70.72L299.69 70.66L299.48 70.6L299.28 70.54L299.07 70.47L298.87 70.4L298.66 70.32L298.46 70.25L298.26 70.17L298.06 70.08L297.86 70L297.66 69.91L297.47 69.81L297.27 69.72L297.08 69.62L296.89 69.52L296.7 69.42L296.52 69.31L296.33 69.21L296.15 69.1L295.97 68.98L295.79 68.87L295.62 68.75L295.45 68.63L295.28 68.51L295.11 68.38L294.94 68.25L294.77 68.12L294.61 67.99L294.45 67.85L294.29 67.71L294.14 67.57L293.98 67.43L293.83 67.28L293.68 67.13L293.54 66.98L293.39 66.83L293.25 66.67L293.11 66.51L292.97 66.35L292.83 66.19L292.7 66.02L292.66 65.98L292.63 65.93L292.6 65.89L292.57 65.84L292.54 65.8L292.51 65.76L292.48 65.71L292.46 65.67L292.43 65.62L292.41 65.58L292.39 65.53L292.37 65.49L292.35 65.44L292.33 65.4L292.31 65.35L292.29 65.31L292.28 65.27L292.26 65.22L292.25 65.18L292.24 65.13L292.23 65.09L292.22 65.04L292.21 65L292.2 64.95L292.19 64.91L292.19 64.87L292.19 64.82L292.18 64.78L292.18 64.73L292.18 64.69L292.18 64.62L292.18 64.56L292.19 64.49L292.2 64.43L292.21 64.36L292.22 64.3L292.23 64.24L292.25 64.17L292.27 64.11L292.29 64.05L292.31 63.99L292.34 63.93L292.37 63.87L292.4 63.81L292.43 63.76L292.46 63.7L292.5 63.64L292.54 63.59L292.58 63.53L292.62 63.48L292.67 63.42L292.72 63.37L292.77 63.32L292.82 63.27L292.87 63.22L292.93 63.16L292.99 63.11L293.05 63.06L293.12 63.01L293.18 62.97L293.23 62.94L293.27 62.91L293.31 62.89L293.36 62.86L293.4 62.84L293.45 62.81L293.49 62.79L293.54 62.77L293.58 62.75L293.63 62.73L293.67 62.71L293.71 62.69L293.76 62.68L293.8 62.66L293.85 62.65L293.89 62.63L293.94 62.62L293.98 62.61L294.03 62.6L294.07 62.59L294.12 62.58L294.16 62.57L294.21 62.57L294.25 62.56L294.29 62.55L294.34 62.55L294.38 62.55L294.43 62.54L294.47 62.54L294.51 62.54L294.59 62.54L294.67 62.55L294.75 62.55L294.83 62.56L294.9 62.57L294.98 62.58L295.05 62.6L295.12 62.61L295.19 62.63L295.26 62.65L295.33 62.68L295.4 62.7L295.47 62.73L295.53 62.76L295.6 62.79L295.66 62.83L295.73 62.86L295.79 62.9L295.85 62.94L295.91 62.99L295.97 63.03L296.03 63.08L296.09 63.13L296.15 63.18L296.2 63.24L296.26 63.29L296.31 63.35L296.37 63.42L296.42 63.48L296.47 63.55L296.56 63.66L296.65 63.76L296.74 63.87L296.83 63.98L296.92 64.08L297.02 64.18L297.11 64.28L297.21 64.38L297.31 64.48L297.41 64.57L297.51 64.66L297.61 64.75L297.72 64.84L297.82 64.93L297.93 65.02L298.04 65.1L298.15 65.18L298.26 65.26L298.37 65.34L298.49 65.42L298.6 65.5L298.72 65.57L298.84 65.64L298.96 65.71L299.08 65.78L299.21 65.85L299.33 65.91L299.46 65.98L299.59 66.04L299.72 66.1L299.85 66.16L299.98 66.21L300.11 66.27L300.25 66.32L300.38 66.37L300.52 66.42L300.66 66.47L300.8 66.51L300.94 66.55L301.08 66.59L301.22 66.63L301.36 66.67L301.51 66.7L301.66 66.73L301.8 66.76L301.95 66.79L302.1 66.82L302.25 66.84L302.4 66.86L302.56 66.88L302.71 66.9L302.87 66.92L303.02 66.93L303.18 66.94L303.34 66.95L303.5 66.96L303.66 66.97L303.82 66.97L303.99 66.98L304.15 66.98L304.3 66.98L304.46 66.97L304.61 66.97L304.76 66.96L304.91 66.95L305.06 66.93L305.21 66.92L305.36 66.9L305.51 66.87L305.66 66.85L305.8 66.82L305.95 66.8L306.09 66.76L306.24 66.73L306.38 66.69L306.52 66.66L306.66 66.61L306.8 66.57L306.94 66.52L307.08 66.48L307.21 66.42L307.35 66.37L307.48 66.31L307.62 66.25L307.75 66.19L307.88 66.13L308.01 66.06L308.14 65.99L308.27 65.92L308.4 65.85L308.52 65.77L308.65 65.69L308.77 65.61L308.89 65.53L309.01 65.44L309.13 65.36L309.24 65.27L309.36 65.17L309.47 65.08L309.58 64.98L309.69 64.88L309.8 64.78L309.9 64.68L310.01 64.57L310.11 64.46L310.21 64.35L310.31 64.24L310.41 64.12L310.5 64L310.6 63.88L310.69 63.76L310.78 63.64L310.87 63.51L310.96 63.38L311.05 63.25L311.13 63.12L311.21 62.98L311.29 62.84L311.37 62.7L311.45 62.56L311.53 62.41L311.6 62.27L311.67 62.12L311.74 61.97L311.8 61.81L311.86 61.66L311.92 61.5L311.98 61.34L312.04 61.18L312.09 61.02L312.14 60.85L312.18 60.69L312.23 60.52L312.27 60.35L312.31 60.18L312.35 60L312.38 59.83L312.41 59.65L312.44 59.47L312.47 59.29L312.49 59.1L312.51 58.92L312.53 58.73L312.55 58.54L312.56 58.35L312.57 58.16L312.58 57.97L312.59 57.77L312.59 57.57L312.59 57.37L312.59 55.04L312.49 55.21L312.39 55.38L312.29 55.55L312.18 55.72L312.07 55.88L311.96 56.04L311.85 56.2L311.74 56.36L311.62 56.51L311.5 56.66L311.38 56.81L311.26 56.96L311.13 57.1L311.01 57.24L310.88 57.38L310.75 57.51L310.61 57.65L310.48 57.78L310.34 57.9L310.2 58.03L310.06 58.15L309.91 58.27L309.76 58.39L309.62 58.51L309.46 58.62L309.31 58.73L309.16 58.84L309 58.94L308.84 59.04L308.68 59.14L308.51 59.24L308.35 59.33L308.18 59.42L308.02 59.51L307.85 59.59L307.68 59.68L307.51 59.75L307.33 59.83L307.16 59.9L306.98 59.96L306.81 60.03L306.63 60.09L306.45 60.14L306.27 60.2L306.09 60.25L305.91 60.3L305.72 60.34L305.53 60.38L305.35 60.42L305.16 60.45L304.97 60.48L304.78 60.51L304.58 60.54L304.39 60.56L304.19 60.58L304 60.59L303.8 60.6L303.6 60.61L303.4 60.61L303.19 60.62L302.96 60.61L302.73 60.61L302.5 60.6L302.27 60.59L302.04 60.57L301.81 60.55L301.59 60.52L301.36 60.5L301.14 60.46L300.92 60.43L300.7 60.39L300.49 60.34L300.27 60.3L300.06 60.25L299.85 60.19L299.64 60.13L299.43 60.07L299.22 60.01L299.02 59.94L298.81 59.86L298.61 59.79L298.41 59.71L298.21 59.62L298.01 59.53L297.82 59.44L297.62 59.34L297.43 59.25L297.24 59.14L297.05 59.03L296.86 58.92L296.68 58.81L296.5 58.69L296.32 58.57L296.14 58.45L295.97 58.32L295.8 58.19L295.63 58.06L295.46 57.93L295.3 57.79L295.14 57.65L294.98 57.51L294.83 57.36L294.68 57.21L294.53 57.06L294.38 56.9L294.24 56.74L294.1 56.58L293.96 56.42L293.83 56.25L293.7 56.08L293.57 55.91L293.44 55.73L293.32 55.56L293.19 55.37L293.08 55.19L292.96 55L292.85 54.81L292.74 54.62L292.63 54.42L292.52 54.22L292.42 54.02L292.32 53.82L292.23 53.61L292.14 53.41L292.05 53.2L291.97 52.99L291.89 52.78L291.81 52.56L291.73 52.35L291.66 52.13L291.6 51.91L291.53 51.69L291.47 51.47L291.41 51.24L291.36 51.01L291.31 50.79L291.26 50.55L291.22 50.32L291.18 50.09L291.15 49.85L291.11 49.62L291.08 49.38L291.06 49.13L291.04 48.89L291.02 48.65L291 48.4L290.99 48.15L290.98 47.9L290.98 47.65L290.97 47.39L290.98 47.14L290.98 46.88L290.99 46.63L291 46.37L291.02 46.12L291.04 45.88L291.06 45.63L291.09 45.39L291.12 45.15L291.16 44.91L291.2 44.67L291.24 44.43L291.29 44.2L291.34 43.97L291.39 43.74L291.45 43.51L291.51 43.28L291.57 43.06L291.64 42.84L291.71 42.61L291.79 42.4L291.87 42.18L291.95 41.96L292.04 41.75L292.13 41.54L292.23 41.33L292.33 41.12L292.43 40.92L292.54 40.72L292.65 40.51L292.76 40.32L292.88 40.12L293 39.93L293.12 39.74L293.24 39.55L293.37 39.36L293.5 39.18L293.64 39L293.77 38.83L293.91 38.66L294.06 38.49L294.2 38.32L294.35 38.15L294.5 37.99L294.66 37.84L294.82 37.68L294.98 37.53L295.14 37.38L295.31 37.23L295.48 37.09L295.65 36.95L295.82 36.81L296 36.68L296.18 36.54L296.37 36.42L296.56 36.29L296.75 36.17L296.94 36.05L297.14 35.93L297.33 35.81L297.54 35.7L297.74 35.6L297.94 35.49L298.15 35.39L298.36 35.3L298.57 35.21L298.78 35.12L299 35.03L299.21 34.95L299.43 34.87L299.65 34.8L299.87 34.73L300.09 34.67L300.32 34.6L300.54 34.55L300.77 34.49L301 34.44L301.24 34.39L301.47 34.35L301.71 34.31L301.94 34.27L302.18 34.24L302.42 34.21L302.67 34.19L302.91 34.17L303.16 34.15L303.41 34.14L303.66 34.13L303.91 34.12L304.17 34.12L304.42 34.13L304.66 34.13ZM303.28 38.45L302.85 38.5L302.44 38.57L302.03 38.65L301.64 38.75L301.25 38.88L300.87 39.02L300.5 39.18L300.13 39.36L299.78 39.56L299.43 39.78L299.1 40.01L298.79 40.25L298.48 40.51L298.19 40.79L297.92 41.08L297.66 41.39L297.41 41.71L297.18 42.04L296.96 42.39L296.75 42.76L296.56 43.13L296.39 43.52L296.24 43.91L296.1 44.32L295.98 44.73L295.88 45.15L295.8 45.58L295.74 46.02L295.69 46.47L295.67 46.93L295.66 47.39L295.67 47.86L295.69 48.31L295.74 48.76L295.8 49.2L295.88 49.63L295.98 50.04L296.1 50.45L296.24 50.85L296.39 51.25L296.56 51.63L296.75 52L296.96 52.36L297.18 52.71L297.42 53.04L297.66 53.36L297.93 53.66L298.2 53.95L298.49 54.22L298.79 54.48L299.11 54.73L299.44 54.96L299.78 55.18L300.13 55.38L300.5 55.56L300.87 55.72L301.25 55.86L301.64 55.98L302.03 56.09L302.44 56.17L302.85 56.24L303.28 56.29L303.71 56.31L304.15 56.32L304.59 56.31L305.02 56.29L305.44 56.24L305.86 56.17L306.26 56.09L306.66 55.98L307.05 55.86L307.43 55.72L307.8 55.56L308.17 55.38L308.52 55.18L308.86 54.96L309.19 54.73L309.51 54.49L309.81 54.23L310.1 53.95L310.37 53.67L310.63 53.36L310.88 53.04L311.11 52.71L311.33 52.36L311.53 52L311.72 51.62L311.89 51.24L312.04 50.85L312.17 50.45L312.29 50.04L312.39 49.62L312.47 49.19L312.53 48.76L312.57 48.31L312.6 47.86L312.61 47.39L312.6 46.93L312.57 46.47L312.53 46.02L312.47 45.59L312.39 45.16L312.29 44.74L312.17 44.32L312.04 43.92L311.89 43.52L311.72 43.14L311.53 42.76L311.33 42.39L311.11 42.04L310.88 41.71L310.63 41.39L310.37 41.08L310.1 40.79L309.81 40.51L309.51 40.25L309.19 40.01L308.86 39.78L308.52 39.56L308.17 39.36L307.8 39.18L307.43 39.02L307.05 38.88L306.66 38.75L306.26 38.65L305.86 38.57L305.44 38.5L305.02 38.45L304.59 38.42L304.15 38.42L303.71 38.42L303.28 38.45Z" id="bnpThyCJ2"></path><path d="M336.72 34.15L337.03 34.17L337.34 34.19L337.64 34.22L337.94 34.25L338.23 34.29L338.53 34.34L338.81 34.39L339.1 34.45L339.38 34.51L339.65 34.58L339.92 34.66L340.19 34.74L340.46 34.83L340.72 34.93L340.98 35.03L341.23 35.14L341.48 35.25L341.72 35.37L341.97 35.5L342.21 35.63L342.44 35.77L342.67 35.91L342.9 36.06L343.12 36.21L343.33 36.37L343.54 36.53L343.75 36.7L343.95 36.88L344.15 37.05L344.34 37.24L344.53 37.42L344.71 37.62L344.89 37.81L345.07 38.02L345.23 38.22L345.4 38.43L345.56 38.65L345.71 38.87L345.86 39.1L346.01 39.33L346.15 39.56L346.29 39.8L346.42 40.05L346.54 40.3L346.67 40.55L346.78 40.81L346.89 41.07L347 41.33L347.1 41.6L347.19 41.87L347.28 42.15L347.37 42.43L347.44 42.71L347.52 42.99L347.58 43.28L347.65 43.57L347.7 43.86L347.75 44.16L347.8 44.46L347.84 44.76L347.87 45.07L347.9 45.38L347.93 45.7L347.95 46.01L347.96 46.33L347.97 46.66L347.97 46.99L347.97 47.06L347.97 47.14L347.96 47.21L347.95 47.29L347.94 47.36L347.93 47.43L347.91 47.5L347.9 47.57L347.88 47.64L347.85 47.71L347.83 47.77L347.8 47.84L347.78 47.9L347.74 47.96L347.71 48.03L347.67 48.09L347.64 48.15L347.6 48.2L347.55 48.26L347.51 48.31L347.46 48.37L347.41 48.42L347.36 48.47L347.31 48.52L347.25 48.57L347.19 48.62L347.14 48.66L347.08 48.7L347.02 48.74L346.95 48.78L346.89 48.81L346.82 48.85L346.76 48.88L346.69 48.9L346.62 48.93L346.55 48.95L346.48 48.98L346.41 49L346.33 49.01L346.26 49.03L346.18 49.04L346.1 49.05L346.02 49.06L345.94 49.06L345.86 49.07L345.78 49.07L327.63 49.07L327.68 49.36L327.74 49.64L327.8 49.92L327.88 50.19L327.95 50.46L328.04 50.72L328.14 50.98L328.24 51.24L328.35 51.49L328.46 51.73L328.59 51.97L328.72 52.2L328.86 52.43L329.01 52.66L329.16 52.88L329.32 53.09L329.49 53.3L329.67 53.51L329.85 53.71L330.04 53.9L330.24 54.09L330.45 54.28L330.66 54.46L330.88 54.63L331.1 54.8L331.33 54.96L331.57 55.11L331.8 55.25L332.04 55.39L332.29 55.52L332.54 55.64L332.79 55.75L333.05 55.85L333.31 55.95L333.58 56.04L333.85 56.12L334.13 56.2L334.41 56.26L334.69 56.32L334.98 56.37L335.27 56.41L335.57 56.45L335.87 56.48L336.18 56.5L336.49 56.51L336.8 56.51L336.92 56.51L337.05 56.51L337.18 56.5L337.3 56.5L337.43 56.49L337.55 56.48L337.68 56.46L337.81 56.45L337.94 56.43L338.07 56.41L338.19 56.39L338.32 56.37L338.45 56.35L338.58 56.32L338.71 56.29L338.85 56.26L338.98 56.23L339.11 56.19L339.24 56.16L339.37 56.12L339.51 56.08L339.64 56.04L339.78 55.99L339.91 55.95L340.04 55.9L340.17 55.85L340.3 55.81L340.42 55.76L340.55 55.71L340.67 55.65L340.79 55.6L340.91 55.55L341.02 55.49L341.13 55.44L341.24 55.38L341.35 55.32L341.46 55.27L341.56 55.21L341.67 55.15L341.77 55.09L341.87 55.03L341.96 54.96L342.06 54.9L342.15 54.84L342.24 54.77L342.33 54.71L342.39 54.67L342.45 54.62L342.51 54.58L342.57 54.54L342.63 54.51L342.69 54.47L342.76 54.44L342.82 54.41L342.89 54.38L342.95 54.36L343.02 54.33L343.09 54.31L343.16 54.29L343.23 54.27L343.3 54.25L343.38 54.24L343.45 54.23L343.53 54.22L343.6 54.21L343.68 54.2L343.76 54.2L343.83 54.19L343.91 54.19L343.99 54.19L344.07 54.2L344.14 54.2L344.22 54.21L344.29 54.21L344.36 54.22L344.43 54.24L344.5 54.25L344.57 54.26L344.63 54.28L344.69 54.3L344.76 54.32L344.82 54.34L344.88 54.37L344.93 54.39L344.99 54.42L345.04 54.45L345.1 54.48L345.15 54.51L345.2 54.55L345.25 54.58L345.29 54.62L345.34 54.66L345.41 54.72L345.48 54.79L345.55 54.85L345.61 54.91L345.67 54.98L345.73 55.05L345.79 55.11L345.84 55.18L345.88 55.25L345.93 55.32L345.97 55.39L346 55.46L346.04 55.53L346.07 55.6L346.1 55.68L346.12 55.75L346.14 55.83L346.16 55.9L346.17 55.98L346.19 56.06L346.19 56.13L346.2 56.21L346.2 56.29L346.2 56.37L346.19 56.44L346.19 56.51L346.18 56.58L346.16 56.65L346.15 56.72L346.13 56.79L346.11 56.86L346.08 56.92L346.06 56.99L346.03 57.05L345.99 57.11L345.96 57.17L345.92 57.23L345.88 57.29L345.83 57.35L345.78 57.4L345.73 57.46L345.68 57.51L345.62 57.57L345.56 57.62L345.5 57.67L345.43 57.72L345.29 57.83L345.14 57.94L345 58.05L344.84 58.15L344.69 58.26L344.53 58.36L344.37 58.46L344.21 58.56L344.04 58.66L343.87 58.75L343.7 58.84L343.53 58.94L343.35 59.03L343.17 59.11L342.98 59.2L342.79 59.28L342.61 59.36L342.41 59.44L342.22 59.52L342.02 59.6L341.82 59.67L341.61 59.75L341.41 59.82L341.2 59.89L340.99 59.95L340.78 60.02L340.57 60.08L340.36 60.13L340.16 60.19L339.95 60.24L339.75 60.29L339.55 60.33L339.35 60.37L339.14 60.41L338.94 60.45L338.74 60.48L338.55 60.51L338.35 60.53L338.15 60.56L337.96 60.58L337.76 60.59L337.57 60.61L337.37 60.62L337.18 60.63L336.99 60.63L336.8 60.63L336.46 60.63L336.12 60.62L335.79 60.6L335.46 60.58L335.13 60.55L334.81 60.52L334.49 60.47L334.17 60.43L333.86 60.37L333.55 60.31L333.24 60.24L332.93 60.17L332.63 60.09L332.33 60L332.04 59.91L331.74 59.81L331.45 59.71L331.17 59.59L330.88 59.48L330.6 59.35L330.33 59.22L330.05 59.08L329.78 58.94L329.51 58.79L329.25 58.64L328.99 58.48L328.74 58.31L328.5 58.14L328.26 57.97L328.02 57.79L327.79 57.6L327.56 57.41L327.34 57.22L327.13 57.02L326.92 56.82L326.71 56.61L326.51 56.39L326.31 56.17L326.12 55.95L325.94 55.72L325.76 55.48L325.59 55.25L325.42 55L325.25 54.75L325.09 54.5L324.94 54.24L324.79 53.98L324.65 53.71L324.52 53.44L324.39 53.17L324.27 52.89L324.15 52.62L324.04 52.33L323.94 52.05L323.85 51.76L323.76 51.47L323.67 51.18L323.6 50.88L323.53 50.58L323.47 50.28L323.41 49.97L323.36 49.66L323.32 49.35L323.28 49.03L323.25 48.72L323.23 48.39L323.21 48.07L323.2 47.74L323.2 47.41L323.2 47.08L323.21 46.75L323.23 46.43L323.25 46.11L323.28 45.79L323.31 45.47L323.35 45.16L323.4 44.85L323.45 44.54L323.51 44.24L323.58 43.94L323.65 43.64L323.73 43.35L323.81 43.06L323.9 42.77L324 42.48L324.1 42.2L324.21 41.92L324.32 41.64L324.44 41.37L324.57 41.1L324.71 40.83L324.85 40.56L324.99 40.3L325.14 40.04L325.3 39.79L325.46 39.55L325.62 39.31L325.79 39.07L325.97 38.84L326.15 38.62L326.33 38.4L326.52 38.18L326.72 37.97L326.92 37.76L327.12 37.56L327.33 37.37L327.55 37.18L327.77 36.99L327.99 36.81L328.22 36.64L328.45 36.47L328.69 36.3L328.94 36.14L329.18 35.98L329.44 35.83L329.69 35.69L329.95 35.55L330.22 35.42L330.48 35.29L330.75 35.17L331.02 35.06L331.3 34.96L331.58 34.86L331.86 34.77L332.14 34.68L332.43 34.6L332.72 34.53L333.01 34.46L333.3 34.4L333.6 34.34L333.9 34.3L334.21 34.25L334.52 34.22L334.83 34.19L335.14 34.17L335.45 34.15L335.77 34.14L336.09 34.14L336.41 34.14L336.72 34.15ZM334.2 38.4L333.34 38.59L332.53 38.86L331.78 39.21L331.07 39.64L330.42 40.15L329.84 40.73L329.32 41.35L328.86 42.03L328.46 42.76L328.14 43.54L327.88 44.37L327.68 45.26L343.58 45.26L343.43 44.37L343.22 43.54L342.94 42.76L342.6 42.03L342.19 41.35L341.73 40.73L341.2 40.15L340.62 39.65L339.99 39.22L339.31 38.87L338.58 38.6L337.8 38.4L336.97 38.28L336.09 38.24L335.12 38.28L334.2 38.4Z" id="aDP5clJrV"></path><path d="M369.07 23.16L369.33 23.18L369.59 23.19L369.84 23.21L370.1 23.23L370.35 23.26L370.59 23.3L370.84 23.33L371.08 23.38L371.32 23.42L371.56 23.47L371.8 23.53L372.03 23.59L372.26 23.65L372.49 23.72L372.72 23.79L372.94 23.87L373.16 23.95L373.38 24.04L373.59 24.13L373.81 24.22L374.02 24.32L374.23 24.42L374.43 24.53L374.64 24.64L374.83 24.76L375.03 24.88L375.22 25L375.4 25.12L375.59 25.25L375.77 25.38L375.94 25.52L376.11 25.65L376.28 25.8L376.44 25.94L376.6 26.09L376.76 26.24L376.91 26.4L377.06 26.56L377.2 26.72L377.34 26.88L377.48 27.05L377.62 27.23L377.75 27.4L377.87 27.58L377.99 27.76L378.11 27.95L378.23 28.14L378.34 28.33L378.44 28.52L378.54 28.72L378.64 28.92L378.73 29.12L378.82 29.32L378.9 29.53L378.97 29.73L379.04 29.94L379.11 30.15L379.17 30.37L379.23 30.58L379.28 30.8L379.33 31.02L379.37 31.24L379.4 31.46L379.44 31.69L379.46 31.92L379.48 32.15L379.5 32.38L379.51 32.61L379.52 32.85L379.52 33.09L379.52 33.28L379.52 33.48L379.5 33.67L379.49 33.86L379.47 34.05L379.44 34.23L379.42 34.42L379.38 34.6L379.35 34.78L379.3 34.96L379.26 35.14L379.21 35.31L379.15 35.49L379.09 35.66L379.03 35.83L378.96 36L378.89 36.16L378.81 36.33L378.73 36.49L378.64 36.66L378.55 36.82L378.46 36.97L378.36 37.13L378.25 37.29L378.15 37.44L378.04 37.59L377.92 37.74L377.81 37.89L377.69 38.03L377.56 38.17L377.44 38.31L377.31 38.45L377.18 38.58L377.04 38.71L376.9 38.84L376.76 38.97L376.61 39.09L376.46 39.21L376.31 39.33L376.16 39.45L376 39.56L375.84 39.68L375.67 39.79L375.5 39.89L375.33 40L375.15 40.1L374.97 40.2L374.79 40.3L375.06 40.36L375.32 40.44L375.58 40.51L375.84 40.6L376.08 40.68L376.33 40.78L376.57 40.88L376.8 40.98L377.03 41.09L377.26 41.2L377.48 41.32L377.69 41.45L377.9 41.58L378.11 41.71L378.31 41.85L378.51 42L378.7 42.15L378.88 42.3L379.07 42.47L379.24 42.63L379.41 42.8L379.58 42.98L379.74 43.16L379.9 43.35L380.05 43.54L380.2 43.74L380.34 43.94L380.47 44.15L380.59 44.36L380.71 44.58L380.83 44.8L380.93 45.02L381.03 45.25L381.13 45.48L381.22 45.71L381.3 45.95L381.37 46.2L381.44 46.45L381.5 46.7L381.56 46.96L381.6 47.22L381.65 47.49L381.68 47.76L381.71 48.03L381.73 48.31L381.75 48.6L381.76 48.89L381.76 49.18L381.76 49.45L381.75 49.71L381.74 49.98L381.72 50.24L381.7 50.5L381.67 50.76L381.63 51.01L381.59 51.27L381.55 51.52L381.5 51.77L381.44 52.01L381.38 52.26L381.31 52.5L381.24 52.74L381.16 52.98L381.07 53.21L380.99 53.44L380.89 53.67L380.79 53.9L380.69 54.13L380.58 54.35L380.46 54.57L380.34 54.79L380.21 55.01L380.08 55.22L379.95 55.43L379.81 55.63L379.66 55.84L379.51 56.03L379.36 56.23L379.2 56.42L379.04 56.6L378.88 56.78L378.71 56.96L378.53 57.13L378.35 57.3L378.17 57.47L377.98 57.63L377.79 57.78L377.6 57.94L377.4 58.09L377.19 58.23L376.98 58.37L376.77 58.51L376.55 58.64L376.33 58.77L376.1 58.9L375.87 59.02L375.64 59.13L375.4 59.25L375.16 59.35L374.92 59.46L374.68 59.55L374.43 59.64L374.18 59.73L373.93 59.81L373.68 59.89L373.42 59.96L373.16 60.03L372.9 60.09L372.63 60.15L372.36 60.2L372.09 60.24L371.82 60.29L371.55 60.32L371.27 60.35L370.99 60.38L370.7 60.4L370.42 60.42L370.13 60.43L369.84 60.44L369.54 60.44L357.14 60.44L357.05 60.44L356.96 60.43L356.88 60.43L356.79 60.42L356.71 60.4L356.63 60.39L356.55 60.37L356.47 60.35L356.39 60.33L356.32 60.31L356.24 60.28L356.17 60.25L356.1 60.22L356.02 60.19L355.95 60.15L355.88 60.11L355.82 60.07L355.75 60.03L355.68 59.99L355.62 59.94L355.55 59.89L355.49 59.84L355.43 59.78L355.37 59.72L355.31 59.66L355.25 59.6L355.2 59.54L355.15 59.48L355.1 59.41L355.05 59.35L355.01 59.28L354.97 59.21L354.93 59.14L354.89 59.07L354.86 59L354.83 58.93L354.8 58.85L354.77 58.78L354.75 58.7L354.73 58.62L354.71 58.54L354.69 58.46L354.68 58.38L354.67 58.3L354.66 58.21L354.65 58.13L354.65 58.04L354.64 57.95L354.64 25.63L354.65 25.54L354.65 25.45L354.66 25.36L354.66 25.27L354.68 25.19L354.69 25.11L354.7 25.02L354.72 24.94L354.74 24.86L354.77 24.78L354.79 24.71L354.82 24.63L354.85 24.56L354.89 24.49L354.92 24.42L354.96 24.35L355 24.28L355.05 24.21L355.09 24.15L355.14 24.08L355.19 24.02L355.25 23.96L355.31 23.9L355.37 23.85L355.43 23.79L355.49 23.74L355.55 23.68L355.62 23.64L355.68 23.59L355.75 23.55L355.82 23.5L355.88 23.46L355.95 23.43L356.02 23.39L356.1 23.36L356.17 23.33L356.24 23.3L356.32 23.28L356.39 23.25L356.47 23.23L356.55 23.22L356.63 23.2L356.71 23.19L356.79 23.18L356.88 23.17L356.96 23.16L357.05 23.16L357.14 23.16L368.54 23.16L368.81 23.16L369.07 23.16ZM359.61 55.87L369.54 55.87L370.32 55.74L371.05 55.61L371.72 55.46L372.34 55.3L372.9 55.13L373.42 54.95L373.88 54.76L374.28 54.56L374.63 54.34L374.93 54.11L375.32 53.75L375.67 53.36L375.98 52.94L376.24 52.49L376.47 52.01L376.66 51.5L376.8 50.97L376.9 50.4L376.97 49.8L376.99 49.18L376.97 48.6L376.91 48.05L376.8 47.53L376.66 47.03L376.48 46.57L376.26 46.13L376 45.72L375.69 45.34L375.35 44.98L374.96 44.65L374.55 44.35L374.1 44.08L373.63 43.85L373.12 43.64L372.6 43.47L372.04 43.32L371.46 43.21L370.84 43.13L370.21 43.08L369.54 43.07L359.61 43.07L359.61 55.87ZM359.61 38.49L368.54 38.49L369.27 38.38L369.93 38.26L370.55 38.13L371.1 37.99L371.61 37.83L372.05 37.67L372.44 37.49L372.77 37.3L373.05 37.1L373.41 36.78L373.72 36.42L373.99 36.04L374.22 35.62L374.41 35.18L374.56 34.7L374.66 34.2L374.72 33.66L374.75 33.09L374.72 32.52L374.66 31.98L374.56 31.48L374.41 31L374.22 30.56L373.99 30.15L373.72 29.77L373.41 29.42L373.05 29.11L372.66 28.82L372.25 28.57L371.8 28.35L371.33 28.17L370.83 28.02L370.3 27.9L369.74 27.81L369.15 27.76L368.54 27.75L359.61 27.75L359.61 38.49Z" id="e1odA7tWXa"></path><path d="M401.46 34.15L401.92 34.18L402.37 34.23L402.81 34.29L403.25 34.36L403.68 34.45L404.1 34.55L404.52 34.66L404.94 34.78L405.34 34.92L405.74 35.07L406.14 35.24L406.53 35.42L406.91 35.61L407.29 35.81L407.65 36.03L408.01 36.26L408.36 36.5L408.7 36.74L409.02 37L409.34 37.27L409.65 37.55L409.95 37.84L410.23 38.13L410.51 38.44L410.78 38.76L411.04 39.09L411.28 39.43L411.52 39.78L411.75 40.14L411.97 40.51L412.18 40.89L412.37 41.28L412.55 41.67L412.71 42.07L412.86 42.48L413 42.89L413.13 43.31L413.24 43.74L413.34 44.17L413.42 44.61L413.5 45.06L413.56 45.51L413.6 45.97L413.64 46.44L413.66 46.91L413.66 47.39L413.66 47.87L413.64 48.34L413.6 48.8L413.56 49.26L413.5 49.7L413.43 50.15L413.34 50.58L413.24 51.01L413.13 51.44L413.01 51.85L412.87 52.26L412.72 52.67L412.55 53.07L412.38 53.46L412.19 53.84L411.99 54.22L411.77 54.59L411.55 54.95L411.31 55.31L411.07 55.65L410.81 55.98L410.55 56.29L410.27 56.6L409.99 56.9L409.69 57.19L409.39 57.47L409.07 57.74L408.74 58L408.41 58.24L408.06 58.48L407.7 58.71L407.33 58.92L406.96 59.13L406.57 59.32L406.18 59.5L405.79 59.66L405.39 59.82L404.98 59.95L404.56 60.08L404.14 60.19L403.71 60.29L403.28 60.38L402.83 60.45L402.39 60.51L401.93 60.56L401.47 60.59L401.01 60.61L400.53 60.62L400.06 60.61L399.59 60.59L399.13 60.56L398.67 60.52L398.22 60.46L397.78 60.39L397.34 60.3L396.91 60.2L396.49 60.09L396.07 59.97L395.66 59.83L395.26 59.67L394.86 59.51L394.47 59.33L394.08 59.13L393.7 58.92L393.33 58.71L392.97 58.48L392.62 58.24L392.28 58L391.95 57.74L391.63 57.47L391.32 57.19L391.03 56.9L390.74 56.6L390.46 56.29L390.19 55.98L389.94 55.65L389.69 55.31L389.46 54.95L389.23 54.59L389.02 54.22L388.82 53.84L388.63 53.46L388.45 53.07L388.29 52.67L388.14 52.26L388 51.85L387.87 51.44L387.76 51.01L387.66 50.58L387.58 50.15L387.51 49.7L387.45 49.26L387.4 48.8L387.37 48.34L387.35 47.87L387.34 47.39L387.35 46.91L387.37 46.44L387.4 45.97L387.45 45.51L387.5 45.06L387.57 44.61L387.66 44.17L387.76 43.74L387.87 43.31L387.99 42.89L388.13 42.48L388.28 42.07L388.44 41.67L388.62 41.28L388.81 40.89L389.02 40.51L389.23 40.14L389.46 39.78L389.69 39.43L389.94 39.09L390.19 38.76L390.46 38.44L390.74 38.13L391.03 37.84L391.32 37.55L391.63 37.27L391.95 37L392.28 36.74L392.62 36.5L392.97 36.26L393.33 36.03L393.7 35.81L394.08 35.61L394.47 35.42L394.86 35.24L395.26 35.07L395.66 34.92L396.07 34.78L396.49 34.66L396.91 34.55L397.34 34.45L397.78 34.36L398.22 34.29L398.67 34.23L399.13 34.18L399.59 34.15L400.06 34.13L400.53 34.12L401 34.13L401.46 34.15ZM399.65 38.45L399.22 38.5L398.81 38.57L398.4 38.65L398.01 38.75L397.62 38.88L397.24 39.02L396.86 39.18L396.5 39.36L396.15 39.56L395.8 39.78L395.47 40.01L395.16 40.25L394.85 40.51L394.56 40.79L394.29 41.08L394.03 41.39L393.78 41.71L393.55 42.04L393.33 42.39L393.12 42.76L392.93 43.13L392.76 43.52L392.6 43.91L392.47 44.32L392.35 44.73L392.25 45.15L392.17 45.58L392.11 46.02L392.06 46.47L392.04 46.93L392.03 47.39L392.04 47.86L392.06 48.31L392.11 48.76L392.17 49.2L392.25 49.63L392.35 50.04L392.47 50.45L392.6 50.85L392.76 51.25L392.93 51.63L393.12 52L393.33 52.36L393.55 52.71L393.79 53.04L394.03 53.36L394.29 53.66L394.57 53.95L394.86 54.22L395.16 54.48L395.47 54.73L395.8 54.96L396.15 55.18L396.5 55.38L396.86 55.56L397.24 55.72L397.62 55.86L398.01 55.98L398.4 56.09L398.81 56.17L399.22 56.24L399.65 56.29L400.08 56.31L400.52 56.32L400.96 56.31L401.39 56.29L401.81 56.24L402.23 56.17L402.63 56.09L403.03 55.98L403.42 55.86L403.8 55.72L404.17 55.56L404.53 55.38L404.89 55.18L405.23 54.96L405.56 54.73L405.88 54.49L406.18 54.23L406.47 53.95L406.74 53.67L407 53.36L407.24 53.04L407.48 52.71L407.69 52.36L407.9 52L408.08 51.62L408.25 51.24L408.41 50.85L408.54 50.45L408.66 50.04L408.75 49.62L408.84 49.19L408.9 48.76L408.94 48.31L408.97 47.86L408.98 47.39L408.97 46.93L408.94 46.47L408.9 46.02L408.84 45.59L408.75 45.16L408.66 44.74L408.54 44.32L408.41 43.92L408.25 43.52L408.08 43.14L407.9 42.76L407.69 42.39L407.48 42.04L407.24 41.71L407 41.39L406.74 41.08L406.47 40.79L406.18 40.51L405.88 40.25L405.56 40.01L405.23 39.78L404.89 39.56L404.53 39.36L404.17 39.18L403.8 39.02L403.42 38.88L403.03 38.75L402.63 38.65L402.23 38.57L401.81 38.5L401.39 38.45L400.96 38.42L400.52 38.42L400.08 38.42L399.65 38.45Z" id="erfCVPRe"></path><path d="M438.4 59.85C438.01 60.22 437.49 60.43 436.85 60.43C436.08 60.43 435.52 60.18 435.13 59.66C434.62 59.06 432.09 56.03 427.54 50.59C423.22 56.03 420.82 59.06 420.34 59.66C419.87 60.18 419.29 60.43 418.61 60.43C417.97 60.43 417.47 60.24 417.11 59.85C416.75 59.47 416.56 58.99 416.56 58.42C416.56 57.78 416.78 57.2 417.23 56.65C417.73 56.03 420.19 52.95 424.63 47.39C419.9 41.81 417.27 38.71 416.75 38.09C416.28 37.51 416.03 36.91 416.03 36.27C416.03 35.72 416.22 35.27 416.58 34.89C416.94 34.51 417.45 34.31 418.13 34.31C418.9 34.31 419.49 34.58 419.94 35.13C420.47 35.75 423.08 38.87 427.78 44.48C431.99 38.87 434.33 35.75 434.8 35.13C435.2 34.58 435.8 34.31 436.57 34.31C437.21 34.31 437.71 34.51 438.07 34.91C438.43 35.3 438.62 35.78 438.62 36.36C438.62 37.07 438.4 37.69 437.95 38.27C437.47 38.9 435.06 42.03 430.74 47.67C435.29 53.12 437.82 56.14 438.32 56.75C438.78 57.23 439 57.8 439 58.42C439 59 438.79 59.47 438.4 59.85Z" id="c5h5XsQZj"></path></defs><g><g><use xlink:href="#aQ0nv8ab1" opacity="1" fill="#3a79a3" fill-opacity="1"></use><g><use xlink:href="#aQ0nv8ab1" opacity="1" fill-opacity="0" stroke="#000000" stroke-width="1" stroke-opacity="0"></use></g></g><g><use xlink:href="#d2i8pK09WY" opacity="1" fill="#5496c2" fill-opacity="1"></use><g><use xlink:href="#d2i8pK09WY" opacity="1" fill-opacity="0" stroke="#000000" stroke-width="1" stroke-opacity="0"></use></g></g><g><use xlink:href="#b3xUezDR0" opacity="1" fill="#183345" fill-opacity="1"></use><g><use xlink:href="#b3xUezDR0" opacity="1" fill-opacity="0" stroke="#000000" stroke-width="1" stroke-opacity="0"></use></g></g><g><use xlink:href="#d39WfmfcU" opacity="1" fill="#244a64" fill-opacity="1"></use><g><use xlink:href="#d39WfmfcU" opacity="1" fill-opacity="0" stroke="#000000" stroke-width="1" stroke-opacity="0"></use></g></g><g><use xlink:href="#lphNeJHXb" opacity="1" fill="#203e54" fill-opacity="1"></use><g><use xlink:href="#lphNeJHXb" opacity="1" fill-opacity="0" stroke="#000000" stroke-width="1" stroke-opacity="0"></use></g></g><g><use xlink:href="#f3r21OZh0" opacity="1" fill="#203e54" fill-opacity="1"></use><g><use xlink:href="#f3r21OZh0" opacity="1" fill-opacity="0" stroke="#000000" stroke-width="1" stroke-opacity="0"></use></g></g><g><use xlink:href="#a8dloWDSLl" opacity="1" fill="#203e54" fill-opacity="1"></use><g><use xlink:href="#a8dloWDSLl" opacity="1" fill-opacity="0" stroke="#000000" stroke-width="1" stroke-opacity="0"></use></g></g><g><use xlink:href="#ej1U4nZQG" opacity="1" fill="#203e54" fill-opacity="1"></use><g><use xlink:href="#ej1U4nZQG" opacity="1" fill-opacity="0" stroke="#000000" stroke-width="1" stroke-opacity="0"></use></g></g><g><use xlink:href="#a5vl8xzI71" opacity="1" fill="#203e54" fill-opacity="1"></use><g><use xlink:href="#a5vl8xzI71" opacity="1" fill-opacity="0" stroke="#000000" stroke-width="1" stroke-opacity="0"></use></g></g><g><use xlink:href="#a9SwjnjnYc" opacity="1" fill="#203e54" fill-opacity="1"></use><g><use xlink:href="#a9SwjnjnYc" opacity="1" fill-opacity="0" stroke="#000000" stroke-width="1" stroke-opacity="0"></use></g></g><g><use xlink:href="#c1kvZh3TyQ" opacity="1" fill="#203e54" fill-opacity="1"></use><g><use xlink:href="#c1kvZh3TyQ" opacity="1" fill-opacity="0" stroke="#000000" stroke-width="1" stroke-opacity="0"></use></g></g><g><use xlink:href="#bnpThyCJ2" opacity="1" fill="#203e54" fill-opacity="1"></use><g><use xlink:href="#bnpThyCJ2" opacity="1" fill-opacity="0" stroke="#000000" stroke-width="1" stroke-opacity="0"></use></g></g><g><use xlink:href="#aDP5clJrV" opacity="1" fill="#203e54" fill-opacity="1"></use><g><use xlink:href="#aDP5clJrV" opacity="1" fill-opacity="0" stroke="#000000" stroke-width="1" stroke-opacity="0"></use></g></g><g><use xlink:href="#e1odA7tWXa" opacity="1" fill="#fd6d20" fill-opacity="1"></use><g><use xlink:href="#e1odA7tWXa" opacity="1" fill-opacity="0" stroke="#000000" stroke-width="1" stroke-opacity="0"></use></g></g><g><use xlink:href="#erfCVPRe" opacity="1" fill="#fd6d20" fill-opacity="1"></use><g><use xlink:href="#erfCVPRe" opacity="1" fill-opacity="0" stroke="#000000" stroke-width="1" stroke-opacity="0"></use></g></g><g><use xlink:href="#c5h5XsQZj" opacity="1" fill="#fd6d20" fill-opacity="1"></use><g><use xlink:href="#c5h5XsQZj" opacity="1" fill-opacity="0" stroke="#000000" stroke-width="1" stroke-opacity="0"></use></g></g></g></svg>