<svg id="e1ac43de-a0cd-427c-9acc-f4becf1fca7e" data-name="Laag 1" xmlns="http://www.w3.org/2000/svg" viewBox="0 0 2500 950"><defs><style>.f28543ce-7c63-4991-80d9-714344e73aa0{fill:#3ba5f0;}.ba5bc617-3333-45c8-bade-d538311fff55{fill:#fff;}</style></defs><title>Jobsy Logo transparent and with background</title><rect class="f28543ce-7c63-4991-80d9-714344e73aa0" x="0.25" y="0.1" width="2500" height="950"/><path class="ba5bc617-3333-45c8-bade-d538311fff55" d="M263.72,177.38q0-33.94,22.78-57.16T346.78,97q37.52,0,60.29,23.23t22.77,57.16q0,33.94-22.77,57.16t-60.29,23.22q-37.51,0-60.28-23.22T263.72,177.38Z"/><path class="ba5bc617-3333-45c8-bade-d538311fff55" d="M968.4,477.77q0,55.4-17,98.69t-47.78,72.8Q872.83,678.72,830,693.91T734.39,709.1q-52.7,0-95.57-16.09t-73.68-46q-30.81-29.92-47.79-72.8t-17-96.46q0-52.69,17-95.57t47.79-72.79q30.83-29.91,73.68-46t95.57-16.08q52.7,0,95.57,16.52t73.69,46.44q30.81,29.94,47.78,72.8T968.4,477.77Zm-312.61,0q0,54.5,21,83.51t58.5,29q37.5,0,57.6-29.48T813,477.77q0-53.59-20.54-82.61t-58.06-29q-37.5,0-58,29T655.79,477.77Z"/><path class="ba5bc617-3333-45c8-bade-d538311fff55" d="M1044.32,113.36q8.91-2.67,28.59-5.8a255.54,255.54,0,0,1,40.18-3.12,211.1,211.1,0,0,1,35.29,2.67q15.6,2.69,26.34,10.72a48.54,48.54,0,0,1,16.08,21.88q5.35,13.86,5.35,36.18v87.53a217.21,217.21,0,0,1,42.43-12.51,254.48,254.48,0,0,1,44.21-3.57,219.13,219.13,0,0,1,81.28,15.18,201.61,201.61,0,0,1,67.87,44.21q29.47,29,46.45,71.9t17,99.14q0,58.07-17.42,101.37t-48.67,71.91q-31.27,28.58-76.37,43.31t-99.58,14.74q-59,0-100-13.85t-69.67-34.39q-39.3-27.66-39.29-71.45Zm209,476.05q41.07,0,63.85-28.13T1340,477.77q0-56.26-23.22-84t-62.52-27.69q-17.87,0-30.81,3.58a180.1,180.1,0,0,0-28.14,10.71V575.12a91.38,91.38,0,0,0,23.67,10.28Q1232.78,589.41,1253.32,589.41Z"/><path class="ba5bc617-3333-45c8-bade-d538311fff55" d="M1935.67,565.3q0,67.89-50.9,106.28t-150,38.42a424.64,424.64,0,0,1-69.67-5.37q-32.16-5.36-54.93-16.52T1574.39,660q-12.95-16.94-13-40.18,0-21.43,8.94-36.17a90.18,90.18,0,0,1,21.43-24.56q25.9,14.3,59.4,25.45t77.25,11.16q27.68,0,42.44-8t14.73-21.44q0-12.5-10.72-19.65t-35.73-11.61l-26.8-5.36q-77.7-15.18-115.65-47.78t-38-93.33q0-33,14.29-59.85A125.21,125.21,0,0,1,1613.25,284q25.9-17.86,62.08-27.69t79.93-9.83a372.68,372.68,0,0,1,62.07,4.92q29,4.92,50.47,14.73t33.94,25.46q12.48,15.63,12.5,37.06,0,20.56-7.59,35.29a79.58,79.58,0,0,1-19.21,24.56q-7.15-4.47-21.42-9.39t-31.27-8.92q-17-4-34.38-6.7a209.93,209.93,0,0,0-31.72-2.69q-29.46,0-45.54,6.7t-16.08,21q0,9.82,8.93,16.07t33.94,11.61l27.68,6.25q85.76,19.67,121.92,54T1935.67,565.3Z"/><path class="ba5bc617-3333-45c8-bade-d538311fff55" d="M2063.38,584.05q-9.84-22.31-21-50t-23.23-63.41q-12.06-35.72-25-81.73t-27.23-105.84q12.48-12.49,33.48-21.88a111.52,111.52,0,0,1,46-9.38q31.24,0,51.81,12.95t30.36,48.68l70.56,245.62h3.57q10.73-30.36,21-66.1t20.09-73.68q9.84-37.95,18.32-75.92t14.73-74.58q32.16-16.95,70.56-17,31.26,0,51.8,13.4t20.55,46.44q0,24.12-6.25,55.82T2397,434.9q-10.29,35.73-24.12,73.68t-29,74.58q-15.21,36.63-31.27,69.22t-31.25,58.5q-25,43.76-46.45,71.45t-41.09,43.32q-19.64,15.63-39.29,21.44a144.58,144.58,0,0,1-41.08,5.8q-37.52,0-60.74-22.32T2025,772.5q28.56-22.32,57.15-49.57a599.2,599.2,0,0,0,51.81-55.82q-15.21-4.46-32.6-21T2063.38,584.05Z"/><path class="ba5bc617-3333-45c8-bade-d538311fff55" d="M80.75,691.89q0-33.93,22.77-57.16t60.28-23.22q37.53,0,60.3,23.22t22.77,57.16q0,34-22.77,57.16t-60.3,23.22q-37.5,0-60.28-23.22T80.75,691.89Z"/><path class="ba5bc617-3333-45c8-bade-d538311fff55" d="M424,271.88c0-8.92-13-1.86-21.59,2.21C386.1,281.29,367.62,285,346.77,285q-41.36,0-70.7-18.95c-3.61-2.36-5.21-1.33-5.21.92,0,0,1.34,374.32,0,415.21-1.11,33.79-8.94,62.24-29.28,87.42-8.14,10.08-27.14,27.91-73.27,30.63,6.2,13.43,17.35,27.91,27.85,35.33,22.8,16.09,66.22,18.68,87.28,17.31,19.61-1.27,48.9-4,64.68-12a115.92,115.92,0,0,0,40.19-33.94q16.53-21.9,25.46-52.25t8.92-67.89V329.06C423,310.25,424,279.82,424,271.88Z"/></svg>