<?xml version="1.0" encoding="utf-8"?>
<!-- Generator: Adobe Illustrator 23.0.3, SVG Export Plug-In . SVG Version: 6.00 Build 0)  -->
<svg version="1.1" id="Camada_1" xmlns="http://www.w3.org/2000/svg" xmlns:xlink="http://www.w3.org/1999/xlink" x="0px" y="0px"
	 viewBox="0 0 841.89 595.28" style="enable-background:new 0 0 841.89 595.28;" xml:space="preserve">
<style type="text/css">
	.st0{fill:url(#SVGID_1_);}
	.st1{fill:url(#SVGID_2_);}
	.st2{fill:#3A3633;}
	.st3{fill:#003DA6;}
</style>
<g>
	<linearGradient id="SVGID_1_" gradientUnits="userSpaceOnUse" x1="525.0194" y1="264.573" x2="420.3269" y2="88.3579">
		<stop  offset="0" style="stop-color:#3A3633"/>
		<stop  offset="0.03" style="stop-color:#35373D;stop-opacity:0.994"/>
		<stop  offset="0.1414" style="stop-color:#24395D;stop-opacity:0.9717"/>
		<stop  offset="0.2621" style="stop-color:#173A78;stop-opacity:0.9476"/>
		<stop  offset="0.3934" style="stop-color:#0D3B8D;stop-opacity:0.9213"/>
		<stop  offset="0.5409" style="stop-color:#063C9B;stop-opacity:0.8918"/>
		<stop  offset="0.7174" style="stop-color:#013CA4;stop-opacity:0.8565"/>
		<stop  offset="1" style="stop-color:#003DA6;stop-opacity:0.8"/>
	</linearGradient>
	<path class="st0" d="M536.99,237.2c6.93,11.82,2.95,27.01-8.86,33.94l0,0c-11.82,6.92-27.01,2.95-33.94-8.86l-86.31-147.33
		c-6.93-11.82-2.95-27.01,8.86-33.93l0,0c11.81-6.92,27.01-2.96,33.93,8.86L536.99,237.2z"/>
	<linearGradient id="SVGID_2_" gradientUnits="userSpaceOnUse" x1="338.7231" y1="266.8272" x2="433.05" y2="103.0508">
		<stop  offset="0" style="stop-color:#3A3633"/>
		<stop  offset="0.03" style="stop-color:#35373D;stop-opacity:0.994"/>
		<stop  offset="0.1414" style="stop-color:#24395D;stop-opacity:0.9717"/>
		<stop  offset="0.2621" style="stop-color:#173A78;stop-opacity:0.9476"/>
		<stop  offset="0.3934" style="stop-color:#0D3B8D;stop-opacity:0.9213"/>
		<stop  offset="0.5409" style="stop-color:#063C9B;stop-opacity:0.8918"/>
		<stop  offset="0.7174" style="stop-color:#013CA4;stop-opacity:0.8565"/>
		<stop  offset="1" style="stop-color:#003DA6;stop-opacity:0.8"/>
	</linearGradient>
	<path class="st1" d="M372.37,265.31c-6.33,12.15-21.3,16.87-33.45,10.54l0,0c-12.15-6.33-16.87-21.3-10.54-33.45l78.86-151.45
		c6.33-12.15,21.3-16.87,33.45-10.54l0,0c12.15,6.33,16.87,21.3,10.55,33.45L372.37,265.31z"/>
	<g>
		<path class="st2" d="M347.98,340.59c-0.57-2.45-1.36-4.83-2.36-7.12c-2.21-4.73-5.18-8.47-8.8-11.12
			c-3.68-2.68-7.89-4.05-12.53-4.05h-15.63c-2.07,0-3.55,0.42-4.55,1.26c-1.07,0.91-1.61,2.31-1.61,4.19v50.76
			c0,1.39,0.36,2.56,1.07,3.47l0.3,0.3c0.91,0.71,2.15,1.07,3.67,1.07h16.75c2.17,0,4.15-0.21,5.89-0.61
			c1.76-0.4,3.51-1.05,5.26-1.97c3.28-1.9,5.88-4.28,7.65-6.98c0.67-0.9,1.14-1.61,1.43-2.19c0.25-0.5,0.62-1.35,1.06-2.43
			c0.81-1.55,1.45-3.29,1.89-5.23c0.9-4.11,1.37-7.91,1.37-11.29v-0.71C348.84,345.55,348.56,343.06,347.98,340.59z M338.66,348.16
			c0,4.66-0.49,8.6-1.42,11.61c-0.65,1.71-1.28,3.08-1.81,4.03c-1.01,1.65-1.61,2.23-2.04,2.59c-1.5,1.56-3.18,2.62-4.88,3.12
			l-3.21,0.68h-13.74v-42.93h10.02c4.1,0,7.44,0.79,9.92,2.36c2.48,1.56,4.24,3.75,5.38,6.69
			C338.06,339.35,338.66,343.34,338.66,348.16z"/>
		<path class="st2" d="M404.9,372.37c-0.3-0.7-0.89-1.23-1.79-1.66c-0.74-0.35-1.61-0.52-2.6-0.52h-16.41v-17.8l15.19,0
			c1.51-0.1,2.64-0.62,3.35-1.52c0.64-0.82,0.97-1.85,0.97-3.06c0-1.04-0.33-2.03-0.97-2.94c-0.53-0.75-1.56-1.63-3.45-1.63h-15.08
			v-15.97l16.02-0.02c1.46-0.2,2.51-0.68,3.2-1.49c0.67-0.79,1.01-1.77,1-3.15c-0.18-1.38-0.59-2.4-1.25-3.11
			c-0.73-0.79-1.8-1.2-3.16-1.2h-19.91c-1.91,0-3.2,0.46-3.95,1.39c-0.67,0.83-0.98,2.12-0.98,4.06v50.05c0,1.92,0.3,3.21,1.09,4.25
			c0.87,0.87,2.16,1.31,3.84,1.31h20.53c1.42,0,2.67-0.55,3.59-1.57c0.9-0.99,1.35-2.06,1.33-3.46
			C405.26,373.38,405.1,372.77,404.9,372.37z"/>
		<path class="st2" d="M477.49,321.49c-0.19-1.45-0.67-2.49-1.45-3.18c-0.77-0.68-1.89-1.05-3.14-1.01
			c-1.41,0.19-2.36,0.57-2.9,1.14c-1.29,1.17-1.55,2.43-1.55,3.28v40.09l-27.9-41.11l-0.99-1.2l-1.38-1.19
			c-1.15-0.68-2.17-1.01-3.09-1.01c-0.77,0-1.91,0.26-2.99,1.49l-0.21,0.3c-0.54,1-0.82,2.06-0.82,3.16l0.02,53.63
			c0.19,1.36,0.71,2.42,1.39,3.01c0.55,0.64,1.67,1.45,3.52,1.38c1.32-0.19,2.35-0.69,3.05-1.45c0.72-0.79,1.08-1.86,1.08-3.17
			v-39.55l27.96,40.82c0.53,1.24,1.3,2.16,2.3,2.75c0.88,0.73,1.92,1.12,3.01,1.12c0.87,0,2.11-0.32,3.12-1.82
			c0.66-0.99,1-2.32,1-3.93L477.49,321.49z"/>
		<path class="st2" d="M540.2,319.6c-0.81-0.85-1.94-1.29-3.36-1.29h-29c-1.33,0-2.48,0.45-3.51,1.52c-0.68,0.97-1.02,1.98-1,3.31
			c0.18,0.96,0.49,1.81,0.95,2.53l0.22,0.29c0.85,0.85,2.01,1.31,3.33,1.31h9.98v47.77c0,1.8,0.46,3.19,1.34,4.11
			c1.14,1.19,2.33,1.43,3.13,1.43h0.13l0.13-0.02c1.32-0.2,2.39-0.8,3.18-1.78c0.76-0.95,1.14-2.21,1.14-3.74v-47.77l10.08,0
			c1.57-0.1,2.72-0.59,3.45-1.49c0.65-0.81,0.97-1.8,0.97-2.93C541.37,321.52,540.99,320.43,540.2,319.6z"/>
		<path class="st2" d="M575.4,318.5c-0.85-0.79-1.93-1.21-3.28-1.21h-0.02c-1.25,0.09-2.28,0.48-3.07,1.17
			c-0.61,0.53-1.33,1.53-1.33,3.25v53.84c0,1.42,0.45,2.57,1.34,3.41c0.85,0.79,1.95,1.21,3.19,1.21h0.11l0.12-0.02
			c1.38-0.2,2.37-0.66,2.88-1.28c0.93-0.91,1.41-2.06,1.41-3.32v-53.84C576.74,320.43,576.28,319.32,575.4,318.5z"/>
		<path class="st2" d="M640.38,354.56c-0.78-2.24-1.89-4.12-3.26-5.58c-1.61-1.76-3.48-3.21-5.7-4.4l-5.47-2.23l-6.73-3.01
			c-1.72-0.93-3.12-1.98-4.14-3.12c-0.89-0.98-1.31-1.98-1.31-3.08c0-1.07,0.39-2.1,1.2-3.19c0.85-1.13,1.92-2,3.19-2.6
			c3.08-1.42,5.51-1.05,8.4-0.04c1.61,0.57,2.89,1.29,3.69,2.02c1.01,1.15,2.14,1.36,3.15,1.37c1.3-0.19,2.37-0.81,3.2-1.84
			c0.78-0.98,1.17-2.05,1.17-3.18l-0.66-2.64c-0.55-1.18-1.33-2.09-2.32-2.71c-0.79-0.49-1.53-0.88-2.24-1.19
			c-1.29-0.52-2.53-0.9-3.56-1.09c-1.84-0.51-3.95-0.77-6.26-0.77c-3.15,0-6.09,0.59-8.68,1.75c-2.76,1.08-5.04,2.96-6.77,5.6
			c-1.71,2.62-2.57,5.73-2.57,9.23c0,2.96,0.64,5.46,1.95,7.5l1.92,2.66c1.02,1.03,1.93,1.73,2.68,2.09l3.3,1.96l10.47,4.07
			c2.23,0.96,3.99,2.32,5.18,3.96c1.19,1.9,1.79,3.73,1.79,5.44c0,1.23-0.24,2.28-0.8,3.35c-0.53,1.31-1.22,2.4-2.1,3.3
			c-0.93,0.96-1.93,1.79-2.84,2.39c-1.05,0.55-2.13,0.83-3.21,0.83c-2.4,0-4.62-0.35-6.56-1.01l-3.21-1.21
			c-0.83-0.36-1.53-0.73-2.06-1.13c-0.94-0.69-2.07-1.02-3.57-1.02c-1.16,0.2-2.12,0.67-2.83,1.39c-0.78,0.78-1.21,1.79-1.21,2.91
			c0,1.33,0.67,2.72,2.06,4.28l0.33,0.29c1.21,0.79,2.43,1.45,3.62,1.97c1.13,0.49,2.02,0.87,2.69,1.11
			c0.68,0.25,1.83,0.58,3.45,0.98c1.67,0.4,3.67,0.61,5.97,0.61c3.16,0,6.06-0.6,8.62-1.79c2.54-1.18,4.57-2.62,5.94-4.22
			c1.1-1.11,1.85-2.08,2.28-2.96c0.31-0.41,0.59-0.91,0.87-1.53l0.75-1.72c0.7-1.53,1.09-2.86,1.21-4.02
			c0.11-1.05,0.17-2.05,0.17-2.99v-0.41C641.54,358.92,641.15,356.77,640.38,354.56z"/>
		<path class="st2" d="M256.48,321.87c-0.54-1.51-1.43-2.67-2.68-3.46c-2.44-1.53-5.04-1.5-7.18,0.21
			c-1.07,0.84-1.84,1.95-2.28,3.25l-18.65,52.31l-0.41,1.94l-0.04,0.35c0,1.62,0.65,2.56,1.2,3.05c0.94,0.88,1.88,1.06,2.5,1.06
			c1.09,0,2.2-0.39,3.31-1.19c1.06-0.76,1.88-1.82,2.4-3.14l1.95-4.84l0,0l4.58-13.37h-0.03l9.27-26.23l7.85,22.21l0,0l6.95,17.92
			l0,0l1.74,4.05c0.37,1.51,1.13,2.67,2.29,3.46c1.12,0.76,2.02,1.12,2.84,1.12h0.14l0.13-0.02c1.19-0.19,2.01-0.49,2.6-0.97
			l0.29-0.31c0.62-0.83,0.93-1.79,0.93-2.82v-1.03L256.48,321.87z"/>
	</g>
	<path class="st3" d="M430.53,153.6c0,0,19.44-34.54,22.88-45.68c3.44-11.14-5.41-30.32-24.66-30.32
		c-19.25,0-27.23,19.86-23.31,32.31C409.37,122.35,430.53,153.6,430.53,153.6z"/>
	<g>
		<g>
			<path class="st2" d="M227.8,423.37c0,0.27-0.1,0.52-0.31,0.72c-0.12,0.14-0.33,0.23-0.66,0.27c-0.28,0-0.5-0.08-0.69-0.26
				c-0.18-0.17-0.28-0.42-0.28-0.74v-18.14c0-0.3,0.09-0.52,0.26-0.67c0.17-0.15,0.41-0.23,0.7-0.26c0.28,0,0.51,0.09,0.69,0.26
				c0.19,0.17,0.28,0.4,0.28,0.67V423.37z"/>
			<path class="st2" d="M250.55,423.19c0,0.43-0.08,0.77-0.24,1.01c-0.16,0.24-0.36,0.36-0.59,0.36c-0.26,0-0.48-0.09-0.69-0.28
				c-0.26-0.14-0.45-0.37-0.59-0.69l-10.5-15.35v15.14c0,0.3-0.07,0.53-0.22,0.69c-0.14,0.16-0.38,0.26-0.69,0.31
				c-0.29,0-0.52-0.09-0.68-0.28c-0.18-0.16-0.29-0.4-0.34-0.73v-18c0-0.28,0.07-0.54,0.21-0.79c0.19-0.21,0.38-0.31,0.59-0.31
				c0.21,0,0.46,0.09,0.76,0.26l0.38,0.33l0.27,0.34l10.4,15.33v-15.34c0-0.26,0.12-0.48,0.34-0.69c0.12-0.12,0.34-0.19,0.68-0.24
				c0.25,0,0.45,0.07,0.61,0.21c0.16,0.14,0.26,0.38,0.31,0.73V423.19z"/>
			<path class="st2" d="M274.95,414.35c0,1.03-0.17,2.16-0.5,3.37c-0.33,1.22-0.86,2.32-1.58,3.32c-0.72,1-1.63,1.79-2.73,2.37
				c-1.1,0.59-2.31,0.88-3.61,0.88c-1.03,0-2.05-0.25-3.06-0.76c-0.28-0.14-0.52-0.27-0.74-0.4s-0.45-0.28-0.7-0.47
				c-0.41-0.34-0.82-0.75-1.2-1.2c-0.8-0.89-1.43-1.97-1.9-3.22c-0.46-1.25-0.69-2.58-0.69-4.01c0-1.27,0.19-2.5,0.55-3.7
				c0.37-1.2,0.89-2.25,1.58-3.15c0.3-0.44,0.67-0.84,1.12-1.2c0.45-0.37,0.95-0.69,1.5-0.96c1.03-0.55,2.21-0.83,3.54-0.83
				c0.8,0,1.54,0.09,2.22,0.28c0.68,0.19,1.36,0.49,2.05,0.93c1.26,0.71,2.28,1.83,3.06,3.37c0.37,0.76,0.63,1.6,0.79,2.51
				C274.85,412.38,274.95,413.34,274.95,414.35z M272.75,414.35l-0.1-1.72c0-0.46-0.12-0.97-0.34-1.55
				c-0.3-0.99-0.74-1.84-1.31-2.56c-0.57-0.72-1.24-1.27-2.01-1.65c-0.77-0.38-1.59-0.56-2.46-0.56c-1.26,0-2.31,0.27-3.13,0.82
				c-0.82,0.51-1.43,1.16-1.83,1.96c-0.23,0.41-0.41,0.82-0.55,1.22c-0.14,0.4-0.25,0.84-0.33,1.31c-0.08,0.47-0.14,0.93-0.19,1.38
				c-0.05,0.45-0.07,0.9-0.07,1.36c0,0.3,0,0.58,0,0.84s0.04,0.6,0.12,1.01c0.08,0.42,0.16,0.77,0.26,1.07
				c0.18,0.44,0.31,0.77,0.38,1c0.41,1.22,1.06,2.2,1.94,2.94c0.89,0.75,2.02,1.12,3.39,1.12c1.12,0,2.08-0.23,2.86-0.69
				c0.44-0.25,0.8-0.52,1.08-0.81c0.28-0.29,0.58-0.66,0.88-1.12c0.46-0.71,0.81-1.56,1.07-2.55c0.09-0.41,0.17-0.87,0.24-1.38
				C272.72,415.29,272.75,414.8,272.75,414.35z"/>
			<path class="st2" d="M296.12,405.33l-5.85,17.21c-0.09,0.46-0.31,0.86-0.65,1.2c-0.25,0.28-0.52,0.41-0.79,0.41
				c-0.53,0-0.99-0.46-1.41-1.38l-3.3-9.33l-1-2.86l-1.04-2.85l-0.66-1.86l-0.21-0.65c0-0.21,0.1-0.41,0.31-0.62
				c0.21-0.21,0.46-0.31,0.76-0.31c0.21,0,0.42,0.06,0.65,0.17c0.23,0.12,0.37,0.3,0.41,0.55l5.4,15.78l5.37-15.79
				c0.12-0.25,0.22-0.42,0.33-0.52c0.1-0.09,0.28-0.16,0.54-0.21l0.55,0.14c0.23,0.12,0.37,0.24,0.42,0.38
				C296.07,404.97,296.12,405.14,296.12,405.33z"/>
			<path class="st2" d="M315.05,423.67c0,0.23-0.07,0.44-0.21,0.62c-0.11,0.09-0.31,0.16-0.61,0.21c-0.16,0-0.38-0.09-0.64-0.28
				c-0.27-0.19-0.45-0.46-0.54-0.83l-1.36-3.19h-9.31l-1.29,3.19c-0.14,0.35-0.34,0.62-0.62,0.82c-0.27,0.19-0.54,0.29-0.79,0.29
				c-0.16,0-0.31-0.07-0.46-0.21c-0.15-0.14-0.22-0.35-0.22-0.62l0.14-0.65l6.27-17.55c0.11-0.34,0.31-0.62,0.59-0.84
				c0.27-0.22,0.56-0.33,0.86-0.33c0.3,0,0.6,0.1,0.92,0.29c0.31,0.2,0.53,0.49,0.67,0.88l6.53,17.55l0.08,0.31V423.67z
				 M310.85,418.03l-3.92-11.09l-3.92,11.09H310.85z"/>
			<path class="st2" d="M337.05,421.44c0,0.34-0.13,0.64-0.38,0.89c-0.69,0.73-1.58,1.29-2.69,1.65c-0.57,0.16-1.14,0.28-1.7,0.36
				c-0.56,0.08-1.12,0.12-1.67,0.12l-0.28,0.55l0.24-0.03h0.14c1.08,0,1.67,0.54,1.78,1.64v0.21c0,0.63-0.3,1.17-0.89,1.59
				c-0.6,0.42-1.27,0.63-2.03,0.63c-0.37,0-0.63-0.02-0.79-0.05c-0.16-0.04-0.37-0.11-0.62-0.21c-0.25-0.1-0.43-0.22-0.53-0.34
				c-0.1-0.13-0.18-0.33-0.22-0.6l0.14-0.41l0.24-0.28l0.42-0.14l0.34,0.07l0.41,0.17c0.16,0.07,0.4,0.12,0.73,0.17
				c0.28,0,0.48-0.07,0.62-0.2c0.14-0.09,0.23-0.2,0.28-0.33c0-0.16-0.09-0.29-0.25-0.4c-0.17-0.11-0.43-0.17-0.79-0.17h-0.14h-0.16
				c-0.19,0-0.38-0.04-0.59-0.12c-0.14-0.02-0.23-0.13-0.28-0.33l0.07-0.17l0.1-0.21l0.62-1c-1.38-0.25-2.51-0.72-3.4-1.41
				c-0.96-0.67-1.72-1.51-2.27-2.52c-0.16-0.3-0.29-0.55-0.38-0.76c-0.09-0.21-0.2-0.45-0.31-0.72c-0.19-0.46-0.33-0.98-0.45-1.55
				c-0.25-0.92-0.38-1.9-0.38-2.93c0-0.67,0.04-1.28,0.1-1.85c0.07-0.56,0.2-1.17,0.38-1.81c0.32-1.29,0.82-2.39,1.5-3.31
				c0.68-0.92,1.58-1.69,2.7-2.31c1.13-0.62,2.44-0.93,3.96-0.93c1.1,0,2.16,0.2,3.17,0.59c1.08,0.35,1.9,0.94,2.48,1.79
				c0.14,0.16,0.23,0.41,0.27,0.75c0,0.26-0.12,0.49-0.38,0.73c-0.26,0.23-0.52,0.34-0.8,0.34c-0.18,0-0.39-0.12-0.62-0.34
				c-0.62-0.55-1.31-1.02-2.07-1.4c-0.76-0.38-1.45-0.56-2.07-0.56c-0.99,0-1.89,0.25-2.72,0.75c-0.83,0.55-1.5,1.23-2.03,2.03
				c-0.25,0.41-0.48,0.83-0.67,1.26c-0.19,0.42-0.35,0.88-0.48,1.36s-0.22,0.97-0.29,1.46c-0.07,0.49-0.1,0.97-0.1,1.43
				c0,1.83,0.45,3.59,1.34,5.25c0.89,1.67,2.6,2.5,5.13,2.5c1.03,0,1.9-0.09,2.6-0.28c0.7-0.18,1.28-0.52,1.74-1
				c0.39-0.35,0.75-0.52,1.07-0.52c0.21,0,0.39,0.08,0.55,0.24C336.89,420.94,337,421.16,337.05,421.44z"/>
			<path class="st2" d="M359.28,423.67c0,0.23-0.07,0.43-0.21,0.61c-0.11,0.09-0.31,0.16-0.61,0.21c-0.16,0-0.38-0.09-0.64-0.28
				c-0.27-0.19-0.45-0.46-0.54-0.83l-1.36-3.19h-9.31l-1.29,3.19c-0.14,0.35-0.34,0.61-0.62,0.81c-0.27,0.19-0.54,0.29-0.79,0.29
				c-0.16,0-0.31-0.07-0.46-0.21s-0.22-0.34-0.22-0.61l0.14-0.65l6.27-17.55c0.11-0.34,0.31-0.62,0.59-0.84
				c0.27-0.22,0.56-0.33,0.86-0.33c0.3,0,0.6,0.1,0.92,0.29c0.31,0.2,0.53,0.49,0.67,0.88l6.53,17.55l0.08,0.31V423.67z
				 M355.08,418.03l-3.92-11.09l-3.92,11.09H355.08z M355.9,400.51c0,0.64-0.26,1.16-0.79,1.55c-0.53,0.32-1.13,0.48-1.79,0.48
				c-0.25,0-0.55-0.06-0.89-0.18l-1.07-0.4c-0.32-0.12-0.54-0.18-0.66-0.18c-0.11,0-0.21,0-0.27,0c-0.16,0-0.32,0.05-0.48,0.14
				l-0.52,0.31c-0.34,0.3-0.7,0.45-1.06,0.45c-0.14,0-0.31-0.07-0.5-0.21c-0.2-0.13-0.29-0.34-0.29-0.61c0-0.5,0.14-0.88,0.41-1.15
				c0.25-0.32,0.55-0.55,0.89-0.68c0.34-0.14,0.71-0.2,1.1-0.2c0.32,0,0.62,0.02,0.89,0.07c0.28,0.04,0.66,0.15,1.14,0.33l1.41,0.36
				c0.19,0,0.35-0.05,0.52-0.14l0.42-0.29l0.38-0.32h0.45C355.66,399.82,355.9,400.05,355.9,400.51z"/>
			<path class="st2" d="M383.13,414.35c0,1.03-0.17,2.16-0.5,3.37c-0.33,1.22-0.86,2.32-1.58,3.32c-0.72,1-1.63,1.79-2.73,2.37
				c-1.1,0.59-2.31,0.88-3.61,0.88c-1.03,0-2.05-0.25-3.06-0.76c-0.28-0.14-0.52-0.27-0.74-0.4c-0.22-0.13-0.45-0.28-0.7-0.47
				c-0.41-0.34-0.82-0.75-1.2-1.2c-0.8-0.89-1.43-1.97-1.9-3.22c-0.46-1.25-0.69-2.58-0.69-4.01c0-1.27,0.19-2.5,0.55-3.7
				c0.37-1.2,0.89-2.25,1.58-3.15c0.3-0.44,0.67-0.84,1.12-1.2c0.45-0.37,0.95-0.69,1.5-0.96c1.03-0.55,2.21-0.83,3.54-0.83
				c0.8,0,1.54,0.09,2.22,0.28c0.68,0.19,1.36,0.49,2.05,0.93c1.26,0.71,2.28,1.83,3.06,3.37c0.37,0.76,0.63,1.6,0.79,2.51
				C383.02,412.38,383.13,413.34,383.13,414.35z M380.93,414.35l-0.1-1.72c0-0.46-0.12-0.97-0.34-1.55
				c-0.3-0.99-0.74-1.84-1.31-2.56c-0.57-0.72-1.24-1.27-2.01-1.65c-0.77-0.38-1.59-0.56-2.46-0.56c-1.26,0-2.31,0.27-3.13,0.82
				c-0.82,0.51-1.43,1.16-1.83,1.96c-0.23,0.41-0.41,0.82-0.55,1.22c-0.14,0.4-0.25,0.84-0.33,1.31c-0.08,0.47-0.14,0.93-0.19,1.38
				c-0.05,0.45-0.07,0.9-0.07,1.36c0,0.3,0,0.58,0,0.84s0.04,0.6,0.12,1.01c0.08,0.42,0.16,0.77,0.26,1.07
				c0.18,0.44,0.31,0.77,0.38,1c0.41,1.22,1.06,2.2,1.94,2.94c0.89,0.75,2.02,1.12,3.39,1.12c1.12,0,2.08-0.23,2.86-0.69
				c0.44-0.25,0.8-0.52,1.08-0.81c0.28-0.29,0.58-0.66,0.88-1.12c0.46-0.71,0.81-1.56,1.07-2.55c0.09-0.41,0.17-0.87,0.24-1.38
				C380.89,415.29,380.93,414.8,380.93,414.35z"/>
			<path class="st2" d="M422.19,423.05c0,0.23-0.1,0.46-0.31,0.69c-0.21,0.23-0.47,0.35-0.79,0.35h-6.92c-0.42,0-0.71-0.09-0.9-0.28
				c-0.14-0.19-0.21-0.53-0.21-1.03v-16.86c0-0.51,0.07-0.84,0.21-1.02c0.14-0.17,0.44-0.26,0.9-0.26h6.71
				c0.3,0,0.52,0.07,0.65,0.22c0.14,0.15,0.23,0.4,0.28,0.74c0,0.25-0.07,0.46-0.21,0.62c-0.14,0.16-0.38,0.26-0.72,0.31H415v6.5
				h5.64c0.32,0,0.56,0.11,0.71,0.32c0.15,0.21,0.22,0.43,0.22,0.66c0,0.28-0.07,0.51-0.21,0.68c-0.14,0.18-0.38,0.28-0.73,0.3H415
				v7.13h6.09c0.25,0,0.47,0.04,0.63,0.12c0.17,0.08,0.28,0.17,0.33,0.28C422.1,422.62,422.15,422.8,422.19,423.05z"/>
			<path class="st2" d="M461.91,405.6c0,0.25-0.07,0.46-0.21,0.63c-0.14,0.17-0.39,0.27-0.76,0.29h-3.92v16.66
				c0,0.39-0.09,0.69-0.26,0.91c-0.17,0.22-0.41,0.35-0.72,0.4c-0.23,0-0.45-0.1-0.65-0.31s-0.3-0.54-0.3-1v-16.66h-3.92
				c-0.3,0-0.54-0.09-0.73-0.28c-0.12-0.18-0.19-0.4-0.24-0.65c0-0.23,0.08-0.46,0.24-0.69c0.19-0.19,0.43-0.28,0.73-0.28h9.77
				c0.32,0,0.56,0.09,0.73,0.26C461.83,405.07,461.91,405.3,461.91,405.6z"/>
			<path class="st2" d="M478.22,423.05c0,0.23-0.1,0.46-0.31,0.69c-0.21,0.23-0.47,0.35-0.79,0.35h-6.92c-0.42,0-0.71-0.09-0.9-0.28
				c-0.14-0.19-0.21-0.53-0.21-1.03v-16.86c0-0.51,0.07-0.84,0.21-1.02c0.14-0.17,0.44-0.26,0.9-0.26h6.71
				c0.3,0,0.52,0.07,0.65,0.22c0.14,0.15,0.23,0.4,0.28,0.74c0,0.25-0.07,0.46-0.21,0.62c-0.14,0.16-0.38,0.26-0.72,0.31h-5.89v6.5
				h5.64c0.32,0,0.56,0.11,0.71,0.32c0.15,0.21,0.22,0.43,0.22,0.66c0,0.28-0.07,0.51-0.21,0.68c-0.14,0.18-0.38,0.28-0.73,0.3
				h-5.64v7.13h6.09c0.25,0,0.47,0.04,0.63,0.12c0.17,0.08,0.28,0.17,0.33,0.28C478.13,422.62,478.18,422.8,478.22,423.05z"/>
			<path class="st2" d="M499.87,421.44c0,0.34-0.13,0.64-0.38,0.89c-0.64,0.75-1.51,1.31-2.6,1.65c-1.09,0.34-2.18,0.52-3.29,0.52
				c-2.14,0-3.85-0.52-5.16-1.57c-1.31-1.04-2.24-2.35-2.8-3.91c-0.56-1.56-0.84-3.04-0.84-4.44c0-0.66,0.04-1.28,0.1-1.84
				c0.07-0.56,0.2-1.16,0.38-1.81c0.32-1.29,0.82-2.39,1.5-3.31c0.68-0.92,1.58-1.69,2.7-2.3c1.13-0.62,2.44-0.93,3.96-0.93
				c1.1,0,2.16,0.2,3.17,0.59c1.08,0.35,1.9,0.94,2.48,1.79c0.14,0.16,0.23,0.41,0.27,0.75c0,0.26-0.12,0.49-0.38,0.73
				c-0.26,0.23-0.52,0.34-0.8,0.34c-0.18,0-0.39-0.12-0.62-0.34c-0.62-0.55-1.31-1.02-2.07-1.4c-0.76-0.38-1.45-0.56-2.07-0.56
				c-0.99,0-1.89,0.25-2.72,0.75c-0.83,0.55-1.5,1.23-2.03,2.03c-0.25,0.41-0.48,0.83-0.67,1.26c-0.19,0.42-0.35,0.88-0.48,1.36
				s-0.22,0.97-0.29,1.46c-0.07,0.49-0.1,0.97-0.1,1.43c0,1.83,0.45,3.59,1.34,5.25c0.89,1.67,2.6,2.5,5.13,2.5
				c1.03,0,1.9-0.09,2.6-0.28c0.7-0.18,1.28-0.52,1.74-1c0.39-0.35,0.75-0.52,1.07-0.52c0.21,0,0.39,0.08,0.55,0.24
				C499.72,420.94,499.82,421.16,499.87,421.44z"/>
			<path class="st2" d="M521.86,423.19c0,0.43-0.08,0.77-0.24,1.01c-0.16,0.24-0.36,0.36-0.59,0.36c-0.26,0-0.48-0.09-0.69-0.28
				c-0.26-0.14-0.45-0.37-0.59-0.69l-10.5-15.35v15.14c0,0.3-0.07,0.53-0.22,0.69c-0.14,0.16-0.38,0.26-0.69,0.31
				c-0.29,0-0.52-0.09-0.68-0.28c-0.18-0.16-0.29-0.4-0.34-0.73v-18c0-0.28,0.07-0.54,0.21-0.79c0.19-0.21,0.38-0.31,0.59-0.31
				s0.46,0.09,0.76,0.26l0.38,0.33l0.27,0.34l10.4,15.33v-15.34c0-0.26,0.12-0.48,0.34-0.69c0.12-0.12,0.34-0.19,0.68-0.24
				c0.25,0,0.45,0.07,0.61,0.21c0.16,0.14,0.26,0.38,0.3,0.73V423.19z"/>
			<path class="st2" d="M546.27,414.35c0,1.03-0.17,2.16-0.5,3.37c-0.33,1.22-0.86,2.32-1.58,3.32c-0.72,1-1.63,1.79-2.73,2.37
				c-1.1,0.59-2.31,0.88-3.61,0.88c-1.03,0-2.05-0.25-3.06-0.76c-0.28-0.14-0.52-0.27-0.74-0.4c-0.22-0.13-0.45-0.28-0.7-0.47
				c-0.41-0.34-0.82-0.75-1.2-1.2c-0.8-0.89-1.43-1.97-1.9-3.22c-0.46-1.25-0.69-2.58-0.69-4.01c0-1.27,0.19-2.5,0.55-3.7
				c0.37-1.2,0.89-2.25,1.58-3.15c0.3-0.44,0.67-0.84,1.12-1.2c0.45-0.37,0.95-0.69,1.5-0.96c1.03-0.55,2.21-0.83,3.54-0.83
				c0.8,0,1.54,0.09,2.22,0.28c0.68,0.19,1.36,0.49,2.05,0.93c1.26,0.71,2.28,1.83,3.06,3.37c0.37,0.76,0.63,1.6,0.79,2.51
				C546.16,412.38,546.27,413.34,546.27,414.35z M544.06,414.35l-0.1-1.72c0-0.46-0.12-0.97-0.34-1.55
				c-0.3-0.99-0.74-1.84-1.31-2.56c-0.57-0.72-1.24-1.27-2.01-1.65c-0.77-0.38-1.59-0.56-2.46-0.56c-1.26,0-2.31,0.27-3.13,0.82
				c-0.82,0.51-1.43,1.16-1.83,1.96c-0.23,0.41-0.41,0.82-0.55,1.22c-0.14,0.4-0.25,0.84-0.33,1.31c-0.08,0.47-0.14,0.93-0.19,1.38
				c-0.05,0.45-0.07,0.9-0.07,1.36c0,0.3,0,0.58,0,0.84s0.04,0.6,0.12,1.01c0.08,0.42,0.16,0.77,0.26,1.07
				c0.18,0.44,0.31,0.77,0.38,1c0.41,1.22,1.06,2.2,1.94,2.94c0.89,0.75,2.02,1.12,3.39,1.12c1.12,0,2.08-0.23,2.86-0.69
				c0.44-0.25,0.8-0.52,1.08-0.81c0.28-0.29,0.58-0.66,0.88-1.12c0.46-0.71,0.81-1.56,1.07-2.55c0.09-0.41,0.17-0.87,0.24-1.38
				C544.03,415.29,544.06,414.8,544.06,414.35z"/>
			<path class="st2" d="M561.86,423.05c0,0.21-0.08,0.45-0.24,0.72c-0.25,0.21-0.5,0.31-0.75,0.31h-5.65
				c-0.85,0-1.27-0.52-1.27-1.55v-17.1c0-0.34,0.11-0.59,0.33-0.72c0.22-0.14,0.44-0.21,0.67-0.21c0.25,0,0.47,0.08,0.65,0.23
				c0.19,0.15,0.28,0.38,0.28,0.7v16.69h4.99c0.32,0,0.56,0.09,0.74,0.29C561.77,422.61,561.86,422.83,561.86,423.05z"/>
			<path class="st2" d="M585.54,414.35c0,1.03-0.17,2.16-0.5,3.37c-0.33,1.22-0.86,2.32-1.58,3.32c-0.72,1-1.63,1.79-2.73,2.37
				c-1.1,0.59-2.31,0.88-3.61,0.88c-1.03,0-2.05-0.25-3.06-0.76c-0.28-0.14-0.52-0.27-0.74-0.4c-0.22-0.13-0.45-0.28-0.7-0.47
				c-0.41-0.34-0.82-0.75-1.2-1.2c-0.8-0.89-1.43-1.97-1.9-3.22c-0.46-1.25-0.69-2.58-0.69-4.01c0-1.27,0.19-2.5,0.55-3.7
				c0.37-1.2,0.89-2.25,1.58-3.15c0.3-0.44,0.67-0.84,1.12-1.2c0.45-0.37,0.95-0.69,1.5-0.96c1.03-0.55,2.21-0.83,3.54-0.83
				c0.8,0,1.54,0.09,2.22,0.28c0.68,0.19,1.36,0.49,2.05,0.93c1.26,0.71,2.28,1.83,3.06,3.37c0.37,0.76,0.63,1.6,0.79,2.51
				C585.43,412.38,585.54,413.34,585.54,414.35z M583.33,414.35l-0.1-1.72c0-0.46-0.12-0.97-0.34-1.55
				c-0.3-0.99-0.74-1.84-1.31-2.56c-0.57-0.72-1.24-1.27-2.01-1.65c-0.77-0.38-1.59-0.56-2.46-0.56c-1.26,0-2.31,0.27-3.13,0.82
				c-0.82,0.51-1.43,1.16-1.83,1.96c-0.23,0.41-0.41,0.82-0.55,1.22c-0.14,0.4-0.25,0.84-0.33,1.31c-0.08,0.47-0.14,0.93-0.19,1.38
				c-0.05,0.45-0.07,0.9-0.07,1.36c0,0.3,0,0.58,0,0.84s0.04,0.6,0.12,1.01c0.08,0.42,0.16,0.77,0.26,1.07
				c0.18,0.44,0.31,0.77,0.38,1c0.41,1.22,1.06,2.2,1.94,2.94c0.89,0.75,2.02,1.12,3.39,1.12c1.12,0,2.08-0.23,2.86-0.69
				c0.44-0.25,0.8-0.52,1.08-0.81c0.28-0.29,0.58-0.66,0.88-1.12c0.46-0.71,0.81-1.56,1.07-2.55c0.09-0.41,0.17-0.87,0.24-1.38
				C583.3,415.29,583.33,414.8,583.33,414.35z"/>
			<path class="st2" d="M609.21,414.89c0,3.24-0.75,5.61-2.24,7.13c-1.49,1.51-3.4,2.27-5.75,2.27c-1.54,0-2.85-0.26-3.94-0.77
				c-1.09-0.52-1.98-1.23-2.67-2.14c-0.69-0.91-1.2-1.95-1.53-3.12c-0.33-1.17-0.5-2.39-0.5-3.68c0-1.4,0.22-2.77,0.66-4.1
				c0.23-0.59,0.36-0.94,0.4-1.05c0.03-0.1,0.16-0.35,0.4-0.74c0.16-0.28,0.31-0.53,0.46-0.76c0.15-0.23,0.36-0.49,0.64-0.79
				c0.78-0.94,1.71-1.67,2.79-2.2c0.21-0.09,0.45-0.18,0.73-0.28c0.27-0.09,0.59-0.19,0.93-0.31c0.57-0.09,0.93-0.15,1.07-0.17
				c0.34,0,0.6,0,0.76,0c1.03,0,2.11,0.23,3.24,0.7c1.12,0.47,2.07,1.1,2.86,1.88c0.21,0.21,0.31,0.48,0.31,0.82
				c0,0.21-0.1,0.41-0.31,0.62c-0.21,0.21-0.45,0.33-0.73,0.38c-0.23,0-0.49-0.11-0.77-0.33c-0.28-0.22-0.68-0.49-1.19-0.83
				c-0.5-0.33-0.91-0.59-1.2-0.77c-0.62-0.34-1.41-0.52-2.37-0.52c-1.49,0-2.72,0.47-3.7,1.41c-0.97,0.94-1.65,2.05-2.03,3.34
				c-0.38,1.28-0.57,2.51-0.57,3.68c0,1.51,0.25,2.84,0.76,3.99c0.25,0.55,0.55,1.06,0.89,1.53c0.34,0.47,0.79,0.89,1.34,1.26
				c0.94,0.64,2.1,0.96,3.48,0.96c1.12,0,2.16-0.28,3.1-0.82c0.83-0.52,1.47-1.28,1.93-2.26c0.46-0.98,0.69-2.03,0.69-3.15v-0.55
				V415h-3.29c-0.4,0-0.7-0.1-0.89-0.3c-0.2-0.2-0.3-0.4-0.3-0.61c0-0.23,0.13-0.47,0.4-0.7c0.26-0.23,0.59-0.35,0.98-0.35h3.48
				c0.62,0,1.08,0.19,1.38,0.55C609.1,413.98,609.21,414.41,609.21,414.89z"/>
			<path class="st2" d="M618.79,423.37c0,0.27-0.1,0.52-0.31,0.72c-0.12,0.14-0.33,0.23-0.66,0.27c-0.28,0-0.5-0.08-0.69-0.26
				c-0.18-0.17-0.28-0.42-0.28-0.74v-18.14c0-0.3,0.09-0.52,0.26-0.67c0.17-0.15,0.41-0.23,0.7-0.26c0.28,0,0.51,0.09,0.69,0.26
				c0.19,0.17,0.28,0.4,0.28,0.67V423.37z"/>
			<path class="st2" d="M642.09,423.67c0,0.23-0.07,0.44-0.21,0.62c-0.11,0.09-0.31,0.16-0.61,0.21c-0.16,0-0.38-0.09-0.64-0.28
				c-0.27-0.19-0.45-0.46-0.54-0.83l-1.36-3.19h-9.31l-1.29,3.19c-0.14,0.35-0.34,0.62-0.62,0.82c-0.27,0.19-0.54,0.29-0.79,0.29
				c-0.16,0-0.31-0.07-0.46-0.21c-0.15-0.14-0.22-0.35-0.22-0.62l0.14-0.65l6.27-17.55c0.11-0.34,0.31-0.62,0.59-0.84
				c0.27-0.22,0.56-0.33,0.86-0.33c0.3,0,0.6,0.1,0.92,0.29c0.31,0.2,0.53,0.49,0.67,0.88l6.53,17.55l0.08,0.31V423.67z
				 M637.89,418.03l-3.92-11.09l-3.92,11.09H637.89z"/>
		</g>
	</g>
</g>
</svg>
