<?xml version="1.0" encoding="iso-8859-1"?>
<!-- Generator: Adobe Illustrator 22.0.0, SVG Export Plug-In . SVG Version: 6.00 Build 0)  -->
<svg version="1.1" id="Layer_1" xmlns="http://www.w3.org/2000/svg" xmlns:xlink="http://www.w3.org/1999/xlink" x="0px" y="0px"
	 viewBox="0 0 100 30" style="enable-background:new 0 0 100 30;" xml:space="preserve">
<g>
	<path style="fill:#45A05C;" d="M16.539,4.67v12.024c0.744-0.072,1.398-0.354,1.962-0.846c0.563-0.492,1.044-1.11,1.44-1.854
		c0.396-0.744,0.696-1.566,0.9-2.466c0.204-0.9,0.306-1.806,0.306-2.718c0-0.576-0.066-1.206-0.198-1.89
		c-0.132-0.684-0.409-1.319-0.828-1.908c-0.42-0.588-1.032-1.08-1.836-1.476c-0.805-0.396-1.878-0.594-3.222-0.594
		c-1.08,0-2.064,0.144-2.952,0.432C11.222,3.662,10.455,4.1,9.807,4.688C9.159,5.276,8.654,6.033,8.294,6.956
		c-0.36,0.924-0.54,2.01-0.54,3.258c0,0.648,0.042,1.182,0.126,1.602c0.084,0.42,0.192,0.774,0.324,1.062
		c0.131,0.288,0.27,0.528,0.414,0.72c0.144,0.192,0.275,0.373,0.396,0.54c-1.44,0-2.58-0.336-3.42-1.008
		c-0.841-0.672-1.26-1.728-1.26-3.168c0-1.224,0.293-2.363,0.882-3.42c0.588-1.056,1.392-1.974,2.412-2.754
		c1.02-0.78,2.208-1.392,3.564-1.836c1.356-0.444,2.79-0.666,4.302-0.666c1.463,0,2.795,0.192,3.996,0.576
		c1.2,0.384,2.232,0.93,3.096,1.638c0.864,0.708,1.53,1.561,1.998,2.556c0.469,0.996,0.701,2.106,0.701,3.33
		c0,0.984-0.18,1.992-0.539,3.024c-0.359,1.032-0.9,1.962-1.62,2.79s-1.614,1.507-2.682,2.034c-1.068,0.528-2.31,0.792-3.726,0.792
		h-0.18v10.26h-5.184V5.39L16.539,4.67z"/>
	<path style="fill:#45A05C;" d="M40.875,10.286v12.24c0,1.008,0.138,1.674,0.414,1.998c0.275,0.324,0.761,0.486,1.458,0.486
		c0.695,0,1.277-0.3,1.745-0.9c0.469-0.6,0.738-1.355,0.811-2.268h1.512c-0.192,1.464-0.528,2.634-1.008,3.51
		c-0.48,0.876-1.021,1.548-1.62,2.016c-0.601,0.468-1.212,0.774-1.836,0.918c-0.624,0.145-1.176,0.216-1.656,0.216
		c-1.272,0-2.238-0.293-2.897-0.882c-0.661-0.588-1.122-1.397-1.387-2.43c-0.192,0.408-0.42,0.81-0.684,1.206
		c-0.265,0.396-0.582,0.75-0.954,1.062c-0.372,0.313-0.805,0.564-1.296,0.757c-0.492,0.191-1.062,0.287-1.71,0.287
		c-0.769,0-1.524-0.144-2.268-0.432c-0.744-0.288-1.423-0.756-2.034-1.404c-0.612-0.647-1.104-1.506-1.477-2.573
		c-0.372-1.068-0.558-2.382-0.558-3.942c0-1.104,0.126-2.244,0.378-3.42s0.648-2.256,1.188-3.24c0.539-0.984,1.247-1.794,2.123-2.43
		c0.876-0.636,1.938-0.954,3.187-0.954c0.288,0,0.6,0.018,0.936,0.054s0.66,0.12,0.973,0.252c0.312,0.132,0.6,0.324,0.863,0.576
		c0.265,0.252,0.469,0.594,0.612,1.026v-1.728H40.875z M35.69,13.742c-0.024-0.096-0.072-0.222-0.144-0.378
		c-0.072-0.156-0.181-0.312-0.324-0.468c-0.145-0.156-0.324-0.288-0.54-0.396s-0.468-0.162-0.756-0.162
		c-0.576,0-1.074,0.247-1.494,0.738c-0.42,0.492-0.756,1.104-1.008,1.836c-0.252,0.732-0.438,1.536-0.559,2.412
		c-0.12,0.877-0.18,1.71-0.18,2.502c0,1.272,0.096,2.263,0.288,2.97c0.191,0.709,0.426,1.225,0.702,1.549
		c0.275,0.323,0.569,0.516,0.882,0.575c0.312,0.061,0.576,0.091,0.792,0.091c0.264,0,0.534-0.066,0.81-0.198
		c0.276-0.132,0.528-0.33,0.757-0.594c0.228-0.265,0.414-0.595,0.558-0.99c0.144-0.396,0.216-0.858,0.216-1.386V13.742z"/>
	<path style="fill:#45A05C;" d="M50.162,10.286v2.232c0.527-0.624,1.117-1.182,1.764-1.674c0.648-0.492,1.356-0.738,2.124-0.738
		c0.456,0,0.87,0.096,1.242,0.288c0.372,0.192,0.696,0.444,0.972,0.756c0.276,0.313,0.492,0.654,0.648,1.026s0.234,0.75,0.234,1.134
		c0,0.528-0.162,1.014-0.486,1.458c-0.324,0.444-0.858,0.666-1.602,0.666c-0.553,0-0.937-0.12-1.152-0.36
		c-0.216-0.24-0.385-0.498-0.504-0.774c-0.12-0.276-0.247-0.534-0.378-0.774c-0.133-0.24-0.366-0.36-0.702-0.36
		c-0.36,0-0.715,0.139-1.063,0.414c-0.348,0.276-0.714,0.618-1.098,1.026v13.68h-5.184v-18H50.162z"/>
	<path style="fill:#45A05C;" d="M63.698,10.286v2.232c0.527-0.624,1.116-1.182,1.764-1.674c0.648-0.492,1.356-0.738,2.124-0.738
		c0.456,0,0.87,0.096,1.242,0.288c0.372,0.192,0.696,0.444,0.972,0.756c0.276,0.313,0.492,0.654,0.648,1.026s0.234,0.75,0.234,1.134
		c0,0.528-0.162,1.014-0.486,1.458c-0.324,0.444-0.858,0.666-1.602,0.666c-0.553,0-0.937-0.12-1.152-0.36
		c-0.216-0.24-0.385-0.498-0.504-0.774c-0.12-0.276-0.247-0.534-0.378-0.774c-0.133-0.24-0.366-0.36-0.702-0.36
		c-0.36,0-0.715,0.139-1.063,0.414c-0.348,0.276-0.714,0.618-1.098,1.026v13.68h-5.184v-18H63.698z"/>
	<path style="fill:#45A05C;" d="M79.142,10.106c1.656,0,2.976,0.45,3.96,1.35c0.983,0.9,1.62,2.346,1.908,4.338h0.252
		c0.336,0,0.714-0.06,1.134-0.18s0.857-0.276,1.313-0.468c0.456-0.192,0.9-0.419,1.332-0.684c0.433-0.264,0.816-0.54,1.152-0.828
		l0.54,0.972c-0.265,0.384-0.594,0.732-0.99,1.044c-0.396,0.313-0.846,0.594-1.35,0.846s-1.032,0.469-1.584,0.648
		c-0.553,0.18-1.104,0.318-1.656,0.414c0.023,0.168,0.036,0.33,0.036,0.485c0,0.157,0,0.318,0,0.486c0,1.393-0.12,2.694-0.36,3.906
		s-0.642,2.268-1.206,3.168c-0.563,0.899-1.29,1.608-2.178,2.124c-0.888,0.517-1.979,0.773-3.276,0.773
		c-0.888,0-1.733-0.138-2.537-0.414c-0.805-0.275-1.519-0.731-2.143-1.367s-1.122-1.477-1.494-2.521s-0.558-2.322-0.558-3.834
		c0-1.031,0.108-2.142,0.324-3.33c0.216-1.188,0.611-2.298,1.188-3.33c0.576-1.032,1.362-1.89,2.358-2.574
		C76.303,10.448,77.581,10.106,79.142,10.106z M79.178,25.118c0.504,0,0.941-0.174,1.313-0.521s0.678-0.828,0.918-1.44
		s0.414-1.338,0.522-2.178c0.107-0.84,0.162-1.752,0.162-2.736v-0.54c-0.601-0.119-0.984-0.348-1.152-0.684
		s-0.252-0.708-0.252-1.116c0-0.504,0.084-0.888,0.252-1.152c0.168-0.264,0.384-0.444,0.648-0.54
		c-0.265-0.815-0.583-1.344-0.954-1.584c-0.373-0.239-0.69-0.36-0.954-0.36c-0.528,0-0.979,0.247-1.351,0.738
		c-0.372,0.492-0.678,1.116-0.918,1.872c-0.24,0.756-0.414,1.591-0.521,2.502c-0.108,0.913-0.162,1.789-0.162,2.629
		c0,1.079,0.077,1.956,0.234,2.628c0.155,0.672,0.354,1.188,0.594,1.548c0.239,0.359,0.504,0.606,0.792,0.737
		C78.638,25.053,78.913,25.118,79.178,25.118z"/>
	<path style="fill:#45A05C;" d="M93.181,4.598v5.688h2.16v1.44h-2.16v10.8c0,1.008,0.139,1.674,0.414,1.998
		c0.276,0.324,0.762,0.486,1.458,0.486c0.265,0,0.474-0.03,0.631-0.091c0.155-0.06,0.281-0.126,0.378-0.197
		c0.023,0.12,0.035,0.246,0.035,0.378s0,0.258,0,0.378c0,1.008-0.294,1.764-0.882,2.268s-1.326,0.756-2.214,0.756
		c-1.849,0-3.145-0.509-3.888-1.529c-0.744-1.021-1.116-2.37-1.116-4.05V11.726h-1.152v-1.44h1.152V5.318L93.181,4.598z"/>
</g>
</svg>
