<?xml version="1.0" encoding="utf-8"?>
<!-- Generator: Adobe Illustrator 23.0.3, SVG Export Plug-In . SVG Version: 6.00 Build 0)  -->
<svg version="1.1" id="Layer_1" xmlns="http://www.w3.org/2000/svg" xmlns:xlink="http://www.w3.org/1999/xlink" x="0px" y="0px"
	 viewBox="0 0 841.89 595.28" style="enable-background:new 0 0 841.89 595.28;" xml:space="preserve">
<style type="text/css">
	.st0{fill:#5C89C7;}
</style>
<g>
	<g>
		<path class="st0" d="M193.12,391.59h26.22c3.05,0,6.11,0.21,9.19,0.65c3.08,0.43,5.84,1.29,8.29,2.58
			c2.45,1.29,4.43,3.09,5.96,5.41c1.52,2.32,2.28,5.4,2.28,9.24c0,3.97-1.11,7.27-3.33,9.88c-2.22,2.62-5.15,4.49-8.79,5.61v0.2
			c2.32,0.33,4.42,0.98,6.31,1.94c1.89,0.96,3.51,2.18,4.87,3.68c1.36,1.49,2.4,3.23,3.13,5.21c0.73,1.98,1.09,4.11,1.09,6.36
			c0,3.71-0.79,6.8-2.38,9.29c-1.59,2.48-3.64,4.49-6.16,6.01c-2.52,1.53-5.35,2.62-8.49,3.28c-3.15,0.66-6.27,0.99-9.39,0.99h-28.8
			V391.59z M208.62,419.69h11.22c1.19,0,2.37-0.13,3.53-0.4c1.16-0.26,2.2-0.69,3.13-1.29c0.93-0.6,1.67-1.39,2.23-2.38
			c0.56-0.99,0.84-2.18,0.84-3.58c0-1.45-0.31-2.66-0.94-3.63c-0.63-0.96-1.44-1.7-2.43-2.23c-0.99-0.53-2.12-0.91-3.38-1.14
			c-1.26-0.23-2.48-0.35-3.67-0.35h-10.53V419.69z M208.62,448.79h13.9c1.19,0,2.4-0.13,3.63-0.4c1.23-0.26,2.33-0.73,3.33-1.39
			c0.99-0.66,1.8-1.52,2.43-2.58c0.63-1.06,0.94-2.35,0.94-3.87c0-1.65-0.41-2.99-1.24-4.02c-0.83-1.02-1.87-1.8-3.13-2.33
			c-1.26-0.53-2.62-0.89-4.07-1.09c-1.46-0.2-2.82-0.3-4.07-0.3h-11.72V448.79z"/>
		<path class="st0" d="M254.8,386.82h14.9v75.08h-14.9V386.82z"/>
		<path class="st0" d="M277.64,437.77c0-3.84,0.7-7.31,2.09-10.43c1.39-3.11,3.29-5.78,5.71-7.99c2.42-2.22,5.26-3.92,8.54-5.11
			c3.28-1.19,6.77-1.79,10.48-1.79c3.71,0,7.2,0.6,10.48,1.79c3.28,1.19,6.12,2.9,8.54,5.11c2.42,2.22,4.32,4.89,5.71,7.99
			c1.39,3.11,2.09,6.59,2.09,10.43c0,3.84-0.7,7.32-2.09,10.43c-1.39,3.11-3.29,5.78-5.71,7.99c-2.42,2.22-5.26,3.92-8.54,5.11
			c-3.28,1.19-6.77,1.79-10.48,1.79c-3.71,0-7.2-0.6-10.48-1.79c-3.28-1.19-6.12-2.9-8.54-5.11c-2.42-2.22-4.32-4.88-5.71-7.99
			C278.33,445.09,277.64,441.61,277.64,437.77z M292.53,437.77c0,3.64,1.04,6.59,3.13,8.84c2.09,2.25,5.02,3.38,8.79,3.38
			c3.77,0,6.7-1.13,8.79-3.38c2.08-2.25,3.13-5.2,3.13-8.84c0-3.64-1.04-6.59-3.13-8.84c-2.09-2.25-5.02-3.38-8.79-3.38
			c-3.77,0-6.7,1.13-8.79,3.38C293.58,431.18,292.53,434.13,292.53,437.77z"/>
		<path class="st0" d="M371.69,429.23c-0.73-1.06-1.75-1.94-3.08-2.63c-1.33-0.7-2.75-1.04-4.27-1.04c-3.77,0-6.7,1.13-8.79,3.38
			c-2.08,2.25-3.13,5.2-3.13,8.84c0,3.64,1.04,6.59,3.13,8.84c2.09,2.25,5.02,3.38,8.79,3.38c1.65,0,3.08-0.36,4.27-1.09
			c1.19-0.73,2.22-1.59,3.08-2.58l9.83,10.33c-2.32,2.38-5.05,4.06-8.19,5.02c-3.15,0.96-6.14,1.44-8.99,1.44
			c-3.71,0-7.2-0.6-10.48-1.79c-3.28-1.19-6.12-2.9-8.54-5.11c-2.42-2.22-4.32-4.88-5.71-7.99c-1.39-3.11-2.09-6.59-2.09-10.43
			c0-3.84,0.7-7.31,2.09-10.43c1.39-3.11,3.29-5.78,5.71-7.99c2.42-2.22,5.26-3.92,8.54-5.11c3.28-1.19,6.77-1.79,10.48-1.79
			c2.85,0,5.84,0.48,8.99,1.44c3.14,0.96,5.88,2.63,8.19,5.02L371.69,429.23z"/>
		<path class="st0" d="M385.89,386.82h14.9v45.88l16.49-19.07h18.27l-19.17,21.75l19.66,26.52h-18.77l-16.29-24.43h-0.2v24.43h-14.9
			V386.82z"/>
		<path class="st0" d="M442,391.59h26.22c3.05,0,6.11,0.21,9.19,0.65c3.08,0.43,5.84,1.29,8.29,2.58c2.45,1.29,4.43,3.09,5.96,5.41
			c1.52,2.32,2.28,5.4,2.28,9.24c0,3.97-1.11,7.27-3.33,9.88c-2.22,2.62-5.15,4.49-8.79,5.61v0.2c2.32,0.33,4.42,0.98,6.31,1.94
			c1.89,0.96,3.51,2.18,4.87,3.68c1.36,1.49,2.4,3.23,3.13,5.21c0.73,1.98,1.09,4.11,1.09,6.36c0,3.71-0.79,6.8-2.38,9.29
			c-1.59,2.48-3.64,4.49-6.16,6.01c-2.52,1.53-5.35,2.62-8.49,3.28c-3.15,0.66-6.27,0.99-9.39,0.99H442V391.59z M457.49,419.69
			h11.22c1.19,0,2.37-0.13,3.53-0.4c1.16-0.26,2.2-0.69,3.13-1.29c0.93-0.6,1.67-1.39,2.23-2.38c0.56-0.99,0.84-2.18,0.84-3.58
			c0-1.45-0.31-2.66-0.94-3.63c-0.63-0.96-1.44-1.7-2.43-2.23c-0.99-0.53-2.12-0.91-3.38-1.14c-1.26-0.23-2.48-0.35-3.67-0.35
			h-10.53V419.69z M457.49,448.79h13.9c1.19,0,2.4-0.13,3.63-0.4c1.23-0.26,2.33-0.73,3.33-1.39c0.99-0.66,1.8-1.52,2.43-2.58
			c0.63-1.06,0.94-2.35,0.94-3.87c0-1.65-0.41-2.99-1.24-4.02c-0.83-1.02-1.87-1.8-3.13-2.33c-1.26-0.53-2.62-0.89-4.07-1.09
			c-1.46-0.2-2.82-0.3-4.07-0.3h-11.72V448.79z"/>
		<path class="st0" d="M533.76,455.84h-0.2c-1.65,2.58-3.86,4.44-6.6,5.56c-2.75,1.13-5.65,1.69-8.69,1.69
			c-2.25,0-4.42-0.31-6.51-0.94c-2.09-0.63-3.92-1.57-5.51-2.83c-1.59-1.26-2.85-2.81-3.77-4.67c-0.93-1.85-1.39-4.01-1.39-6.46
			c0-2.78,0.51-5.13,1.54-7.05c1.03-1.92,2.42-3.51,4.17-4.77c1.75-1.26,3.76-2.23,6.01-2.93c2.25-0.69,4.58-1.21,7-1.54
			c2.42-0.33,4.83-0.53,7.25-0.6c2.42-0.07,4.65-0.1,6.7-0.1c0-2.65-0.94-4.75-2.83-6.31c-1.89-1.55-4.12-2.33-6.7-2.33
			c-2.45,0-4.68,0.51-6.7,1.54c-2.02,1.03-3.82,2.43-5.41,4.22l-7.95-8.14c2.78-2.58,6.03-4.52,9.73-5.81
			c3.71-1.29,7.55-1.94,11.52-1.94c4.37,0,7.96,0.55,10.78,1.64c2.81,1.09,5.06,2.7,6.75,4.82s2.86,4.72,3.53,7.79
			c0.66,3.08,0.99,6.64,0.99,10.68v24.53h-13.71V455.84z M530.09,440.75c-1.13,0-2.53,0.05-4.22,0.15c-1.69,0.1-3.31,0.38-4.87,0.85
			c-1.56,0.46-2.88,1.16-3.97,2.08c-1.09,0.93-1.64,2.22-1.64,3.87c0,1.79,0.76,3.11,2.28,3.97c1.52,0.86,3.11,1.29,4.77,1.29
			c1.45,0,2.86-0.2,4.22-0.6c1.35-0.4,2.56-0.96,3.62-1.69c1.06-0.73,1.9-1.65,2.53-2.78c0.63-1.13,0.94-2.45,0.94-3.97v-3.18
			H530.09z"/>
		<path class="st0" d="M583.12,427.84c-2.18-2.71-5.07-4.07-8.64-4.07c-1.26,0-2.48,0.3-3.68,0.89s-1.79,1.62-1.79,3.08
			c0,1.19,0.61,2.07,1.84,2.63c1.23,0.56,2.78,1.06,4.67,1.49c1.89,0.43,3.91,0.9,6.06,1.39c2.15,0.5,4.17,1.28,6.06,2.33
			s3.44,2.5,4.67,4.32c1.23,1.82,1.84,4.26,1.84,7.3c0,3.11-0.68,5.68-2.03,7.7c-1.36,2.02-3.1,3.64-5.21,4.87
			c-2.12,1.23-4.5,2.08-7.15,2.58c-2.65,0.5-5.26,0.74-7.84,0.74c-3.38,0-6.79-0.48-10.23-1.44c-3.44-0.96-6.36-2.66-8.74-5.11
			l9.04-10.03c1.39,1.72,2.93,3.03,4.62,3.92c1.69,0.89,3.66,1.34,5.91,1.34c1.72,0,3.28-0.25,4.67-0.74
			c1.39-0.5,2.09-1.41,2.09-2.73c0-1.26-0.61-2.2-1.84-2.83c-1.23-0.63-2.78-1.16-4.67-1.59c-1.89-0.43-3.91-0.89-6.06-1.39
			c-2.15-0.5-4.17-1.24-6.06-2.23c-1.89-0.99-3.44-2.4-4.67-4.22c-1.23-1.82-1.84-4.25-1.84-7.3c0-2.85,0.58-5.3,1.74-7.35
			c1.16-2.05,2.68-3.74,4.57-5.06c1.89-1.33,4.06-2.3,6.51-2.93c2.45-0.63,4.93-0.94,7.45-0.94c3.18,0,6.39,0.46,9.63,1.39
			c3.24,0.93,5.99,2.58,8.24,4.97L583.12,427.84z"/>
		<path class="st0" d="M646.48,453.56c-2.38,3.05-5.4,5.4-9.04,7.05c-3.64,1.65-7.42,2.48-11.32,2.48c-3.71,0-7.2-0.6-10.48-1.79
			c-3.28-1.19-6.12-2.9-8.54-5.11c-2.42-2.22-4.32-4.88-5.71-7.99c-1.39-3.11-2.09-6.59-2.09-10.43c0-3.84,0.7-7.31,2.09-10.43
			c1.39-3.11,3.29-5.78,5.71-7.99c2.42-2.22,5.26-3.92,8.54-5.11c3.28-1.19,6.77-1.79,10.48-1.79c3.44,0,6.57,0.6,9.39,1.79
			c2.81,1.19,5.2,2.9,7.15,5.11c1.95,2.22,3.46,4.89,4.52,7.99c1.06,3.11,1.59,6.59,1.59,10.43v4.67H614.2
			c0.6,2.85,1.89,5.11,3.87,6.8c1.99,1.69,4.43,2.53,7.35,2.53c2.45,0,4.52-0.55,6.21-1.64c1.69-1.09,3.16-2.5,4.42-4.22
			L646.48,453.56z M633.87,432.31c0.07-2.52-0.76-4.67-2.48-6.46c-1.72-1.79-3.94-2.68-6.66-2.68c-1.65,0-3.11,0.27-4.37,0.8
			c-1.26,0.53-2.33,1.21-3.23,2.04c-0.89,0.83-1.59,1.79-2.09,2.88c-0.5,1.09-0.78,2.23-0.84,3.43H633.87z"/>
	</g>
	<g>
		<g>
			<path class="st0" d="M507.42,283.33c0,35.3-31,63.77-81.03,63.77H330.1V243.04h93.01c30.67,0,49.87,16.65,49.87,38.58
				c0,19.36-14.43,37.3-45.93,37.3h-62.5v-47.69h13.78v35.73h48.72c22.96,0,32.15-11.82,32.15-25.34
				c0-13.95-11.32-26.62-36.09-26.62h-79.23v80.14h82.51c43.63,0,67.25-24.2,67.25-51.82c0-26.62-14.93-42.28-37.24-50.54
				c10.66-7.26,24.11-18.93,24.11-43.13c0-22.35-22.96-43.85-62.33-43.85h-74.31V215h74.14c19.19,0,28.71-7.97,28.71-22.78
				c0-12.1-12.8-18.22-31.17-18.22h-37.23v24.77h-13.78v-36.73h51.01c33.14,0,44.95,15.94,44.95,30.18
				c0,22.21-16.24,34.73-43.8,34.73H330.1v-93.1h88.09c47.57,0,76.11,27.33,76.11,55.8c0,14.66-4.76,29.47-15.25,40.71
				C497.08,241.9,507.42,259.41,507.42,283.33z"/>
			<path class="st0" d="M426.39,348.78h-97.97V241.37h94.68c30.35,0,51.54,16.55,51.54,40.25c0,17.98-12.47,38.97-47.61,38.97
				h-64.17v-51.04H380v35.73h47.04c19.37,0,30.48-8.63,30.48-23.67c0-11.51-9.01-24.94-34.41-24.94h-77.55v76.8h80.83
				c31.58,0,65.57-15.69,65.57-50.14c0-23.61-12.16-40.09-36.14-48.96l-3.05-1.13l2.69-1.83c10.89-7.41,23.38-18.85,23.38-41.74
				c0-20.44-21.26-42.17-60.66-42.17h-72.63v65.83h72.47c17.93,0,27.03-7.1,27.03-21.1c0-10.36-11.02-16.54-29.49-16.54H380v24.77
				h-17.13v-40.08h52.69c34.42,0,46.62,17.16,46.62,31.85c0,23.14-16.58,36.41-45.48,36.41h-88.29v-96.45h89.76
				c50.53,0,77.79,29.61,77.79,57.48c0,15.42-5.09,29.68-14.38,40.38c18.26,12.34,27.5,30.25,27.5,53.28
				C509.1,321.86,475.08,348.78,426.39,348.78z M331.77,345.42h94.61c46.72,0,79.36-25.53,79.36-62.1
				c0-22.49-9.29-39.84-27.61-51.54l-1.7-1.08l1.38-1.47c9.55-10.23,14.8-24.28,14.8-39.57c0-26.24-26.09-54.12-74.43-54.12h-86.41
				v89.74h84.93c26.77,0,42.12-12.05,42.12-33.06c0-13.78-11.37-28.5-43.27-28.5h-49.34v33.37h10.42v-24.77h38.91
				c20.56,0,32.84,7.44,32.84,19.9c0,11.16-5.27,24.45-30.38,24.45H342.2v-72.54h75.99c41.57,0,64.01,23.46,64.01,45.52
				c0,22.67-11.39,34.78-22.27,42.7c23.49,9.66,35.39,26.78,35.39,50.96c0,36.75-35.73,53.5-68.93,53.5H342.2v-83.5h80.91
				c27.87,0,37.77,15.24,37.77,28.3c0,16.92-12.65,27.02-33.83,27.02h-50.39v-35.73h-10.42v44.33h60.82
				c32.66,0,44.25-19.19,44.25-35.62c0-21.73-19.82-36.9-48.19-36.9h-91.33V345.42z"/>
		</g>
	</g>
</g>
</svg>
