<?xml version="1.0" encoding="utf-8"?>
<!-- Generator: Adobe Illustrator 23.0.3, SVG Export Plug-In . SVG Version: 6.00 Build 0)  -->
<svg version="1.1" id="Calque_1" xmlns="http://www.w3.org/2000/svg" xmlns:xlink="http://www.w3.org/1999/xlink" x="0px" y="0px"
	 viewBox="0 0 287.83 126.09" style="enable-background:new 0 0 287.83 126.09;" xml:space="preserve">
<style type="text/css">
	.st0{fill:#003A70;}
	.st1{fill:#F5A800;}
</style>
<g>
	<path class="st0" d="M19.68,62.75c0,5.16,3.18,8.7,7.71,8.7c2.4,0,4.81-0.85,7.35-2.97V54.13c-2.33-0.21-4.45-0.35-6.93-0.35
		C22.23,53.77,19.68,57.52,19.68,62.75 M46.27,46.21v33.66H34.74v-2.33c-2.69,2.12-5.72,3.4-9.9,3.4c-8.28,0-16.27-6.44-16.27-18.38
		c0.29-10.82,6.58-18.04,17.18-18.04C32.27,44.51,35.88,45.01,46.27,46.21"/>
	<path class="st0" d="M103.27,62.75c0,5.16,3.18,8.7,7.71,8.7c2.41,0,4.81-0.85,7.36-2.97V54.13c-2.33-0.21-4.46-0.35-6.93-0.35
		C105.82,53.77,103.27,57.52,103.27,62.75 M129.86,46.21v33.66h-11.53v-2.33c-2.69,2.12-5.73,3.4-9.9,3.4
		c-8.27,0-16.26-6.44-16.26-18.38c0.28-10.82,6.58-18.04,17.18-18.04C115.86,44.51,119.47,45.01,129.86,46.21"/>
	<path class="st1" d="M179.53,83.35v-7.78l15.84-14.71c4.45-4.03,6.72-6.43,6.72-9.54c0-4.53-3.18-6.51-7.85-6.51
		c-2.47,0-6.43,0.5-12.87,2.62l-2.48-9.83c5.66-2.05,11.81-3.39,17.25-3.39c12.3,0,17.75,7.14,17.75,15.41
		c0,7.14-4.81,12.51-11.17,18.24l-6.29,5.23h18.1v10.26H179.53z"/>
	<path class="st0" d="M76.63,70.53c-3.54,0.49-5.52,0.49-7.36,0.49c-4.52,0-7.71-3.61-7.71-8.27c0-5.23,2.47-8.98,8.13-8.98
		c2.47,0,4.6,0.14,6.93,0.35V70.53z M67.64,44.51c-10.68,0-16.97,7.21-17.18,18.04c0,10.45,6.66,16.71,14.49,17.72
		c0.52,0.06,1.32,0.12,2.3,0.16c0.9,0,1.75,0,2.58-0.01c2.62-0.12,5.48-0.66,6.87-2.27c0.02,1.47-0.09,2.63-0.26,3.59
		c-0.03,0.18-0.06,0.37-0.1,0.54c-0.12,0.58-0.26,1.04-0.4,1.42c-0.01,0.04-0.02,0.07-0.04,0.1c-0.29,0.77-0.57,1.12-0.57,1.12
		c-1.44,2.42-4.09,3.71-8.05,3.71c-2.97,0-6.44-0.71-10.4-1.41l-1.62,8.77c4.17,1.27,8.63,2.12,12.44,2.12
		c13.5,0,20.43-7.36,20.43-18.74V46.21C80.58,45.43,76.55,44.51,67.64,44.51"/>
	<path class="st0" d="M154.08,71.03c-1.84,0-3.89,0-7.43-0.49v-16.4c2.41-0.21,4.45-0.35,7-0.35c5.66,0,8.13,3.75,8.13,8.98
		C161.79,67.42,158.61,71.03,154.08,71.03 M155.64,44.51c-6.5,0-12.44,0.64-20.43,1.7v49.57h11.46V84.52v-4.44v-2.39
		c0,0,2.18,2.65,10.04,2.71c8.54-0.27,16.12-6.66,16.12-17.86C172.46,51.72,166.32,44.51,155.64,44.51"/>
</g>
<g>
	<path class="st0" d="M238.62,79.66h-12.17V44.29h12.17V79.66z"/>
	<path class="st0" d="M265.43,79.66h-12.17V54.7H242.7v-10.4h33.29v10.4h-10.56V79.66z"/>
</g>
</svg>
