<?xml version="1.0" encoding="iso-8859-1"?>
<!-- Generator: Adobe Illustrator 22.0.0, SVG Export Plug-In . SVG Version: 6.00 Build 0)  -->
<svg version="1.1" id="Layer_1" xmlns="http://www.w3.org/2000/svg" xmlns:xlink="http://www.w3.org/1999/xlink" x="0px" y="0px"
	 viewBox="0 0 100 30" style="enable-background:new 0 0 100 30;" xml:space="preserve">
<g>
	<path style="fill:#50A1D9;" d="M13.573,4.007c0-0.835,0.28-1.539,0.841-2.111c0.56-0.571,1.303-0.857,2.226-0.857
		c0.924,0,1.666,0.286,2.226,0.857c0.56,0.572,0.841,1.275,0.841,2.111c0,0.836-0.28,1.539-0.841,2.111
		c-0.56,0.572-1.303,0.857-2.226,0.857c-0.923,0-1.665-0.286-2.226-0.857C13.853,5.546,13.573,4.843,13.573,4.007z"/>
	<path style="fill:#50A1D9;" d="M39.593,15.099c0,1.364-0.209,2.578-0.627,3.644c-0.418,1.067-1.006,1.962-1.764,2.688
		c-0.759,0.726-1.666,1.275-2.721,1.649c-1.055,0.374-2.232,0.561-3.529,0.561c-1.297,0-2.473-0.198-3.529-0.594
		c-1.055-0.395-1.962-0.961-2.72-1.698c-0.759-0.736-1.347-1.633-1.765-2.688c-0.418-1.055-0.626-2.243-0.626-3.562
		c0-1.297,0.208-2.473,0.626-3.529c0.418-1.055,1.006-1.951,1.765-2.688c0.759-0.736,1.665-1.303,2.72-1.698
		c1.056-0.396,2.232-0.594,3.529-0.594c1.297,0,2.474,0.204,3.529,0.61c1.055,0.407,1.962,0.979,2.721,1.715
		c0.759,0.737,1.346,1.632,1.764,2.688C39.383,12.658,39.593,13.824,39.593,15.099z M28.05,15.099c0,1.341,0.258,2.369,0.775,3.083
		c0.516,0.715,1.237,1.072,2.16,1.072s1.633-0.363,2.127-1.088c0.495-0.726,0.742-1.748,0.742-3.067c0-1.319-0.253-2.336-0.758-3.05
		c-0.506-0.714-1.22-1.072-2.144-1.072c-0.923,0-1.638,0.358-2.143,1.072C28.303,12.763,28.05,13.779,28.05,15.099z"/>
	<path style="fill:#50A1D9;" d="M42.396,1.643c0.22-0.066,0.572-0.137,1.056-0.214c0.483-0.077,0.978-0.115,1.484-0.115
		c0.484,0,0.918,0.033,1.303,0.099c0.384,0.066,0.709,0.198,0.973,0.396c0.263,0.198,0.462,0.467,0.594,0.808
		c0.132,0.341,0.198,0.786,0.198,1.336v3.232c0.549-0.22,1.072-0.374,1.566-0.462c0.495-0.087,1.039-0.132,1.633-0.132
		c1.055,0,2.055,0.187,3.001,0.56c0.945,0.374,1.781,0.918,2.506,1.632c0.726,0.715,1.297,1.6,1.715,2.655
		c0.417,1.055,0.627,2.275,0.627,3.661c0,1.429-0.214,2.677-0.643,3.743c-0.429,1.067-1.028,1.952-1.797,2.655
		c-0.77,0.704-1.71,1.236-2.82,1.599s-2.336,0.544-3.677,0.544c-1.451,0-2.683-0.171-3.694-0.511
		c-1.011-0.34-1.869-0.764-2.572-1.27c-0.968-0.681-1.451-1.561-1.451-2.638V1.643z M50.113,19.221c1.011,0,1.797-0.346,2.358-1.039
		c0.561-0.692,0.841-1.72,0.841-3.083c0-1.385-0.286-2.418-0.857-3.1c-0.572-0.681-1.341-1.022-2.309-1.022
		c-0.44,0-0.819,0.044-1.137,0.132c-0.319,0.088-0.665,0.22-1.039,0.396v7.189c0.242,0.154,0.533,0.28,0.874,0.379
		C49.184,19.171,49.607,19.221,50.113,19.221z"/>
	<path style="fill:#50A1D9;" d="M75.309,18.33c0,1.671-0.626,2.979-1.88,3.924s-3.1,1.418-5.54,1.418
		c-0.924,0-1.781-0.066-2.572-0.198c-0.792-0.132-1.468-0.335-2.029-0.61c-0.56-0.275-1.001-0.621-1.319-1.039
		c-0.319-0.417-0.478-0.912-0.478-1.484c0-0.528,0.11-0.973,0.33-1.336c0.219-0.363,0.483-0.665,0.791-0.907
		c0.637,0.352,1.369,0.665,2.193,0.94c0.824,0.275,1.775,0.412,2.852,0.412c0.681,0,1.204-0.099,1.567-0.297
		c0.363-0.198,0.544-0.462,0.544-0.792c0-0.308-0.132-0.549-0.396-0.726c-0.264-0.176-0.704-0.318-1.319-0.429l-0.989-0.198
		c-1.913-0.374-3.336-0.962-4.27-1.764c-0.935-0.802-1.402-1.951-1.402-3.446c0-0.813,0.176-1.55,0.528-2.21
		c0.351-0.66,0.846-1.209,1.484-1.649c0.637-0.439,1.401-0.78,2.292-1.022c0.89-0.242,1.874-0.363,2.951-0.363
		c0.813,0,1.578,0.061,2.292,0.181c0.714,0.121,1.336,0.303,1.863,0.544c0.528,0.242,0.945,0.556,1.253,0.94
		c0.307,0.385,0.462,0.841,0.462,1.369c0,0.506-0.094,0.94-0.28,1.303c-0.187,0.363-0.424,0.665-0.709,0.907
		c-0.176-0.11-0.44-0.225-0.791-0.346c-0.352-0.121-0.737-0.231-1.154-0.33c-0.418-0.099-0.841-0.181-1.269-0.247
		c-0.429-0.066-0.819-0.099-1.171-0.099c-0.726,0-1.286,0.083-1.682,0.247c-0.396,0.165-0.594,0.424-0.594,0.775
		c0,0.242,0.11,0.44,0.33,0.594c0.22,0.154,0.637,0.297,1.253,0.429l1.022,0.231c2.111,0.484,3.612,1.149,4.502,1.995
		C74.864,15.896,75.309,16.99,75.309,18.33z"/>
	<path style="fill:#50A1D9;" d="M80.024,19.023c-0.242-0.549-0.5-1.165-0.775-1.847c-0.276-0.681-0.561-1.462-0.857-2.341
		c-0.297-0.879-0.605-1.885-0.924-3.018c-0.319-1.132-0.654-2.435-1.006-3.908c0.307-0.308,0.72-0.577,1.236-0.808
		c0.517-0.231,1.083-0.346,1.698-0.346c0.769,0,1.407,0.16,1.913,0.478c0.505,0.319,0.879,0.918,1.121,1.797l2.606,9.069h0.132
		c0.264-0.747,0.522-1.561,0.775-2.44c0.253-0.879,0.5-1.786,0.742-2.721c0.242-0.934,0.467-1.868,0.676-2.803
		c0.208-0.934,0.39-1.852,0.544-2.754c0.792-0.417,1.66-0.626,2.606-0.626c0.769,0,1.407,0.165,1.913,0.495
		c0.505,0.33,0.759,0.902,0.759,1.715c0,0.594-0.077,1.281-0.231,2.061c-0.154,0.781-0.358,1.611-0.61,2.49
		c-0.253,0.88-0.55,1.787-0.891,2.721c-0.341,0.935-0.698,1.853-1.072,2.754c-0.374,0.902-0.759,1.754-1.154,2.556
		c-0.395,0.802-0.781,1.523-1.154,2.16c-0.616,1.077-1.187,1.957-1.715,2.638c-0.528,0.681-1.034,1.215-1.517,1.6
		c-0.484,0.385-0.968,0.648-1.451,0.792c-0.484,0.143-0.989,0.214-1.517,0.214c-0.923,0-1.671-0.275-2.243-0.824
		c-0.572-0.55-0.912-1.265-1.022-2.144c0.703-0.55,1.407-1.16,2.11-1.83c0.704-0.671,1.341-1.357,1.913-2.061
		c-0.374-0.11-0.775-0.368-1.204-0.775C80.997,20.909,80.53,20.144,80.024,19.023z"/>
	<path style="fill:#50A1D9;" d="M6.817,23.005c0-0.835,0.28-1.539,0.841-2.111c0.56-0.571,1.303-0.857,2.226-0.857
		c0.924,0,1.666,0.286,2.226,0.857c0.56,0.572,0.841,1.275,0.841,2.111c0,0.836-0.28,1.539-0.841,2.111
		c-0.56,0.572-1.303,0.857-2.226,0.857c-0.923,0-1.665-0.286-2.226-0.857C7.097,24.544,6.817,23.841,6.817,23.005z"/>
	<path style="fill:#50A1D9;" d="M19.49,7.496c0-0.329-0.48-0.069-0.797,0.082c-0.601,0.266-1.283,0.404-2.053,0.404
		c-1.018,0-1.888-0.234-2.611-0.7c-0.133-0.087-0.192-0.049-0.192,0.034c0,0,0.05,13.821,0,15.331
		c-0.041,1.248-0.33,2.298-1.081,3.228c-0.301,0.372-1.002,1.031-2.705,1.131c0.229,0.496,0.641,1.031,1.028,1.305
		c0.842,0.594,2.445,0.69,3.223,0.639c0.724-0.047,1.805-0.149,2.388-0.445c0.582-0.297,1.077-0.715,1.484-1.253
		c0.407-0.539,0.72-1.182,0.94-1.929c0.22-0.748,0.33-1.583,0.33-2.507l0-13.208C19.455,8.913,19.49,7.79,19.49,7.496z"/>
</g>
</svg>
