<?xml version="1.0" encoding="utf-8"?>
<!-- Generator: Adobe Illustrator 23.0.1, SVG Export Plug-In . SVG Version: 6.00 Build 0)  -->
<svg version="1.1" id="Layer_1" xmlns="http://www.w3.org/2000/svg" xmlns:xlink="http://www.w3.org/1999/xlink" x="0px" y="0px"
	 viewBox="0 0 557 426" style="enable-background:new 0 0 557 426;" xml:space="preserve">
<style type="text/css">
	.st0{fill:#231F20;}
	.st1{fill:url(#SVGID_1_);}
	.st2{fill:url(#SVGID_2_);}
	.st3{fill:url(#SVGID_3_);}
	.st4{fill:url(#SVGID_4_);}
</style>
<g>
	<path class="st0" d="M278.38,347.49c-7.15,7.15-15.76,10.72-25.82,10.72s-18.66-3.56-25.77-10.67
		c-7.12-7.12-10.67-15.71-10.67-25.77c0-10.06,3.56-18.66,10.67-25.77c7.12-7.12,15.71-10.67,25.77-10.67s18.67,3.54,25.82,10.62
		l-12.91,12.91c-3.61-3.54-7.91-5.31-12.91-5.31c-5.07,0-9.37,1.77-12.91,5.31c-3.54,3.54-5.31,7.85-5.31,12.91
		c0,5,1.77,9.28,5.31,12.86c3.54,3.57,7.84,5.36,12.91,5.36c5,0,9.3-1.81,12.91-5.42L278.38,347.49z"/>
	<path class="st0" d="M375.96,323.81c2.66,3.81,3.98,7.52,3.98,11.13c0,6.74-2.4,12.18-7.2,16.33c-4.8,4.15-11.42,6.23-19.86,6.23
		c-11.57,0-21.27-3.23-29.09-9.7l11.23-13.37c5.85,3.47,11.43,5.21,16.74,5.21c2.79,0,5.2-0.32,7.25-0.97
		c2.04-0.64,3.06-1.82,3.06-3.52c0-1.5-1.39-2.62-4.18-3.37l-14.7-3.78c-4.83-0.95-8.85-3.25-12.04-6.89
		c-3.2-3.64-4.8-8.18-4.8-13.63c0-5.51,2.46-10.46,7.4-14.85s10.98-6.59,18.12-6.59c11.16,0,20.55,2.86,28.17,8.58l-11.33,13.27
		c-4.83-2.65-9.6-3.98-14.29-3.98c-3.81,0-6.47,0.44-7.96,1.33c-1.5,0.89-2.24,1.94-2.24,3.16c0,1.43,0.85,2.42,2.55,2.96
		l15.82,3.88C368.85,317.14,373.31,320,375.96,323.81z"/>
	<g>
		<path class="st0" d="M150.21,357.68l-14.31-24.95l-16.37,24.28h-15.88v-70.58h17.53l0.43,34.5l21.96-33.61l22.63-0.8l-19.03,29.19
			l24.37,41.65L150.21,357.68z"/>
	</g>
	<rect x="192.24" y="289.99" class="st0" width="2.21" height="61.71"/>
	<rect x="299.98" y="289.99" class="st0" width="2.21" height="61.71"/>
	<g>
		<g>
			<path class="st0" d="M415.37,320.56v37.05h-9.27v-37.05H415.37z"/>
			<path class="st0" d="M437.45,336.28v21.33h-9.27v-37.05h9.27v7.86"/>
			<rect x="421.05" y="320.56" class="st0" width="23.03" height="9.46"/>
		</g>
		<rect x="444.08" y="348.34" class="st0" width="9.27" height="9.27"/>
	</g>
	<linearGradient id="SVGID_1_" gradientUnits="userSpaceOnUse" x1="206.6587" y1="271.0753" x2="205.1835" y2="181.8275">
		<stop  offset="0" style="stop-color:#FFFFFF"/>
		<stop  offset="1" style="stop-color:#231F20"/>
	</linearGradient>
	<polygon class="st1" points="230.92,236.86 179.42,236.86 179.42,176.05 230.92,125.16 	"/>
	<linearGradient id="SVGID_2_" gradientUnits="userSpaceOnUse" x1="179.4218" y1="121.9466" x2="230.9182" y2="121.9466">
		<stop  offset="0" style="stop-color:#FFFFFF"/>
		<stop  offset="1" style="stop-color:#231F20"/>
	</linearGradient>
	<polygon class="st2" points="230.92,125.55 179.42,176.05 179.42,67.84 230.92,67.84 	"/>
	<linearGradient id="SVGID_3_" gradientUnits="userSpaceOnUse" x1="286.9042" y1="236.785" x2="311.1811" y2="155.1265">
		<stop  offset="0" style="stop-color:#E6E7E8"/>
		<stop  offset="1" style="stop-color:#231F20"/>
	</linearGradient>
	<polygon class="st3" points="367.38,236.98 293.08,236.98 243.06,186.96 243.52,111.83 	"/>
	<linearGradient id="SVGID_4_" gradientUnits="userSpaceOnUse" x1="243.0566" y1="108.7563" x2="362.6017" y2="108.7563">
		<stop  offset="0" style="stop-color:#FFFFFF"/>
		<stop  offset="1" style="stop-color:#231F20"/>
	</linearGradient>
	<polygon class="st4" points="362.6,67.79 281.02,149.72 243.06,112 288.44,67.79 	"/>
</g>
</svg>
