<?xml version="1.0" encoding="UTF-8"?>
<svg width="160px" height="auto" viewBox="0 0 120 45" version="1.1" xmlns="http://www.w3.org/2000/svg" xmlns:xlink="http://www.w3.org/1999/xlink">
    <!-- Generator: sketchtool 46.2 (44496) - http://www.bohemiancoding.com/sketch -->
    <title>F17BC78F-297A-4A07-83A0-3D21DF6ECE10</title>
    <desc>Created with sketchtool.</desc>
    <defs></defs>
    <g id="Page-1" stroke="none" stroke-width="1" fill="none" fill-rule="evenodd">
        <g id="home" transform="translate(-165.000000, -28.000000)" fill-rule="nonzero">
            <g id="Group-4" transform="translate(165.000000, 28.000000)">
                <g id="logo">
                    <path d="M51.932948,9.26307692 C56.4770348,6.15711578 62.5913321,6.71215623 66.499422,10.5853846 C68.6743142,12.6932175 69.8793115,15.6047051 69.8289017,18.63 C69.8162399,23.2164016 67.0450239,27.3465194 62.8007419,29.1045091 C58.55646,30.8624988 53.6695602,29.9043874 50.4069364,26.6746154 C48.2320442,24.5667825 47.0270469,21.6552949 47.0774566,18.63 L47.0774566,0.761538462 L51.932948,0.761538462 L51.932948,9.26307692 L51.932948,9.26307692 Z M63.0312139,23.22 C64.2523853,22.0020362 64.9385047,20.349607 64.9385047,18.6265385 C64.9385047,16.9034699 64.2523853,15.2510407 63.0312139,14.0330769 C61.1698317,12.1823401 58.375848,11.6306118 55.9485939,12.6344709 C53.5213399,13.6383301 51.9372299,16.0007423 51.932948,18.6230769 C51.9288199,21.2527518 53.5140903,23.625323 55.9480462,24.6322137 C58.3820022,25.6391043 61.1841075,25.0815238 63.0450867,23.22 L63.0312139,23.22 Z" id="Shape" fill="#0098CE"></path>
                    <path d="M78.6034682,23.22 C79.8237787,24.438823 81.4793918,25.123623 83.2057803,25.123623 C84.9321689,25.123623 86.587782,24.438823 87.8080925,23.22 L87.8080925,23.22 L91.2763006,26.6815385 L91.2763006,26.6815385 C88.0160977,29.9183434 83.1255332,30.8808714 78.8782511,29.121639 C74.630969,27.3624066 71.8602982,23.2265802 71.8543353,18.6369231 C71.8543353,12.35872 76.9536308,7.26923077 83.2439306,7.26923077 C89.5342305,7.26923077 94.633526,12.35872 94.633526,18.6369231 C94.6334498,19.1827867 94.5823615,19.7274534 94.4809249,20.2638462 L76.8971098,20.2638462 C77.1792625,21.3884866 77.7702028,22.4122519 78.6034682,23.22 L78.6034682,23.22 Z M87.8080925,14.0330769 C86.587782,12.8142539 84.9321689,12.129454 83.2057803,12.129454 C81.4793918,12.129454 79.8237787,12.8142539 78.6034682,14.0330769 C78.198339,14.432588 77.8484307,14.8842658 77.5630058,15.3761538 L88.8485549,15.3761538 C88.56272,14.8845409 88.2128518,14.4329149 87.8080925,14.0330769 Z" id="Shape" fill="#0098CE"></path>
                    <path d="M103.359538,23.22 C104.579848,24.438823 106.235461,25.123623 107.96185,25.123623 C109.688238,25.123623 111.343851,24.438823 112.564162,23.22 L112.564162,23.22 L116.03237,26.6815385 L116.03237,26.6815385 C112.772167,29.9183434 107.881603,30.8808714 103.63432,29.121639 C99.3870384,27.3624066 96.6163676,23.2265802 96.6104046,18.6369231 C96.6104046,12.35872 101.7097,7.26923077 108,7.26923077 C114.2903,7.26923077 119.389595,12.35872 119.389595,18.6369231 C119.389519,19.1827867 119.338431,19.7274534 119.236994,20.2638462 L101.660116,20.2638462 C101.940314,21.3877169 102.528806,22.4114015 103.359538,23.22 L103.359538,23.22 Z M112.564162,14.0330769 C111.343851,12.8142539 109.688238,12.129454 107.96185,12.129454 C106.235461,12.129454 104.579848,12.8142539 103.359538,14.0330769 C102.954408,14.432588 102.6045,14.8842658 102.319075,15.3761538 L113.604624,15.3761538 C113.318789,14.8845409 112.968921,14.4329149 112.564162,14.0330769 Z" id="Shape" fill="#0098CE"></path>
                    <path d="M52.7791908,36.1523077 C54.1904755,36.5210069 55.1489761,37.8273788 55.0751445,39.2815385 L55.0751445,39.2815385 C55.0996418,39.4460948 55.041429,39.612144 54.9194821,39.7255579 C54.7975352,39.8389717 54.627476,39.8852214 54.4647399,39.8492308 L49.5537572,39.8492308 C49.7345934,40.9529487 50.7090521,41.7505868 51.8289017,41.7115385 C52.4223053,41.7151038 53.0002529,41.5228251 53.4728324,41.1646154 C53.5765392,41.034684 53.7460527,40.9761443 53.908038,41.0143216 C54.0700234,41.052499 54.1953936,41.1805381 54.2299111,41.3430468 C54.2644286,41.5055554 54.2018952,41.6733527 54.0693642,41.7738462 C53.45302,42.2926425 52.6617677,42.5575365 51.8566474,42.5146154 C50.8850684,42.5502807 49.9494032,42.1456903 49.3109827,41.4138462 C47.9653179,39.6553846 48.5549133,36.7961538 50.8647399,36.1523077 C51.4753128,35.9842785 52.1200629,35.9842785 52.7306358,36.1523077 L52.7306358,36.1523077 L52.7791908,36.1523077 Z M49.5190751,39.0669231 L54.2080925,39.0669231 C54.1523054,38.0779404 53.4624976,37.2383291 52.5017341,36.99 L52.5017341,36.99 C52.0610307,36.8715381 51.5967728,36.8715381 51.1560694,36.99 C50.2137805,37.2501088 49.5504974,38.0916439 49.5190751,39.0669231 Z" id="Shape" fill="#555759"></path>
                    <path d="M61.8520231,38.7969231 C61.8575979,38.283528 61.6566754,37.789342 61.2942355,37.4249966 C60.9317956,37.0606513 60.4381104,36.8565779 59.9236994,36.8584615 C58.6320342,36.8698317 57.5898761,37.9161587 57.5861272,39.2053846 L57.5861272,42.0853846 C57.5976125,42.2067085 57.5532727,42.3266732 57.4655974,42.4114874 C57.377922,42.4963017 57.2563996,42.5367866 57.1352601,42.5215385 C57.0124397,42.5357966 56.8895159,42.4957201 56.7988122,42.4118474 C56.7081085,42.3279747 56.6587018,42.208699 56.6635838,42.0853846 L56.6635838,36.5123077 C56.691738,36.287067 56.8835586,36.1180159 57.1109827,36.1180159 C57.3384067,36.1180159 57.5302273,36.287067 57.5583815,36.5123077 L57.5583815,37.2807692 C58.0334032,36.4300906 58.9570158,35.928741 59.9306358,35.9930769 C60.6793678,35.9642931 61.4068159,36.2451601 61.9412175,36.7693606 C62.4756192,37.293561 62.769604,38.0146288 62.7537572,38.7623077 L62.7537572,42.0507692 C62.7652426,42.1720931 62.7209028,42.2920578 62.6332274,42.376872 C62.5455521,42.4616863 62.4240296,42.5021712 62.3028902,42.4869231 C62.181781,42.4992585 62.0613323,42.4580511 61.9732723,42.3741554 C61.8852122,42.2902598 61.8383708,42.1720883 61.8450867,42.0507692 L61.8450867,38.7969231 L61.8520231,38.7969231 Z" id="Shape" fill="#555759"></path>
                    <path d="M70.4393064,42.1476923 C70.4393064,43.9476923 69.0520231,44.8753846 67.366474,44.8753846 C66.4914906,44.9242573 65.6344996,44.6141329 64.9942197,44.0169231 C64.8160839,43.8486886 64.80832,43.5681778 64.9768786,43.3903846 C65.1454372,43.2125914 65.4264885,43.2048425 65.6046243,43.3730769 C66.0925574,43.7944239 66.7215977,44.0168835 67.366474,43.9961538 C68.4971098,43.9961538 69.5514451,43.4284615 69.5514451,42.1476923 L69.5514451,41.4553846 C69.1371854,42.1548618 68.3744209,42.5739734 67.5606936,42.5492308 C67.1005165,42.5665069 66.6418931,42.4862842 66.2150289,42.3138462 C65.0706364,41.8258966 64.3282698,40.7035919 64.3283237,39.4615385 C64.2181984,38.068452 65.0230572,36.7641212 66.3190751,36.2353846 C66.6916026,36.0959091 67.0865232,36.0255232 67.4843931,36.0276923 C68.2850481,35.9837383 69.0532242,36.348833 69.5236994,36.9969231 L69.5236994,36.5123077 C69.5103818,36.3893641 69.5535852,36.2670177 69.6411945,36.1795768 C69.7288038,36.092136 69.851386,36.0490156 69.9745665,36.0623077 C70.0970593,36.0542463 70.2171651,36.0988157 70.3046287,36.1847884 C70.3920923,36.2707612 70.4385759,36.3899417 70.4323699,36.5123077 L70.4323699,42.12 L70.4393064,42.1476923 Z M66.1526012,37.3569231 L66.1526012,37.3569231 C65.5293678,37.8616614 65.1863124,38.6339825 65.2300578,39.4338462 C65.2378026,39.7493672 65.3011999,40.0610572 65.417341,40.3546154 C65.7842201,41.1906996 66.6260071,41.7178639 67.5398844,41.6838462 L67.5398844,41.6838462 C68.6146155,41.6956017 69.5004244,40.8453818 69.5306358,39.7730769 L69.5306358,38.8246154 C69.5858772,38.0889211 69.1602381,37.4013826 68.4763006,37.1215385 C67.7174055,36.766919 66.8246355,36.8573543 66.1526012,37.3569231 L66.1526012,37.3569231 Z" id="Shape" fill="#555759"></path>
                    <path d="M73.1930636,35.1969231 C73.153866,35.4225192 72.9577281,35.5872534 72.7283237,35.5872534 C72.4989193,35.5872534 72.3027814,35.4225192 72.2635838,35.1969231 L72.2635838,34.6430769 C72.2635838,34.3869018 72.4716549,34.1792308 72.7283237,34.1792308 C72.9849925,34.1792308 73.1930636,34.3869018 73.1930636,34.6430769 L73.1930636,35.1969231 L73.1930636,35.1969231 Z M72.2705202,36.5123077 C72.2989112,36.2834116 72.4937677,36.1115213 72.7248555,36.1115213 C72.9559433,36.1115213 73.1507997,36.2834116 73.1791908,36.5123077 L73.1791908,42.12 C73.1507997,42.3488961 72.9559433,42.5207864 72.7248555,42.5207864 C72.4937677,42.5207864 72.2989112,42.3488961 72.2705202,42.12 L72.2705202,36.5123077 Z" id="Shape" fill="#555759"></path>
                    <path d="M80.067052,38.7969231 C80.0726268,38.283528 79.8717043,37.789342 79.5092644,37.4249966 C79.1468246,37.0606513 78.6531393,36.8565779 78.1387283,36.8584615 C76.8470631,36.8698317 75.804905,37.9161587 75.8011561,39.2053846 L75.8011561,42.0853846 C75.8126414,42.2067085 75.7683016,42.3266732 75.6806263,42.4114874 C75.5929509,42.4963017 75.4714285,42.5367866 75.350289,42.5215385 C75.2274686,42.5357966 75.1045448,42.4957201 75.0138411,42.4118474 C74.9231374,42.3279747 74.8737307,42.208699 74.8786127,42.0853846 L74.8786127,36.5123077 C74.9067669,36.287067 75.0985875,36.1180159 75.3260116,36.1180159 C75.5534356,36.1180159 75.7452562,36.287067 75.7734104,36.5123077 L75.7734104,37.2807692 C76.2484321,36.4300906 77.1720447,35.928741 78.1456647,35.9930769 C78.8943967,35.9642931 79.6218448,36.2451601 80.1562464,36.7693606 C80.6906481,37.293561 80.9846329,38.0146288 80.9687861,38.7623077 L80.9687861,42.0507692 C80.9802715,42.1720931 80.9359317,42.2920578 80.8482563,42.376872 C80.760581,42.4616863 80.6390585,42.5021712 80.5179191,42.4869231 C80.3968099,42.4992585 80.2763612,42.4580511 80.1883012,42.3741554 C80.1002412,42.2902598 80.0533997,42.1720883 80.0601156,42.0507692 L80.0601156,38.7969231 L80.067052,38.7969231 Z" id="Shape" fill="#555759"></path>
                    <path d="M86.7052023,36.1523077 C88.1139431,36.5172231 89.0744326,37.8165878 89.0080925,39.2676923 L89.0080925,39.2676923 C89.0325898,39.4322487 88.974377,39.5982979 88.8524301,39.7117117 C88.7304832,39.8251255 88.560424,39.8713753 88.3976879,39.8353846 L83.4867052,39.8353846 C83.6675413,40.9391025 84.6420001,41.7367407 85.7618497,41.6976923 C86.3544108,41.7107711 86.9347251,41.5282506 87.4127168,41.1784615 C87.5164236,41.0485302 87.6859371,40.9899904 87.8479224,41.0281678 C88.0099078,41.0663452 88.135278,41.1943843 88.1697955,41.3568929 C88.204313,41.5194016 88.1417796,41.6871988 88.0092486,41.7876923 C87.3929044,42.3064886 86.601652,42.5713826 85.7965318,42.5284615 C84.8310157,42.5560794 83.9041191,42.1494359 83.2716763,41.4207692 C81.9260116,39.6623077 82.5156069,36.8030769 84.8254335,36.1592308 C85.4360064,35.9912015 86.0807566,35.9912015 86.6913295,36.1592308 L86.6913295,36.1592308 L86.7052023,36.1523077 Z M83.4450867,39.0669231 L88.1549133,39.0669231 C88.0991262,38.0779404 87.4093184,37.2383291 86.4485549,36.99 L86.4485549,36.99 C86.0078515,36.8715381 85.5435936,36.8715381 85.1028902,36.99 C84.1523737,37.2424573 83.4792089,38.085809 83.4450867,39.0669231 L83.4450867,39.0669231 Z" id="Shape" fill="#555759"></path>
                    <path d="M94.3976879,36.1523077 C95.8064287,36.5172231 96.7669182,37.8165878 96.700578,39.2676923 L96.700578,39.2676923 C96.7250754,39.4322487 96.6668626,39.5982979 96.5449156,39.7117117 C96.4229687,39.8251255 96.2529095,39.8713753 96.0901734,39.8353846 L91.1791908,39.8353846 C91.3600269,40.9391025 92.3344856,41.7367407 93.4543353,41.6976923 C94.0468963,41.7107711 94.6272107,41.5282506 95.1052023,41.1784615 C95.2089091,41.0485302 95.3784226,40.9899904 95.540408,41.0281678 C95.7023933,41.0663452 95.8277635,41.1943843 95.8622811,41.3568929 C95.8967986,41.5194016 95.8342652,41.6871988 95.7017341,41.7876923 C95.0853899,42.3064886 94.2941376,42.5713826 93.4890173,42.5284615 C92.5235012,42.5560794 91.5966047,42.1494359 90.9641618,41.4207692 C89.6184971,39.6623077 90.2080925,36.8030769 92.5179191,36.1592308 C93.128492,35.9912015 93.7732421,35.9912015 94.383815,36.1592308 L94.383815,36.1592308 L94.3976879,36.1523077 Z M91.1375723,39.0669231 L95.8265896,39.0669231 C95.7708025,38.0779404 95.0809947,37.2383291 94.1202312,36.99 L94.1202312,36.99 C93.6795278,36.8715381 93.2152699,36.8715381 92.7745665,36.99 C91.8350199,37.252638 91.175017,38.0935745 91.1445087,39.0669231 L91.1375723,39.0669231 Z" id="Shape" fill="#555759"></path>
                    <path d="M99.1352601,37.1630769 C99.4760078,36.4645896 100.211558,36.0466544 100.987283,36.1107692 C101.224798,36.1107692 101.417341,36.3029424 101.417341,36.54 C101.417341,36.7770576 101.224798,36.9692308 100.987283,36.9692308 C99.7040462,36.9692308 99.1630058,37.9869231 99.1630058,39.24 L99.1630058,42.0507692 C99.1630205,42.167654 99.1160293,42.2796536 99.0325706,42.3616503 C98.9491119,42.443647 98.8361703,42.4887784 98.7190751,42.4869231 C98.5985246,42.4968983 98.4794607,42.4549001 98.3919606,42.3715379 C98.3044605,42.2881757 98.256892,42.1714216 98.2612717,42.0507692 L98.2612717,36.5123077 C98.2891872,36.2907211 98.4779724,36.1245071 98.7017341,36.1245071 C98.9254958,36.1245071 99.114281,36.2907211 99.1421965,36.5123077 L99.1421965,37.1353846 L99.1352601,37.1630769 Z" id="Shape" fill="#555759"></path>
                    <path d="M103.304046,35.1969231 C103.264849,35.4225192 103.068711,35.5872534 102.839306,35.5872534 C102.609902,35.5872534 102.413764,35.4225192 102.374566,35.1969231 L102.374566,34.6430769 C102.374566,34.3869018 102.582638,34.1792308 102.839306,34.1792308 C103.095975,34.1792308 103.304046,34.3869018 103.304046,34.6430769 L103.304046,35.1969231 L103.304046,35.1969231 Z M102.381503,36.5123077 C102.409894,36.2834116 102.60475,36.1115213 102.835838,36.1115213 C103.066926,36.1115213 103.261782,36.2834116 103.290173,36.5123077 L103.290173,42.12 C103.261782,42.3488961 103.066926,42.5207864 102.835838,42.5207864 C102.60475,42.5207864 102.409894,42.3488961 102.381503,42.12 L102.381503,36.5123077 L102.381503,36.5123077 Z" id="Shape" fill="#555759"></path>
                    <path d="M110.178035,38.7969231 C110.18358,38.2871217 109.985502,37.7961006 109.627571,37.4323623 C109.26964,37.068624 108.781321,36.8621126 108.27052,36.8584615 C106.978855,36.8698317 105.936697,37.9161587 105.932948,39.2053846 L105.932948,42.0853846 C105.944433,42.2067085 105.900094,42.3266732 105.812418,42.4114874 C105.724743,42.4963017 105.60322,42.5367866 105.482081,42.5215385 C105.359261,42.5357966 105.236337,42.4957201 105.145633,42.4118474 C105.054929,42.3279747 105.005523,42.208699 105.010405,42.0853846 L105.010405,36.5123077 C105.038559,36.287067 105.230379,36.1180159 105.457803,36.1180159 C105.685228,36.1180159 105.877048,36.287067 105.905202,36.5123077 L105.905202,37.2807692 C106.386634,36.4431353 107.305323,35.9537516 108.27052,36.0207692 C109.019252,35.9919854 109.7467,36.2728524 110.281102,36.7970529 C110.815504,37.3212533 111.109488,38.0423211 111.093642,38.79 L111.093642,42.0784615 C111.105127,42.1997854 111.060787,42.3197501 110.973112,42.4045643 C110.885436,42.4893786 110.763914,42.5298635 110.642775,42.5146154 C110.521665,42.5269508 110.401217,42.4857434 110.313157,42.4018477 C110.225097,42.3179521 110.178255,42.1997806 110.184971,42.0784615 L110.184971,38.7969231 L110.178035,38.7969231 Z" id="Shape" fill="#555759"></path>
                    <path d="M118.772254,42.1476923 C118.772254,43.9476923 117.384971,44.8753846 115.699422,44.8753846 C114.824439,44.9242573 113.967448,44.6141329 113.327168,44.0169231 C113.211934,43.9080945 113.163625,43.7461745 113.200438,43.5921569 C113.237251,43.4381392 113.353594,43.3154228 113.50564,43.2702338 C113.657687,43.2250447 113.822339,43.2642483 113.937572,43.3730769 C114.425505,43.7944239 115.054546,44.0168835 115.699422,43.9961538 C116.830058,43.9961538 117.884393,43.4284615 117.884393,42.1476923 L117.884393,41.4553846 C117.476693,42.1606398 116.716176,42.5879401 115.900578,42.57 C115.440401,42.5872762 114.981777,42.5070534 114.554913,42.3346154 C113.410521,41.8466658 112.668154,40.7243611 112.668208,39.4823077 C112.558083,38.0892212 113.362942,36.7848905 114.65896,36.2561538 C115.031487,36.1166784 115.426408,36.0462925 115.824277,36.0484615 C116.624932,36.0045075 117.393109,36.3696022 117.863584,37.0176923 L117.863584,36.5123077 C117.850266,36.3893641 117.89347,36.2670177 117.981079,36.1795768 C118.068688,36.092136 118.19127,36.0490156 118.314451,36.0623077 C118.436944,36.0542463 118.557049,36.0988157 118.644513,36.1847884 C118.731977,36.2707612 118.77846,36.3899417 118.772254,36.5123077 L118.772254,42.12 L118.772254,42.1476923 Z M114.513295,37.3569231 L114.513295,37.3569231 C113.890061,37.8616614 113.547006,38.6339825 113.590751,39.4338462 C113.598496,39.7493672 113.661894,40.0610572 113.778035,40.3546154 C114.136241,41.2015618 114.979965,41.7409468 115.900578,41.7115385 L115.900578,41.7115385 C116.975309,41.723294 117.861118,40.8730741 117.891329,39.8007692 L117.891329,38.8246154 C117.946571,38.0889211 117.520932,37.4013826 116.836994,37.1215385 C116.078099,36.766919 115.185329,36.8573543 114.513295,37.3569231 L114.513295,37.3569231 Z" id="Shape" fill="#555759"></path>
                    <path d="M38.9063584,23.6769231 C36.8641785,21.605992 34.0766322,20.4367761 31.1653179,20.43 L23.7919075,20.3953846 L21.8774566,20.3953846 L21.9260116,10.9869231 L21.9260116,10.9453846 C21.6835676,5.08679058 16.8611222,0.458066738 10.9862496,0.445081916 C5.11137706,0.432097094 0.268439001,5.03945821 0,10.8969231 L0,10.9523077 C0.00919981516,16.1156686 3.62598288,20.5731715 8.68439306,21.6553846 C3.36527109,22.6129042 -0.348684916,27.4550979 0.113566814,32.8298846 C0.575818544,38.2046713 5.06224581,42.3443114 10.467052,42.3830769 L10.5225434,42.3830769 C15.2573551,42.3720202 19.3967523,39.1939918 20.6219653,34.6292308 C22.2006742,39.8285668 27.3595896,43.0869666 32.7432935,42.2851294 C38.1269975,41.4832922 42.108042,36.8636066 42.0971098,31.4307692 L42.0971098,31.3753846 C42.0994483,28.4882605 40.9515495,25.7186764 38.9063584,23.6769231 Z M20.1086705,20.16 L10.9179191,20.1115385 C5.86797798,20.0773335 1.79015965,15.9857248 1.78265896,10.9453846 L1.78265896,10.8969231 C1.79876689,7.61722496 3.56672063,4.59523588 6.42054912,2.96930987 C9.27437761,1.34338386 12.7805164,1.36053776 15.618237,3.01430987 C18.4559575,4.66808198 20.1941426,7.70722496 20.1780347,10.9869231 L20.1086705,20.16 Z M40.2936416,31.4307692 C40.1346408,36.3978199 36.0415747,40.3351974 31.0624742,40.3108094 C26.0833738,40.2864214 22.0292239,36.3091382 21.9190751,31.3407692 L21.9676301,22.1676923 L31.1583815,22.2161538 C36.2083226,22.2503588 40.2861409,26.3419675 40.2936416,31.3823077 L40.2936416,31.4307692 L40.2936416,31.4307692 Z" id="Shape" fill="#0098CE"></path>
                    <path d="M33.6624277,16.3038462 C35.141628,14.8383052 35.5923586,12.6285593 34.8049629,10.7024682 C34.0175672,8.7763772 32.1466351,7.51209176 30.0624277,7.49769231 L30.0624277,7.49769231 C27.2230556,7.49765135 24.9169995,9.78689841 24.9017341,12.6207692 L24.9017341,17.7715385 L30.0624277,17.7715385 C31.4088493,17.7724921 32.7017379,17.2453913 33.6624277,16.3038462 Z" id="Shape" fill="#0098CE"></path>
                </g>
            </g>
        </g>
    </g>
</svg>