<?xml version="1.0" encoding="utf-8"?>
<!-- Generator: Adobe Illustrator 23.0.3, SVG Export Plug-In . SVG Version: 6.00 Build 0)  -->
<svg version="1.1" id="Layer_1" xmlns="http://www.w3.org/2000/svg" xmlns:xlink="http://www.w3.org/1999/xlink" x="0px" y="0px"
	 viewBox="0 0 841.89 595.28" style="enable-background:new 0 0 841.89 595.28;" xml:space="preserve">
<style type="text/css">
	.st0{fill:#FFFFFF;}
	.st1{fill:#565655;}
	.st2{fill:#0097CE;}
	.st3{fill:#53575A;}
</style>
<g>
	<g>
		<path class="st0" d="M417.12,240.95c5.06-3.6,10.9-5.4,17.51-5.4c8.48,0,15.71,2.99,21.68,8.96c5.97,5.97,8.96,13.2,8.96,21.68
			s-2.99,15.71-8.96,21.68c-5.97,5.97-13.2,8.96-21.68,8.96c-8.48,0-15.71-2.99-21.68-8.96c-5.97-5.97-8.96-13.2-8.96-21.68v-48.15
			h13.13V240.95z M447.01,278.57c3.42-3.42,5.13-7.55,5.13-12.38c0-4.83-1.71-8.96-5.13-12.38c-3.42-3.42-7.55-5.13-12.38-5.13
			c-4.83,0-8.96,1.71-12.38,5.13c-3.42,3.42-5.13,7.55-5.13,12.38c0,4.83,1.71,8.96,5.13,12.38c3.42,3.42,7.55,5.13,12.38,5.13
			C439.46,283.7,443.59,281.99,447.01,278.57z"/>
		<path class="st0" d="M488.86,278.57c3.42,3.42,7.55,5.13,12.38,5.13c4.83,0,8.96-1.71,12.38-5.13l0.07-0.07l9.3,9.3l-0.07,0.07
			c-5.97,5.97-13.2,8.96-21.68,8.96c-8.48,0-15.71-2.99-21.68-8.96c-5.97-5.97-8.96-13.2-8.96-21.68s2.99-15.71,8.96-21.68
			c5.97-5.97,13.2-8.96,21.68-8.96c8.48,0,15.71,2.99,21.68,8.96c5.97,5.97,8.96,13.2,8.96,21.68c0,1.46-0.14,2.92-0.41,4.38h-3.97
			h-43.23C485.01,273.58,486.53,276.24,488.86,278.57z M513.62,253.81c-3.42-3.42-7.55-5.13-12.38-5.13
			c-4.83,0-8.96,1.71-12.38,5.13c-1.14,1.14-2.08,2.35-2.8,3.63h30.37C515.69,256.16,514.76,254.95,513.62,253.81z"/>
		<path class="st0" d="M555.47,278.57c3.42,3.42,7.55,5.13,12.38,5.13c4.83,0,8.96-1.71,12.38-5.13l0.07-0.07l9.3,9.3l-0.07,0.07
			c-5.97,5.97-13.2,8.96-21.68,8.96c-8.48,0-15.71-2.99-21.68-8.96c-5.97-5.97-8.96-13.2-8.96-21.68s2.99-15.71,8.96-21.68
			c5.97-5.97,13.2-8.96,21.68-8.96c8.48,0,15.71,2.99,21.68,8.96c5.97,5.97,8.96,13.2,8.96,21.68c0,1.46-0.14,2.92-0.41,4.38h-3.97
			h-43.23C551.62,273.58,553.14,276.24,555.47,278.57z M580.23,253.81c-3.42-3.42-7.55-5.13-12.38-5.13
			c-4.83,0-8.96,1.71-12.38,5.13c-1.14,1.14-2.08,2.35-2.8,3.63h30.37C582.3,256.16,581.37,254.95,580.23,253.81z"/>
	</g>
	<g>
		<path class="st1" d="M419.38,313.43c3.78,1.04,6.12,4.11,6.19,8.39v-0.03c0.07,0.74-0.27,1.54-1.64,1.54h-13.21
			c0.43,2.74,2.78,5.02,6.12,5.02c1.54,0,3.14-0.4,4.45-1.4c1.17-1.07,2.91,0.3,1.61,1.64c-1.54,1.44-3.78,2.04-5.95,2.01
			c-2.61,0-5.22-1-6.79-2.98c-3.61-4.75-2.04-12.44,4.18-14.18c1.57-0.47,3.38-0.44,5.02,0H419.38z M410.62,321.29h12.61
			c-0.23-2.84-1.97-5.02-4.58-5.69h0.03c-1.1-0.3-2.47-0.3-3.61,0.03C412.39,316.34,410.82,318.58,410.62,321.29z"/>
		<path class="st1" d="M443.8,320.55c0-3.08-2.47-5.22-5.18-5.22c-3.24,0-6.29,2.68-6.29,6.32v7.76c0,0.73-0.43,1.17-1.2,1.17
			c-0.77,0-1.27-0.44-1.27-1.17v-14.98c0-1.54,2.41-1.57,2.41,0.03v2.07c1.2-2.44,3.78-3.48,6.39-3.48c3.88,0,7.59,2.68,7.59,7.49
			v8.86c0,0.73-0.43,1.17-1.2,1.17c-0.74,0-1.24-0.44-1.24-1.17V320.55z"/>
		<path class="st1" d="M466.91,329.58c0,4.85-3.68,7.36-8.26,7.36c-2.54,0-4.58-0.6-6.39-2.31c-1.34-1.3,0.5-2.84,1.64-1.74
			c1.67,1.27,2.88,1.67,4.75,1.67c3.04,0,5.89-1.54,5.89-4.98v-1.81c-1.17,2.11-3.34,2.91-5.35,2.94c-1.27,0.03-2.47-0.17-3.61-0.64
			c-3.11-1.27-5.02-4.32-5.08-7.69c-0.1-3.88,1.71-7.19,5.35-8.69c1.04-0.4,2.14-0.57,3.14-0.57c2.04,0,4.38,0.77,5.48,2.61v-1.27
			c0-0.74,0.44-1.2,1.2-1.2c0.74,0,1.24,0.47,1.24,1.2V329.58z M455.37,316.67h0.03c-1.84,1.5-2.54,3.51-2.48,5.69
			c0.03,0.87,0.2,1.77,0.5,2.47c0.94,2.34,3.34,3.61,5.72,3.58h-0.03c3.01-0.13,5.35-2.31,5.35-5.15v-2.64
			c0-2.11-0.87-3.71-2.84-4.58C459.62,315.14,457.21,315.27,455.37,316.67z"/>
		<path class="st1" d="M474.3,310.86c0,1.5-2.51,1.54-2.51,0v-1.5c0-1.54,2.51-1.54,2.51,0V310.86z M471.83,314.47
			c0-1.44,2.44-1.47,2.44-0.03v15.08c0,1.47-2.44,1.44-2.44,0V314.47z"/>
		<path class="st1" d="M492.8,320.55c0-3.08-2.47-5.22-5.18-5.22c-3.24,0-6.29,2.68-6.29,6.32v7.76c0,0.73-0.43,1.17-1.2,1.17
			c-0.77,0-1.27-0.44-1.27-1.17v-14.98c0-1.54,2.41-1.57,2.41,0.03v2.07c1.2-2.44,3.78-3.48,6.39-3.48c3.88,0,7.59,2.68,7.59,7.49
			v8.86c0,0.73-0.43,1.17-1.2,1.17c-0.74,0-1.24-0.44-1.24-1.17V320.55z"/>
		<path class="st1" d="M510.66,313.43c3.78,1.04,6.12,4.11,6.19,8.39v-0.03c0.07,0.74-0.27,1.54-1.64,1.54H502
			c0.43,2.74,2.78,5.02,6.12,5.02c1.54,0,3.14-0.4,4.45-1.4c1.17-1.07,2.91,0.3,1.61,1.64c-1.54,1.44-3.78,2.04-5.95,2.01
			c-2.61,0-5.22-1-6.79-2.98c-3.61-4.75-2.04-12.44,4.18-14.18c1.57-0.47,3.38-0.44,5.02,0H510.66z M501.9,321.29h12.61
			c-0.23-2.84-1.97-5.02-4.58-5.69h0.03c-1.1-0.3-2.47-0.3-3.61,0.03C503.67,316.34,502.1,318.58,501.9,321.29z"/>
		<path class="st1" d="M531.36,313.43c3.78,1.04,6.12,4.11,6.19,8.39v-0.03c0.07,0.74-0.27,1.54-1.64,1.54H522.7
			c0.43,2.74,2.78,5.02,6.12,5.02c1.54,0,3.14-0.4,4.45-1.4c1.17-1.07,2.91,0.3,1.61,1.64c-1.54,1.44-3.78,2.04-5.95,2.01
			c-2.61,0-5.22-1-6.79-2.98c-3.61-4.75-2.04-12.44,4.18-14.18c1.57-0.47,3.38-0.44,5.02,0H531.36z M522.6,321.29h12.61
			c-0.23-2.84-1.97-5.02-4.58-5.69h0.03c-1.1-0.3-2.47-0.3-3.61,0.03C524.37,316.34,522.8,318.58,522.6,321.29z"/>
		<path class="st1" d="M544.11,316.14c1.07-2.24,3.08-2.84,4.98-2.84c0.77,0,1.27,0.4,1.27,1.17c0,0.74-0.5,1.14-1.27,1.14
			c-3.44,0-4.92,2.74-4.92,6.12v7.56c0,0.7-0.57,1.17-1.2,1.17c-0.74,0-1.24-0.47-1.24-1.17v-14.82c0-1.47,2.37-1.6,2.37,0V316.14z"
			/>
		<path class="st1" d="M555.31,310.86c0,1.5-2.51,1.54-2.51,0v-1.5c0-1.54,2.51-1.54,2.51,0V310.86z M552.84,314.47
			c0-1.44,2.44-1.47,2.44-0.03v15.08c0,1.47-2.44,1.44-2.44,0V314.47z"/>
		<path class="st1" d="M573.81,320.55c0-3.08-2.47-5.22-5.18-5.22c-3.24,0-6.29,2.68-6.29,6.32v7.76c0,0.73-0.43,1.17-1.2,1.17
			c-0.77,0-1.27-0.44-1.27-1.17v-14.98c0-1.54,2.41-1.57,2.41,0.03v2.07c1.2-2.44,3.78-3.48,6.39-3.48c3.88,0,7.59,2.68,7.59,7.49
			v8.86c0,0.73-0.43,1.17-1.2,1.17c-0.74,0-1.24-0.44-1.24-1.17V320.55z"/>
		<path class="st1" d="M596.92,329.58c0,4.85-3.68,7.36-8.26,7.36c-2.54,0-4.58-0.6-6.39-2.31c-1.34-1.3,0.5-2.84,1.64-1.74
			c1.67,1.27,2.88,1.67,4.75,1.67c3.04,0,5.89-1.54,5.89-4.98v-1.81c-1.17,2.11-3.34,2.91-5.35,2.94c-1.27,0.03-2.47-0.17-3.61-0.64
			c-3.11-1.27-5.02-4.32-5.08-7.69c-0.1-3.88,1.71-7.19,5.35-8.69c1.04-0.4,2.14-0.57,3.14-0.57c2.04,0,4.38,0.77,5.48,2.61v-1.27
			c0-0.74,0.44-1.2,1.2-1.2c0.74,0,1.24,0.47,1.24,1.2V329.58z M585.38,316.67h0.03c-1.84,1.5-2.54,3.51-2.48,5.69
			c0.03,0.87,0.2,1.77,0.5,2.47c0.94,2.34,3.34,3.61,5.72,3.58h-0.03c3.01-0.13,5.35-2.31,5.35-5.15v-2.64
			c0-2.11-0.87-3.71-2.84-4.58C589.63,315.14,587.22,315.27,585.38,316.67z"/>
	</g>
	<g>
		<path class="st2" d="M417.12,240.95c5.06-3.6,10.9-5.4,17.51-5.4c8.48,0,15.71,2.99,21.68,8.96c5.97,5.97,8.96,13.2,8.96,21.68
			s-2.99,15.71-8.96,21.68c-5.97,5.97-13.2,8.96-21.68,8.96c-8.48,0-15.71-2.99-21.68-8.96c-5.97-5.97-8.96-13.2-8.96-21.68v-48.15
			h13.13V240.95z M447.01,278.57c3.42-3.42,5.13-7.55,5.13-12.38c0-4.83-1.71-8.96-5.13-12.38c-3.42-3.42-7.55-5.13-12.38-5.13
			c-4.83,0-8.96,1.71-12.38,5.13c-3.42,3.42-5.13,7.55-5.13,12.38c0,4.83,1.71,8.96,5.13,12.38c3.42,3.42,7.55,5.13,12.38,5.13
			C439.46,283.7,443.59,281.99,447.01,278.57z"/>
		<path class="st2" d="M488.86,278.57c3.42,3.42,7.55,5.13,12.38,5.13c4.83,0,8.96-1.71,12.38-5.13l0.07-0.07l9.3,9.3l-0.07,0.07
			c-5.97,5.97-13.2,8.96-21.68,8.96c-8.48,0-15.71-2.99-21.68-8.96c-5.97-5.97-8.96-13.2-8.96-21.68s2.99-15.71,8.96-21.68
			c5.97-5.97,13.2-8.96,21.68-8.96c8.48,0,15.71,2.99,21.68,8.96c5.97,5.97,8.96,13.2,8.96,21.68c0,1.46-0.14,2.92-0.41,4.38h-3.97
			h-43.23C485.01,273.58,486.53,276.24,488.86,278.57z M513.62,253.81c-3.42-3.42-7.55-5.13-12.38-5.13
			c-4.83,0-8.96,1.71-12.38,5.13c-1.14,1.14-2.08,2.35-2.8,3.63h30.37C515.69,256.16,514.76,254.95,513.62,253.81z"/>
		<path class="st2" d="M555.47,278.57c3.42,3.42,7.55,5.13,12.38,5.13c4.83,0,8.96-1.71,12.38-5.13l0.07-0.07l9.3,9.3l-0.07,0.07
			c-5.97,5.97-13.2,8.96-21.68,8.96c-8.48,0-15.71-2.99-21.68-8.96c-5.97-5.97-8.96-13.2-8.96-21.68s2.99-15.71,8.96-21.68
			c5.97-5.97,13.2-8.96,21.68-8.96c8.48,0,15.71,2.99,21.68,8.96c5.97,5.97,8.96,13.2,8.96,21.68c0,1.46-0.14,2.92-0.41,4.38h-3.97
			h-43.23C551.62,273.58,553.14,276.24,555.47,278.57z M580.23,253.81c-3.42-3.42-7.55-5.13-12.38-5.13
			c-4.83,0-8.96,1.71-12.38,5.13c-1.14,1.14-2.08,2.35-2.8,3.63h30.37C582.3,256.16,581.37,254.95,580.23,253.81z"/>
	</g>
	<g>
		<path class="st3" d="M419.38,313.43c3.78,1.04,6.12,4.11,6.19,8.39v-0.03c0.07,0.74-0.27,1.54-1.64,1.54h-13.21
			c0.43,2.74,2.78,5.02,6.12,5.02c1.54,0,3.14-0.4,4.45-1.4c1.17-1.07,2.91,0.3,1.61,1.64c-1.54,1.44-3.78,2.04-5.95,2.01
			c-2.61,0-5.22-1-6.79-2.98c-3.61-4.75-2.04-12.44,4.18-14.18c1.57-0.47,3.38-0.44,5.02,0H419.38z M410.62,321.29h12.61
			c-0.23-2.84-1.97-5.02-4.58-5.69h0.03c-1.1-0.3-2.47-0.3-3.61,0.03C412.39,316.34,410.82,318.58,410.62,321.29z"/>
		<path class="st3" d="M443.8,320.55c0-3.08-2.47-5.22-5.18-5.22c-3.24,0-6.29,2.68-6.29,6.32v7.76c0,0.73-0.43,1.17-1.2,1.17
			c-0.77,0-1.27-0.44-1.27-1.17v-14.98c0-1.54,2.41-1.57,2.41,0.03v2.07c1.2-2.44,3.78-3.48,6.39-3.48c3.88,0,7.59,2.68,7.59,7.49
			v8.86c0,0.73-0.43,1.17-1.2,1.17c-0.74,0-1.24-0.44-1.24-1.17V320.55z"/>
		<path class="st3" d="M466.91,329.58c0,4.85-3.68,7.36-8.26,7.36c-2.54,0-4.58-0.6-6.39-2.31c-1.34-1.3,0.5-2.84,1.64-1.74
			c1.67,1.27,2.88,1.67,4.75,1.67c3.04,0,5.89-1.54,5.89-4.98v-1.81c-1.17,2.11-3.34,2.91-5.35,2.94c-1.27,0.03-2.47-0.17-3.61-0.64
			c-3.11-1.27-5.02-4.32-5.08-7.69c-0.1-3.88,1.71-7.19,5.35-8.69c1.04-0.4,2.14-0.57,3.14-0.57c2.04,0,4.38,0.77,5.48,2.61v-1.27
			c0-0.74,0.44-1.2,1.2-1.2c0.74,0,1.24,0.47,1.24,1.2V329.58z M455.37,316.67h0.03c-1.84,1.5-2.54,3.51-2.48,5.69
			c0.03,0.87,0.2,1.77,0.5,2.47c0.94,2.34,3.34,3.61,5.72,3.58h-0.03c3.01-0.13,5.35-2.31,5.35-5.15v-2.64
			c0-2.11-0.87-3.71-2.84-4.58C459.62,315.14,457.21,315.27,455.37,316.67z"/>
		<path class="st3" d="M474.3,310.86c0,1.5-2.51,1.54-2.51,0v-1.5c0-1.54,2.51-1.54,2.51,0V310.86z M471.83,314.47
			c0-1.44,2.44-1.47,2.44-0.03v15.08c0,1.47-2.44,1.44-2.44,0V314.47z"/>
		<path class="st3" d="M492.8,320.55c0-3.08-2.47-5.22-5.18-5.22c-3.24,0-6.29,2.68-6.29,6.32v7.76c0,0.73-0.43,1.17-1.2,1.17
			c-0.77,0-1.27-0.44-1.27-1.17v-14.98c0-1.54,2.41-1.57,2.41,0.03v2.07c1.2-2.44,3.78-3.48,6.39-3.48c3.88,0,7.59,2.68,7.59,7.49
			v8.86c0,0.73-0.43,1.17-1.2,1.17c-0.74,0-1.24-0.44-1.24-1.17V320.55z"/>
		<path class="st3" d="M510.66,313.43c3.78,1.04,6.12,4.11,6.19,8.39v-0.03c0.07,0.74-0.27,1.54-1.64,1.54H502
			c0.43,2.74,2.78,5.02,6.12,5.02c1.54,0,3.14-0.4,4.45-1.4c1.17-1.07,2.91,0.3,1.61,1.64c-1.54,1.44-3.78,2.04-5.95,2.01
			c-2.61,0-5.22-1-6.79-2.98c-3.61-4.75-2.04-12.44,4.18-14.18c1.57-0.47,3.38-0.44,5.02,0H510.66z M501.9,321.29h12.61
			c-0.23-2.84-1.97-5.02-4.58-5.69h0.03c-1.1-0.3-2.47-0.3-3.61,0.03C503.67,316.34,502.1,318.58,501.9,321.29z"/>
		<path class="st3" d="M531.36,313.43c3.78,1.04,6.12,4.11,6.19,8.39v-0.03c0.07,0.74-0.27,1.54-1.64,1.54H522.7
			c0.43,2.74,2.78,5.02,6.12,5.02c1.54,0,3.14-0.4,4.45-1.4c1.17-1.07,2.91,0.3,1.61,1.64c-1.54,1.44-3.78,2.04-5.95,2.01
			c-2.61,0-5.22-1-6.79-2.98c-3.61-4.75-2.04-12.44,4.18-14.18c1.57-0.47,3.38-0.44,5.02,0H531.36z M522.6,321.29h12.61
			c-0.23-2.84-1.97-5.02-4.58-5.69h0.03c-1.1-0.3-2.47-0.3-3.61,0.03C524.37,316.34,522.8,318.58,522.6,321.29z"/>
		<path class="st3" d="M544.11,316.14c1.07-2.24,3.08-2.84,4.98-2.84c0.77,0,1.27,0.4,1.27,1.17c0,0.74-0.5,1.14-1.27,1.14
			c-3.44,0-4.92,2.74-4.92,6.12v7.56c0,0.7-0.57,1.17-1.2,1.17c-0.74,0-1.24-0.47-1.24-1.17v-14.82c0-1.47,2.37-1.6,2.37,0V316.14z"
			/>
		<path class="st3" d="M555.31,310.86c0,1.5-2.51,1.54-2.51,0v-1.5c0-1.54,2.51-1.54,2.51,0V310.86z M552.84,314.47
			c0-1.44,2.44-1.47,2.44-0.03v15.08c0,1.47-2.44,1.44-2.44,0V314.47z"/>
		<path class="st3" d="M573.81,320.55c0-3.08-2.47-5.22-5.18-5.22c-3.24,0-6.29,2.68-6.29,6.32v7.76c0,0.73-0.43,1.17-1.2,1.17
			c-0.77,0-1.27-0.44-1.27-1.17v-14.98c0-1.54,2.41-1.57,2.41,0.03v2.07c1.2-2.44,3.78-3.48,6.39-3.48c3.88,0,7.59,2.68,7.59,7.49
			v8.86c0,0.73-0.43,1.17-1.2,1.17c-0.74,0-1.24-0.44-1.24-1.17V320.55z"/>
		<path class="st3" d="M596.92,329.58c0,4.85-3.68,7.36-8.26,7.36c-2.54,0-4.58-0.6-6.39-2.31c-1.34-1.3,0.5-2.84,1.64-1.74
			c1.67,1.27,2.88,1.67,4.75,1.67c3.04,0,5.89-1.54,5.89-4.98v-1.81c-1.17,2.11-3.34,2.91-5.35,2.94c-1.27,0.03-2.47-0.17-3.61-0.64
			c-3.11-1.27-5.02-4.32-5.08-7.69c-0.1-3.88,1.71-7.19,5.35-8.69c1.04-0.4,2.14-0.57,3.14-0.57c2.04,0,4.38,0.77,5.48,2.61v-1.27
			c0-0.74,0.44-1.2,1.2-1.2c0.74,0,1.24,0.47,1.24,1.2V329.58z M585.38,316.67h0.03c-1.84,1.5-2.54,3.51-2.48,5.69
			c0.03,0.87,0.2,1.77,0.5,2.47c0.94,2.34,3.34,3.61,5.72,3.58h-0.03c3.01-0.13,5.35-2.31,5.35-5.15v-2.64
			c0-2.11-0.87-3.71-2.84-4.58C589.63,315.14,587.22,315.27,585.38,316.67z"/>
	</g>
	<path class="st2" d="M277.4,245.49c0,7.82,3.03,15.18,8.55,20.75c5.55,5.61,12.95,8.72,20.82,8.76l19.84,0.1l9.67-0.08l0.15-29.39
		c0-0.05,0-0.1,0-0.15c0-7.82-3.03-15.18-8.55-20.75c-5.55-5.61-12.95-8.72-20.82-8.76c-7.87-0.04-15.3,3-20.9,8.55
		c-5.61,5.55-8.72,12.95-8.76,20.82C277.4,245.39,277.4,245.44,277.4,245.49z M282.2,245.47c0-0.04,0-0.08,0-0.12
		c0.07-13.63,11.21-24.66,24.84-24.59c6.6,0.03,12.8,2.64,17.44,7.33c4.65,4.69,7.19,10.94,7.15,17.51l-0.12,24.72l-24.72-0.12
		C293.21,270.12,282.2,259.04,282.2,245.47z"/>
	<path class="st2" d="M390.66,300.55c0-7.82-3.03-15.18-8.55-20.75c-5.55-5.61-12.95-8.72-20.82-8.76l-19.84-0.1l-9.67,0.08
		l-0.15,29.39c0,0.05,0,0.1,0,0.15c0,7.82,3.03,15.18,8.55,20.75c5.55,5.61,12.95,8.72,20.82,8.76c7.87,0.04,15.3-3,20.9-8.55
		c5.61-5.55,8.72-12.95,8.76-20.82C390.66,300.66,390.66,300.6,390.66,300.55z M385.86,300.57c0,0.04,0,0.08,0,0.12
		c-0.07,13.63-11.21,24.66-24.84,24.59c-6.6-0.03-12.8-2.64-17.44-7.33c-4.65-4.69-7.19-10.94-7.15-17.51l0.12-24.72l24.72,0.12
		C374.86,275.92,385.86,287,385.86,300.57z"/>
	<path class="st2" d="M358.2,236.19c0.02,0,0.05,0,0.07,0c7.65,0.04,13.84,6.29,13.81,13.95c-0.02,3.71-1.48,7.18-4.11,9.79
		c-2.63,2.61-6.14,4.03-9.83,4.02l-13.88-0.07l0.07-13.88C344.37,242.37,350.58,236.19,358.2,236.19"/>
	<path class="st2" d="M305.79,330.22c-0.05,0-0.09,0-0.14,0c-15.53-0.08-28.1-12.78-28.03-28.31c0.04-7.52,3-14.58,8.35-19.88
		c5.35-5.29,12.47-8.19,19.96-8.15l28.17,0.14l-0.14,28.17C333.88,317.67,321.25,330.22,305.79,330.22"/>
</g>
</svg>
