<svg xmlns="http://www.w3.org/2000/svg" viewBox="0 0 120 45" width="120" height="45">
	<style>
		tspan { white-space:pre }
		.shp0 { fill: #ffffff } 
	</style>
	<g id="Page-1">
		<g id="home">
			<g id="Group-4">
				<g id="logo">
					<path id="Shape" class="shp0" d="M66.5,10.59c2.17,2.11 3.38,5.02 3.33,8.04c-0.01,4.59 -2.78,8.72 -7.03,10.47c-4.24,1.76 -9.13,0.8 -12.39,-2.43c-2.17,-2.11 -3.38,-5.02 -3.33,-8.04v-17.87h4.86v8.5c4.54,-3.11 10.66,-2.55 14.57,1.32zM63.03,23.22c1.22,-1.22 1.91,-2.87 1.91,-4.59c0,-1.72 -0.69,-3.38 -1.91,-4.59c-1.86,-1.85 -4.66,-2.4 -7.08,-1.4c-2.43,1 -4.01,3.37 -4.02,5.99c0,2.63 1.58,5 4.02,6.01c2.43,1.01 5.24,0.45 7.1,-1.41z" />
					<path id="Shape" class="shp0" d="M83.21,25.12c1.73,0 3.38,-0.68 4.6,-1.9l3.47,3.46c-3.26,3.24 -8.15,4.2 -12.4,2.44c-4.25,-1.76 -7.02,-5.9 -7.02,-10.48c0,-6.28 5.1,-11.37 11.39,-11.37c6.29,0 11.39,5.09 11.39,11.37c0,0.55 -0.05,1.09 -0.15,1.63h-17.58c0.28,1.12 0.87,2.15 1.71,2.96c1.22,1.22 2.88,1.9 4.6,1.9zM87.81,14.03c-1.22,-1.22 -2.88,-1.9 -4.6,-1.9c-1.73,0 -3.38,0.68 -4.6,1.9c-0.41,0.4 -0.76,0.85 -1.04,1.34h11.29c-0.29,-0.49 -0.64,-0.94 -1.04,-1.34z" />
					<path id="Shape" class="shp0" d="M107.96,25.12c1.73,0 3.38,-0.68 4.6,-1.9l3.47,3.46c-3.26,3.24 -8.15,4.2 -12.4,2.44c-4.25,-1.76 -7.02,-5.9 -7.02,-10.48c0,-6.28 5.1,-11.37 11.39,-11.37c6.29,0 11.39,5.09 11.39,11.37c0,0.55 -0.05,1.09 -0.15,1.63h-17.58c0.28,1.12 0.87,2.15 1.7,2.96c1.22,1.22 2.88,1.9 4.6,1.9zM112.56,14.03c-1.22,-1.22 -2.88,-1.9 -4.6,-1.9c-1.73,0 -3.38,0.68 -4.6,1.9c-0.41,0.4 -0.76,0.85 -1.04,1.34h11.29c-0.29,-0.49 -0.64,-0.94 -1.04,-1.34z" />
					<path id="Shape" class="shp0" d="M52.78,36.15c1.41,0.37 2.37,1.68 2.3,3.13c0.02,0.16 -0.03,0.33 -0.16,0.44c-0.12,0.11 -0.29,0.16 -0.45,0.12h-4.91c0.18,1.1 1.16,1.9 2.28,1.86c0.59,0 1.17,-0.19 1.64,-0.55c0.1,-0.13 0.27,-0.19 0.44,-0.15c0.16,0.04 0.29,0.17 0.32,0.33c0.03,0.16 -0.03,0.33 -0.16,0.43c-0.62,0.52 -1.41,0.78 -2.21,0.74c-0.97,0.04 -1.91,-0.37 -2.55,-1.1c-1.35,-1.76 -0.76,-4.62 1.55,-5.26c0.61,-0.17 1.26,-0.17 1.87,0zM49.52,39.07h4.69c-0.06,-0.99 -0.75,-1.83 -1.71,-2.08c-0.44,-0.12 -0.9,-0.12 -1.35,0c-0.94,0.26 -1.61,1.1 -1.64,2.08z" />
					<path id="Shape" class="shp0" d="M61.85,38.8v3.25c-0.01,0.12 0.04,0.24 0.13,0.32c0.09,0.08 0.21,0.13 0.33,0.11c0.12,0.02 0.24,-0.03 0.33,-0.11c0.09,-0.08 0.13,-0.2 0.12,-0.33v-3.29c0.02,-0.75 -0.28,-1.47 -0.81,-1.99c-0.53,-0.52 -1.26,-0.81 -2.01,-0.78c-0.97,-0.06 -1.9,0.44 -2.37,1.29v-0.77c-0.03,-0.23 -0.22,-0.39 -0.45,-0.39c-0.23,0 -0.42,0.17 -0.45,0.39v5.57c0,0.12 0.04,0.24 0.14,0.33c0.09,0.08 0.21,0.12 0.34,0.11c0.12,0.02 0.24,-0.03 0.33,-0.11c0.09,-0.08 0.13,-0.2 0.12,-0.33v-2.88c0,-1.29 1.05,-2.34 2.34,-2.35c0.51,0 1.01,0.2 1.37,0.57c0.36,0.36 0.56,0.86 0.56,1.37z" />
					<path id="Shape" class="shp0" d="M70.44,42.15c0,1.8 -1.39,2.73 -3.07,2.73c-0.87,0.05 -1.73,-0.26 -2.37,-0.86c-0.18,-0.17 -0.19,-0.45 -0.02,-0.63c0.17,-0.18 0.45,-0.19 0.63,-0.02c0.49,0.42 1.12,0.64 1.76,0.62c1.13,0 2.18,-0.57 2.18,-1.85v-0.69c-0.41,0.7 -1.18,1.12 -1.99,1.09c-0.46,0.02 -0.92,-0.06 -1.35,-0.24c-1.14,-0.49 -1.89,-1.61 -1.89,-2.85c-0.11,-1.39 0.69,-2.7 1.99,-3.23c0.37,-0.14 0.77,-0.21 1.17,-0.21c0.8,-0.04 1.57,0.32 2.04,0.97v-0.48c-0.01,-0.12 0.03,-0.25 0.12,-0.33c0.09,-0.09 0.21,-0.13 0.33,-0.12c0.12,-0.01 0.24,0.04 0.33,0.12c0.09,0.09 0.13,0.21 0.13,0.33v5.61zM65.23,39.43c0.01,0.32 0.07,0.63 0.19,0.92c0.37,0.84 1.21,1.36 2.12,1.33c1.07,0.01 1.96,-0.84 1.99,-1.91v-0.95c0.06,-0.74 -0.37,-1.42 -1.05,-1.7c-0.76,-0.35 -1.65,-0.26 -2.32,0.24c-0.62,0.5 -0.97,1.28 -0.92,2.08z" />
					<path id="Shape" class="shp0" d="M73.19,35.2v-0.55c0,-0.26 -0.21,-0.46 -0.46,-0.46c-0.26,0 -0.46,0.21 -0.46,0.46v0.55c0.04,0.23 0.24,0.39 0.46,0.39c0.23,0 0.43,-0.16 0.46,-0.39zM72.27,42.12c0.03,0.23 0.22,0.4 0.45,0.4c0.23,0 0.43,-0.17 0.45,-0.4v-5.61c-0.03,-0.23 -0.22,-0.4 -0.45,-0.4c-0.23,0 -0.43,0.17 -0.45,0.4z" />
					<path id="Shape" class="shp0" d="M80.06,38.8v3.25c-0.01,0.12 0.04,0.24 0.13,0.32c0.09,0.08 0.21,0.13 0.33,0.11c0.12,0.02 0.24,-0.03 0.33,-0.11c0.09,-0.08 0.13,-0.2 0.12,-0.33v-3.29c0.02,-0.75 -0.28,-1.47 -0.81,-1.99c-0.53,-0.52 -1.26,-0.81 -2.01,-0.78c-0.97,-0.06 -1.9,0.44 -2.37,1.29v-0.77c-0.03,-0.23 -0.22,-0.39 -0.45,-0.39c-0.23,0 -0.42,0.17 -0.45,0.39v5.57c0,0.12 0.04,0.24 0.14,0.33c0.09,0.08 0.21,0.12 0.34,0.11c0.12,0.02 0.24,-0.03 0.33,-0.11c0.09,-0.08 0.13,-0.2 0.12,-0.33v-2.88c0,-1.29 1.05,-2.34 2.34,-2.35c0.51,0 1.01,0.2 1.37,0.57c0.36,0.36 0.56,0.86 0.56,1.37z" />
					<path id="Shape" class="shp0" d="M86.71,36.15c1.41,0.36 2.37,1.66 2.3,3.12c0.02,0.16 -0.03,0.33 -0.16,0.44c-0.12,0.11 -0.29,0.16 -0.45,0.12h-4.91c0.18,1.1 1.16,1.9 2.28,1.86c0.59,0.01 1.17,-0.17 1.65,-0.52c0.1,-0.13 0.27,-0.19 0.44,-0.15c0.16,0.04 0.29,0.17 0.32,0.33c0.03,0.16 -0.03,0.33 -0.16,0.43c-0.62,0.52 -1.41,0.78 -2.21,0.74c-0.97,0.03 -1.89,-0.38 -2.52,-1.11c-1.35,-1.76 -0.76,-4.62 1.55,-5.26c0.61,-0.17 1.26,-0.17 1.87,0zM88.15,39.07c-0.06,-0.99 -0.75,-1.83 -1.71,-2.08c-0.44,-0.12 -0.9,-0.12 -1.35,0c-0.95,0.25 -1.62,1.1 -1.66,2.08z" />
					<path id="Shape" class="shp0" d="M94.4,36.15c1.41,0.36 2.37,1.66 2.3,3.12c0.02,0.16 -0.03,0.33 -0.16,0.44c-0.12,0.11 -0.29,0.16 -0.45,0.12h-4.91c0.18,1.1 1.16,1.9 2.28,1.86c0.59,0.01 1.17,-0.17 1.65,-0.52c0.1,-0.13 0.27,-0.19 0.44,-0.15c0.16,0.04 0.29,0.17 0.32,0.33c0.03,0.16 -0.03,0.33 -0.16,0.43c-0.62,0.52 -1.41,0.78 -2.21,0.74c-0.97,0.03 -1.89,-0.38 -2.52,-1.11c-1.35,-1.76 -0.76,-4.62 1.55,-5.26c0.61,-0.17 1.26,-0.17 1.87,0zM95.83,39.07c-0.06,-0.99 -0.75,-1.83 -1.71,-2.08c-0.44,-0.12 -0.9,-0.12 -1.35,0c-0.94,0.26 -1.6,1.1 -1.63,2.08z" />
					<path id="Shape" class="shp0" d="M99.14,37.14v-0.62c-0.03,-0.22 -0.22,-0.39 -0.44,-0.39c-0.22,0 -0.41,0.17 -0.44,0.39v5.54c0,0.12 0.04,0.24 0.13,0.32c0.09,0.08 0.21,0.13 0.33,0.12c0.12,0 0.23,-0.04 0.31,-0.13c0.08,-0.08 0.13,-0.19 0.13,-0.31v-2.81c0,-1.25 0.54,-2.27 1.82,-2.27c0.24,0 0.43,-0.19 0.43,-0.43c0,-0.24 -0.19,-0.43 -0.43,-0.43c-0.78,-0.06 -1.51,0.35 -1.85,1.05z" />
					<path id="Shape" class="shp0" d="M103.3,35.2v-0.55c0,-0.26 -0.21,-0.46 -0.46,-0.46c-0.26,0 -0.46,0.21 -0.46,0.46v0.55c0.04,0.23 0.24,0.39 0.46,0.39c0.23,0 0.43,-0.16 0.46,-0.39zM102.38,36.51v5.61c0.03,0.23 0.22,0.4 0.45,0.4c0.23,0 0.43,-0.17 0.45,-0.4v-5.61c-0.03,-0.23 -0.22,-0.4 -0.45,-0.4c-0.23,0 -0.43,0.17 -0.45,0.4z" />
					<path id="Shape" class="shp0" d="M110.18,38.8v3.28c-0.01,0.12 0.04,0.24 0.13,0.32c0.09,0.08 0.21,0.13 0.33,0.11c0.12,0.02 0.24,-0.03 0.33,-0.11c0.09,-0.08 0.13,-0.2 0.12,-0.33v-3.29c0.02,-0.75 -0.28,-1.47 -0.81,-1.99c-0.53,-0.52 -1.26,-0.81 -2.01,-0.78c-0.97,-0.07 -1.88,0.42 -2.37,1.26v-0.77c-0.03,-0.23 -0.22,-0.39 -0.45,-0.39c-0.23,0 -0.42,0.17 -0.45,0.39v5.57c0,0.12 0.04,0.24 0.14,0.33c0.09,0.08 0.21,0.12 0.34,0.11c0.12,0.02 0.24,-0.03 0.33,-0.11c0.09,-0.08 0.13,-0.2 0.12,-0.33v-2.88c0,-1.29 1.05,-2.34 2.34,-2.35c0.51,0 1,0.21 1.36,0.57c0.36,0.36 0.56,0.85 0.55,1.36z" />
					<path id="Shape" class="shp0" d="M118.77,42.15c0,1.8 -1.39,2.73 -3.07,2.73c-0.87,0.05 -1.73,-0.26 -2.37,-0.86c-0.12,-0.11 -0.16,-0.27 -0.13,-0.42c0.04,-0.15 0.15,-0.28 0.31,-0.32c0.15,-0.05 0.32,-0.01 0.43,0.1c0.49,0.42 1.12,0.64 1.76,0.62c1.13,0 2.18,-0.57 2.18,-1.85v-0.69c-0.41,0.71 -1.17,1.13 -1.98,1.11c-0.46,0.02 -0.92,-0.06 -1.35,-0.24c-1.14,-0.49 -1.89,-1.61 -1.89,-2.85c-0.11,-1.39 0.69,-2.7 1.99,-3.23c0.37,-0.14 0.77,-0.21 1.17,-0.21c0.8,-0.04 1.57,0.32 2.04,0.97v-0.51c-0.01,-0.12 0.03,-0.25 0.12,-0.33c0.09,-0.09 0.21,-0.13 0.33,-0.12c0.12,-0.01 0.24,0.04 0.33,0.12c0.09,0.09 0.13,0.21 0.13,0.33zM113.59,39.43c0.01,0.32 0.07,0.63 0.19,0.92c0.36,0.85 1.2,1.39 2.12,1.36c1.07,0.01 1.96,-0.84 1.99,-1.91v-0.98c0.06,-0.74 -0.37,-1.42 -1.05,-1.7c-0.76,-0.35 -1.65,-0.26 -2.32,0.24c-0.62,0.5 -0.97,1.28 -0.92,2.08z" />
					<path id="Shape" class="shp0" d="M42.1,31.38v0.06c0.01,5.43 -3.97,10.05 -9.35,10.85c-5.38,0.8 -10.54,-2.46 -12.12,-7.66c-1.23,4.56 -5.36,7.74 -10.1,7.75h-0.06c-5.4,-0.04 -9.89,-4.18 -10.35,-9.55c-0.46,-5.37 3.25,-10.22 8.57,-11.17c-5.06,-1.08 -8.68,-5.54 -8.68,-10.7v-0.06c0.27,-5.86 5.11,-10.46 10.99,-10.45c5.87,0.01 10.7,4.64 10.94,10.5v0.04l-0.05,9.41h1.91l7.37,0.03c2.91,0.01 5.7,1.18 7.74,3.25c2.05,2.04 3.19,4.81 3.19,7.7zM20.18,10.99c0.02,-3.28 -1.72,-6.32 -4.56,-7.97c-2.84,-1.65 -6.34,-1.67 -9.2,-0.05c-2.85,1.63 -4.62,4.65 -4.64,7.93v0.05c0.01,5.04 4.09,9.13 9.14,9.17l9.19,0.05zM40.29,31.43v-0.05c-0.01,-5.04 -4.09,-9.13 -9.14,-9.17l-9.19,-0.05l-0.05,9.17c0.11,4.97 4.16,8.95 9.14,8.97c4.98,0.02 9.07,-3.91 9.23,-8.88z" />
					<path id="Shape" class="shp0" d="M33.66,16.3c1.48,-1.47 1.93,-3.68 1.14,-5.6c-0.79,-1.93 -2.66,-3.19 -4.74,-3.2v0c-2.84,0 -5.15,2.29 -5.16,5.12v5.15h5.16c1.35,0 2.64,-0.53 3.6,-1.47z" />
				</g>
			</g>
		</g>
	</g>
</svg>